<?xml version="1.0" encoding="UTF-8"?>
<svg id="Layer_1" data-name="Layer 1" xmlns="http://www.w3.org/2000/svg" viewBox="0 0 4000 4000">
  <defs>
    <style>
      .cls-1 {
        opacity: .2;
      }

      .cls-2 {
        opacity: .35;
      }

      .cls-3 {
        opacity: .6;
      }

      .cls-4 {
        opacity: .7;
      }

      .cls-5 {
        opacity: 0;
      }

      .cls-5, .cls-6, .cls-7, .cls-8, .cls-9, .cls-10, .cls-11, .cls-12 {
        stroke-width: 0px;
      }

      .cls-5, .cls-12 {
        fill: #fff;
      }

      .cls-6 {
        fill: #343a49;
      }

      .cls-7 {
        fill: #293856;
      }

      .cls-8 {
        fill: #21242e;
      }

      .cls-9 {
        fill: #2196f3;
        animation: fade .5s ease-in-out alternate infinite;
      }

      .cls-10 {
        fill: #22a7f0;
        animation: fade .5s ease-in-out alternate infinite;
      }

      .cls-11 {
        fill: #f44336;
      }

      @keyframes fade {
        to {fill: #343a49;}
      }
    </style>
  </defs>
  <rect class="cls-5" width="4000" height="4000"/>
  <g>
    <path class="cls-11" d="m277.19,1806.46c13.9,1.07,28.9,3.42,43.79,7h.05c42.43,10.23,84.08,30.36,96.96,58.28,13.83,29.82,15.83,59.85,21.26,86.35,6.53,31.74,17.96,58.48,60.6,73.77,4.6,1.64,9.15,3.07,13.75,4.29,66.51,17.95,129.94-2.67,129.83,76.35l271.15-214.88,468.12-371.01-798.57,136.81-305.71,136.26c-7.77,1.95-9.26,6.16-1.22,6.79Z"/>
    <g class="cls-1">
      <path class="cls-8" d="m277.19,1806.46c13.9,1.07,28.9,3.42,43.79,7h.05c42.43,10.23,84.08,30.36,96.96,58.28,13.83,29.82,15.83,59.85,21.26,86.35,6.53,31.74,17.96,58.48,60.6,73.77,4.6,1.64,9.15,3.07,13.75,4.29,66.51,17.95,129.94-2.67,129.83,76.35l271.15-214.88,468.12-371.01-798.57,136.81-305.71,136.26c-7.77,1.95-9.26,6.16-1.22,6.79Z"/>
    </g>
    <g class="cls-2">
      <path class="cls-8" d="m321.03,1813.46c42.43,10.22,84.08,30.35,96.96,58.27,13.83,29.82,15.83,59.85,21.26,86.35,5-17.36,16.2-38.38,40.01-59.15,56.14-48.91,549.54-161.51,532.34-188.21-10.55-16.39-680.32,100.96-690.56,102.75Z"/>
    </g>
    <g class="cls-2">
      <path class="cls-8" d="m513.6,2036.14c66.51,17.95,129.94-2.67,129.83,76.35l271.15-214.88c-165.07,55.29-353.36,121.66-400.97,138.53Z"/>
    </g>
    <path class="cls-8" d="m641.54,2116.42v-3.94c.08-56.55-32.44-60.42-77.43-65.78-19.96-2.37-42.57-5.06-64.88-13.08-52.71-18.93-58.68-54.66-65.59-96.05-3.53-21.15-7.19-43.02-17.38-65.06-16.67-36.05-84.18-59.98-139.23-64.17-5.61-.44-6.95-2.51-7.09-4.17-.22-2.64,2.72-4.99,7.86-6.3l305.55-136.21,806.34-138.21-748.16,592.97Zm-42.91-68.25c26.96,6.31,45.61,19.75,46.67,60.42l730.37-578.87-791.22,135.56-305.56,136.25c-3.42.85-4.76,1.95-5.09,2.38.14,0,.48.14,1.18.3.55.13,1.31.27,2.35.34,56.14,4.28,125.12,29,142.4,66.36,10.4,22.5,14.1,44.63,17.67,66.03,6.71,40.2,12.51,74.92,63.12,93.09,21.91,7.87,44.29,10.53,64.04,12.88,12.22,1.46,23.76,2.83,34.07,5.24Z"/>
    <path class="cls-8" d="m625.27,2150.02l.04-37.56c.05-40.21-15.13-43.93-63.13-49.64-20.81-2.48-44.4-5.28-68.45-13.92-61.66-22.14-69.01-66.12-76.11-108.64-3.36-20.1-6.83-40.87-16.1-60.93-13.38-28.94-75.68-50.97-125.74-54.8-15.18-1.13-21.35-10.96-22.02-19.01-.7-8.4,3.86-18.67,18.55-22.97l306.51-136.64,2.24-.38,868.47-148.8-824.26,653.28Zm-23.7-117.72c24.54,5.75,46.32,17.23,55.45,46.28l658.81-522.16-726.41,124.46-259.94,115.88c45.96,11.62,89.64,34.23,104.95,67.34,11.32,24.48,15.38,48.76,18.95,70.17,6.59,39.46,10.95,65.54,52.6,80.49,20.16,7.24,40.66,9.68,60.47,12.04,11.63,1.39,23.67,2.82,35.1,5.49Zm-323.15-232.62h.05s-.05,0-.05,0Z"/>
    <path class="cls-11" d="m1645.05,1473.73l-1303.76,156.1c-109.48,13.11-194.85,101.06-204.68,210.89h0s197.94-61.77,344.91-106.91c287.04-88.18,1163.53-260.07,1163.53-260.07Z"/>
    <g class="cls-4">
      <path class="cls-12" d="m136.6,1840.71s7.99-2.51,21.94-6.83c23.65-91.85,101.56-161.77,198.22-173.39l899.04-107.65c212.66-44.42,382.56-77.77,389.06-79.09l-1303.54,156.07c-109.49,13.14-194.87,101.05-204.72,210.88Z"/>
    </g>
    <path class="cls-8" d="m116.14,1866.1l2.42-27c10.53-117.65,103.3-213.23,220.58-227.27l1303.75-156.1,5.64,35.79c-8.76,1.72-878.84,172.71-1161.69,259.61-145.25,44.62-342.85,106.27-344.83,106.89l-25.87,8.07Zm1092.91-321.9l-865.6,103.64c-91.03,10.9-164.81,79.2-184.48,166.92,59.77-18.62,204.3-63.59,317.22-98.28,151.12-46.43,467.71-116.49,732.85-172.28Z"/>
    <path class="cls-12" d="m836.55,2730.59c61.76,69.62,223.95,100.81,249.12-120.6,0,0,159.12,18.22,300.02-12.93,70.01-15.49,135.51-43.17,174.77-91.32l-218.79-582.65s-132.22,180.79-228.91,268.66c-55.28,50.22-128.44,90.49-188.87,113.58-16.46,6.29-31.98,11.32-45.94,14.89-99.02,25.46-125.22,315.89-41.4,410.37Z"/>
    <g class="cls-2">
      <path class="cls-8" d="m808.05,2681.51c7.45,19.29,16.93,36.04,28.49,49.08,61.76,69.62,223.95,100.81,249.12-120.6,0,0,159.08,18.21,299.97-12.94h.04c13.99-3.09,27.81-6.65,41.26-10.81,2.51-.76,5.02-1.57,7.55-2.42,19.44-6.29,38.06-13.85,55.34-22.84,1.39-.75,2.76-1.45,4.14-2.19,6.02-3.25,11.89-6.66,17.55-10.32,1.7-1.09,3.4-2.18,5.06-3.33,3.37-2.28,6.66-4.59,9.83-7.01,1.41-1.07,2.84-2.18,4.26-3.28,3.26-2.59,6.44-5.24,9.51-8.01,1.41-1.25,2.78-2.52,4.1-3.79,1.54-1.41,2.99-2.84,4.45-4.31,1.34-1.36,2.7-2.77,4.02-4.23.99-1.03,1.93-2.06,2.88-3.14.68-.72,1.33-1.5,1.98-2.28,1.01-1.11,1.91-2.21,2.83-3.34l-218.79-582.65s-.01.04-.08.12c-.05.03-.06.08-.08.12-.13.16-.27.36-.53.67-1.3,1.79-4.51,6.16-9.32,12.57-32.57,43.48-138.13,181.78-218.91,255.18-55.28,50.22-128.44,90.49-188.87,113.58,42.05,80.21,106.92,151.39,188.74,203.51,29.54,18.82,11.96,64.53-22.61,58.88-77.62-12.68-130.66-34.14-130.66-34.14,60.9,205.11-84.84,209.44-151.29,147.93Z"/>
    </g>
    <path class="cls-8" d="m914.16,2795.97c-36.54-8.55-69.74-29.22-91.18-53.38-60.92-68.66-67.72-226.38-35.85-330.6,18.92-61.88,48.76-99.68,86.29-109.32,60.63-15.59,157.57-61.15,227.14-124.35,94.26-85.64,225.14-264.15,226.45-265.95,5.91-8.08,17.27-9.84,25.33-3.94,8.08,5.91,9.85,17.25,3.94,25.33-5.44,7.44-134.38,183.3-231.34,271.39-74.14,67.36-177.67,115.97-242.5,132.63-23.94,6.15-46.04,37.07-60.64,84.81-28.4,92.88-23.77,237.26,28.3,295.94,27.49,30.97,82.13,55.86,129.26,40.95,48.22-15.25,78.74-67.65,88.26-151.53l2.05-18.02,18.02,2.05c3.47.39,348.11,37.95,458.72-97.73,6.33-7.76,17.75-8.92,25.51-2.6,7.76,6.33,8.92,17.75,2.6,25.51-108.95,133.64-397.82,118.89-473.22,112.55-17.21,111.73-69.27,151.14-111,164.34-25.17,7.96-51.42,7.71-76.14,1.92Z"/>
    <path class="cls-8" d="m1202.96,2628.48c-.82-.19-1.63-.46-2.43-.82-93.47-41.5-271.49-163.36-276.28-327.49-.22-7.51,5.69-13.77,13.2-13.99,7.49-.22,13.77,5.69,13.99,13.2,4.07,139.68,157.8,257.98,260.13,303.43,6.87,3.05,9.96,11.08,6.91,17.94-2.69,6.07-9.28,9.19-15.51,7.73Z"/>
    <path class="cls-8" d="m1083.2,2626.93c-9.45-1.35-17.34-3.45-25.61-6.21-4.1-1.28-8.13-2.78-12.08-4.44-4-1.54-7.93-3.29-11.78-5.21-15.56-7.3-30.07-16.95-43.58-27.79-13.38-11.1-25.41-23.98-35.27-38.26-9.57-14.59-16.28-30.89-19.26-47.39-.26-1.43.69-2.8,2.12-3.05,1.05-.19,2.06.27,2.63,1.09l.1.15c9.23,13.41,19.16,25.11,30.71,35.04,11.7,9.78,24.24,18.1,37.39,25.43,13.33,7.14,27.26,12.99,41.17,18.87,6.98,2.88,14.04,5.63,21.08,8.37,6.91,2.71,14.43,5.5,20.64,8.1l1.33.55c9.26,3.88,13.62,14.53,9.74,23.78-3.26,7.79-11.34,12.11-19.33,10.97Z"/>
    <path class="cls-12" d="m1893.23,2380.92c30.01,38.45,60.88,70.02,85.98,89.26,211.2,161.83,381.6-21.01,383.86-134.21,3.01-152.82-156.86-125.87-156.86-125.87-51.8-17.95-90.94-54.95-108.02-115.97-20.97-74.64-8.96-185.18,53.21-340.76,10.23-25.58,21.82-52.43,34.82-80.52l-60.8,54.89-314.99,284.4c-80.66,94.97-2.41,259.6,82.81,368.79Z"/>
    <g class="cls-2">
      <path class="cls-8" d="m1781.06,2070.94c-.48,2.03-.91,4.07-1.3,6.17-.07.31-.1.63-.16.89-.34,1.83-.68,3.7-.94,5.6-.07.31-.09.58-.16.89-.28,1.98-.56,3.97-.75,5.97-.22,1.72-.35,3.5-.48,5.24-.12.9-.19,1.82-.21,2.7-.41,6.33-.5,12.68-.34,19.15.07,2.3.18,4.6.33,6.92l-.02.09c.13,2.03.29,4.12.46,6.2.04.43.08.86.11,1.33.2,2.14.44,4.29.72,6.45.23,2.38.57,4.74.94,7.11.15,1.15.34,2.31.55,3.43.36,2.46.81,4.89,1.26,7.32.06.34.12.68.19.98.25,1.5.6,3.03.89,4.54.51,2.59,1.11,5.19,1.71,7.8.33,1.57.71,3.14,1.14,4.69,1.26,5.14,2.71,10.32,4.23,15.52.62,2.1,1.29,4.21,1.96,6.33,4.44,14.03,9.75,28.12,15.83,42.11.72,1.7,1.49,3.37,2.25,5.09.72,1.7,1.49,3.37,2.3,5.1,1.55,3.34,3.12,6.74,4.76,10.1,1.58,3.21,3.15,6.42,4.77,9.64,4.29,8.5,8.87,16.97,13.62,25.35.93,1.61,1.84,3.27,2.81,4.89,10.6,18.36,22.07,36.17,33.97,53.11,1.51,2.12,3.05,4.25,4.55,6.42.36.46.67.9.99,1.35,2.14,2.97,4.3,5.89,6.46,8.78,3.22,4.34,6.46,8.59,9.72,12.75,30.01,38.45,60.88,70.02,85.98,89.26,172.84,132.41,318.34,34.05,366.75-68.11-68.5,69.47-186.43,106.14-320.9,3.11-.23-.18-.46-.36-.7-.53-47-36.25-55.93-103.5-21.44-151.8,37.48-52.47,69.02-106.81,95.25-158.73-20.97-74.64-8.96-185.18,53.21-340.76l-25.98-25.63-295.28,266.62-19.71,17.78c-14.85,17.52-24.34,37.36-29.36,58.81Z"/>
    </g>
    <path class="cls-8" d="m2091.63,2545.76c-41.27-9.66-82.93-30.14-123.45-61.2-76.2-58.4-194.21-215.65-208.26-347.23-5.9-55.25,6.45-101.32,36.69-136.93,6.48-7.64,17.92-8.57,25.56-2.08,7.63,6.48,8.56,17.92,2.08,25.56-23.57,27.74-33.08,64.62-28.28,109.61,12.5,117.03,121.57,266.59,194.26,322.3,103.14,79.04,186.11,66.12,237.54,41.37,72.01-34.65,116.12-109.36,117.15-161.56.75-37.78-9.41-66.06-30.21-84.08-39.18-33.94-104.88-23.62-105.54-23.51l-4.54.74-4.38-1.5c-52.24-18.13-89.37-52.41-110.36-101.88-42.33-99.75-15.46-254.57,79.86-460.17,4.21-9.09,15-13.04,24.07-8.82,9.08,4.21,13.03,14.99,8.82,24.07-89.54,193.15-116.99,342.1-79.38,430.75,16.28,38.38,44.83,65.39,84.87,80.35,18.65-2.23,84.71-6.79,130.12,32.4,29.44,25.4,43.88,63.21,42.9,112.36-1.24,62.29-49.91,151.28-137.68,193.51-47.88,23.04-99.56,28.18-151.87,15.93Z"/>
    <path class="cls-12" d="m1067.31,2431.73c112.34,87.19,264.49,136.23,437.02,114.06,308.6-39.64,488-312.36,580.45-516.95,58.13-128.55,81.92-230.19,81.92-230.19l-541.53-534.3c-60.71,106.77-125.55,174.96-191.71,223.52-126.8,93.25-258.22,114.52-373.71,198.45-40.34,29.33-78.74,66.28-114.27,116.66-1.31,1.83-2.64,3.71-3.92,5.6-11.43,16.6-21.45,33.57-30.14,50.8-100.53,198.92-22.53,433.78,155.89,572.34Z"/>
    <g class="cls-2">
      <path class="cls-8" d="m1504.33,2545.79c221.83-28.5,376.89-177.41,480.89-334.88-102.6,136.01-246.46,255.15-442.37,280.31-460.17,59.13-775.47-388.27-576.64-715.74-8.39,10.37-16.6,21.39-24.65,33.1-226.51,329,92.48,797.64,562.77,737.21Z"/>
    </g>
    <path class="cls-8" d="m1281.22,2553c-43.14-10.1-84.85-24.89-124.46-44.28-98.23-48.07-179.43-121.47-234.82-212.27-99.51-163.11-97.75-349.34,4.72-498.16,88.68-128.79,192.69-173.99,302.8-221.85,128.96-56.05,262.3-114.01,379.94-321.03l11.67-20.55,565.62,558.02-2.32,9.9c-1.66,7.07-41.75,175.29-144.67,354.26-137.41,238.93-321.74,379.58-533.06,406.74-76.99,9.89-153.2,6.13-225.41-10.78Zm347.82-1259.33c-120.59,201.04-255.01,259.47-385.13,316.03-105.22,45.73-204.6,88.93-287.39,209.17-94.12,136.69-95.48,308.17-3.64,458.71,87.74,143.82,278.07,285.08,549.12,250.24,251.94-32.38,414.12-228.91,505.81-388.07,86.67-150.46,128.63-296.99,138.77-335.48l-517.54-510.59Z"/>
    <g class="cls-2">
      <path class="cls-8" d="m1433.47,1487.87c65.57,299.26,340.38,536.13,651.32,540.97,58.13-128.55,81.92-230.19,81.92-230.19l-541.53-534.3c-60.71,106.77-125.55,174.96-191.71,223.52Z"/>
    </g>
    <g class="cls-2">
      <path class="cls-8" d="m1558.04,1521.92c94.73,15.07,187.43-84.52,198.65-217.25-88.02,122.65-182.14-131.34-178.34-197.49-253.51,8.86-194.91,390.79-20.31,414.73Z"/>
    </g>
    <g class="cls-4">
      <path class="cls-12" d="m1843.89,1199.51c8.17,133.69,160.27,126.76,172.68,10,7.34-148.14-172.05-142.87-172.68-10Z"/>
    </g>
    <g>
      <path class="cls-12" d="m2761.16,1759.63c-688.84,674.23-1659.1-248.77-1069.45-965.7,688.75-706.9,1690.79,248.12,1069.45,965.7Z"/>
      <path class="cls-12" d="m2761.16,1759.63c-688.84,674.23-1659.1-248.77-1069.45-965.7,688.75-706.9,1690.79,248.12,1069.45,965.7Z"/>
      <path class="cls-12" d="m2761.16,1759.63c-688.84,674.23-1659.1-248.77-1069.45-965.7,688.75-706.9,1690.79,248.12,1069.45,965.7Z"/>
      <path class="cls-8" d="m2074.01,1989.6c-121.62-28.48-236.66-89.53-333.64-178.47-136.06-124.79-221.55-290.16-240.7-465.67-21.42-196.23,41.3-389.97,181.38-560.29l.77-.86c161.8-166.06,353.08-253.35,553.16-252.43,177.43.81,351.26,71.18,489.45,198.13,138.48,127.22,224.49,295.34,242.18,473.41,19.82,199.56-47.61,395.02-195,565.25l-.78.83c-162.02,158.58-351.72,241-548.59,238.34-49.97-.67-99.62-6.85-148.23-18.24Zm-372-1186.45c-301.04,366.5-181.53,768.84,57.03,987.62,244.17,223.94,645.56,298.2,992.07-40.61,317.31-366.86,198.95-775.39-45.36-999.82-241.93-222.25-659.16-300.48-1003.74,52.81Zm1059.16,956.48h.05s-.05,0-.05,0Z"/>
      <g class="cls-2">
        <path class="cls-7" d="m2761.17,1759.61c-584.83,592.71-1498.37-46.42-1186.58-783.47-19.6,260.25,63.47,292.9,160.8,453.87,291.63,520.83,1002.52,383.23,1215-96.85-14.06,161.63-82.47,311.01-189.23,426.45Z"/>
      </g>
      <path class="cls-8" d="m2072.74,1995.01c-122.55-28.7-238.44-90.2-336.13-179.79-137.06-125.7-223.17-292.32-242.47-469.17-21.59-197.75,41.56-392.92,182.62-564.43l1.09-1.21c162.87-167.17,355.54-255.03,557.17-254.1,178.82.83,353.97,71.71,493.18,199.6,139.49,128.14,226.13,297.53,243.95,476.96,19.98,201.12-47.91,398.03-196.33,569.44l-1.09,1.16c-163.1,159.64-354.17,242.6-552.55,239.92-50.37-.68-100.43-6.91-149.42-18.38Zm-366.59-1188.15c-298.61,363.67-180.02,762.77,56.64,979.81,242.21,222.13,640.39,295.74,984.26-40.33,314.67-364,197.29-769.29-45.06-991.92-239.98-220.45-653.87-297.99-995.83,52.43Zm1055.01,952.77h.05s-.05,0-.05,0Z"/>
      <path class="cls-6" d="m2619.48,1878.01c-800.44,274.71-1235.53-682.83-594.79-1054.91,743.01-373.16,1299.43,560.37,594.79,1054.91Z"/>
      <path class="cls-8" d="m2911.11,1426.24c-150.68,749.89-1235.02,592.35-1209.78-115.85,260.53,473.77,934.54,437.18,1209.78,115.85Z"/>
      <path class="cls-8" d="m2138.93,1986.36c-89.73-21.01-175.87-62.44-251.91-122.15-126.83-99.6-214.95-239.85-248.12-394.92-36.59-171.04-3.68-344.62,95.18-501.97,106.73-160.57,285.28-271.98,490.1-306.01,205.54-34.15,411.65,14.01,565.49,132.13l2.03,1.85c121.93,131.91,184.62,309.58,176.52,500.3-7.65,180.16-78.85,353.37-195.35,475.23l-.08.09c-137.68,141.84-298.66,221.56-465.53,230.55-56.46,3.04-113.07-2.16-168.33-15.1Zm380.34-1284.49c-92.43-21.64-191.13-25.01-289.79-8.61-196,32.57-366.65,138.87-468.21,291.64-204.13,324.92-81.25,675.57,145.75,853.84,197.57,155.15,536.73,224.58,842.46-90.33,215.58-225.53,274.61-652.79,19.37-930.12-72.91-55.72-158.18-95.02-249.58-116.42Zm241.89,1057.76h.05s-.05,0-.05,0Z"/>
      <path class="cls-8" d="m2183.18,1928.1c-36.29-8.5-71.56-19.99-105.65-34.49-144.54-61.47-260.07-173.99-325.3-316.83-60.23-131.91-71.73-278.19-32.36-411.91,43.48-147.69,145.52-271.67,295.09-358.52l1.04-.56c175.9-88.34,354.09-110.73,515.35-64.66,145,41.4,267.91,136.25,346.1,267.07,80.01,133.87,105.13,291.49,70.73,443.84-38.43,170.2-148.24,322.98-317.57,441.82l-2.24,1.58-2.59.89c-155.01,53.2-305.92,63.77-442.59,31.77Zm-149.28-1087.96c-314.08,182.71-350.12,493.49-246.44,720.55,114.2,250.09,412.87,439.48,823.13,299.89,353.24-249.39,368.88-606.14,233.6-832.5-136.05-227.63-439.34-373.95-810.29-187.94Zm585.58,1037.87h.05s-.05,0-.05,0Z"/>
      <path class="cls-12" d="m1402.52,1250.74c-22.61,339.12,315.36,390.33,369.58,68.75,36.75-354.56-324.52-409.34-369.58-68.75Z"/>
      <path class="cls-8" d="m1545.52,1549.99c-89.62-20.99-174.37-120.01-162.33-300.54l.13-1.25c24.26-183.42,136.06-255.08,229.66-244.04,54.63,6.44,104.67,40.34,137.31,93.01,36.05,58.17,50.26,135.73,41.08,224.32l-.17,1.22c-29.38,174.2-135.49,241.26-227.63,230.45-6.02-.71-12.05-1.76-18.05-3.17Zm-123.72-297.34c-10.91,166.95,68.17,252.9,146.28,262.03,73.83,8.66,159.54-49.15,184.82-197.81,17.08-166.85-59.7-264.26-144.46-274.25-75.23-8.87-165.66,53.09-186.64,210.03Z"/>
      <path class="cls-12" d="m1385.65,1266.27c-18.04,274.83,234.51,317.47,278.41,57.39,31.46-290.4-243.04-336.43-278.41-57.39Z"/>
      <path class="cls-8" d="m1493.07,1513.53c-70.19-16.43-136.62-98.12-126.75-248.53l.11-1.16c19.19-151.46,106.15-211.25,178.81-202.71,81.78,9.64,155.51,103.59,138.06,264.61l-.16,1.14c-23.97,142.02-106.06,197.25-176.78,188.98-4.43-.52-8.87-1.3-13.29-2.33Zm-88.14-245.4c-8.63,134.25,48.78,202.59,105.93,209.26,52.44,6.13,114.15-39.86,133.99-156.39,14.51-135.61-41.38-214.07-104.13-221.4-54.22-6.37-119.79,43.65-135.79,168.53Z"/>
      <g class="cls-3">
        <path class="cls-12" d="m1902.99,1419.17c6.49,54.43,77.61,52.56,76.04-7.23-6.49-54.42-77.61-52.55-76.04,7.23Z"/>
      </g>
      <g class="cls-3">
        <path class="cls-12" d="m2797.49,1451.25c192.76-470.06-299.54-647.65-476.48-578.53,319.68,95.47,418.26,328.36,476.48,578.53Z"/>
      </g>
      <g class="cls-2">
        <path class="cls-8" d="m1663.91,1386.87c13.23-36.42,16.51-76.59,11.32-115.17-87.74,168.96-250.61,49.1-263.55-89.17-99.58,256.68,142.55,441.49,252.23,204.33Z"/>
      </g>
    </g>
    <path class="cls-8" d="m2211.19,2227.55c-1.26.46-4.15,1.62-6.34,2.62-2.37,1.14-4.74,2.25-7.1,3.55-2.39,1.19-4.71,2.56-7.02,3.98-2.35,1.33-4.59,2.87-6.85,4.39-8.98,6.13-17.56,13.05-25.18,21.02-4.06,3.74-7.34,8.23-11.04,12.35-3.44,4.34-6.69,8.87-9.92,13.42-2.81,4.84-6.03,9.45-8.59,14.47-2.44,5.09-5.38,9.95-7.53,15.23-2.07,5.31-4.45,10.52-6.33,15.95-1.68,5.51-3.4,11.02-5.22,16.53-2.83,10.48-4.26,21.12-3.52,31.81,1.62,21.28,9.78,42.39,23.17,63.4l.11.17c.46.72.25,1.68-.47,2.13-.44.28-.99.31-1.44.12-24.28-10.41-41.81-35.12-46.35-62.59-2.4-13.69-1.97-27.84.28-41.36,1.32-6.36,2.74-12.72,4.2-19.08,1.65-6.32,3.86-12.53,5.8-18.81,8.67-24.85,22.11-48.75,40.62-68.58,8.97-10.16,19.49-18.94,30.7-26.72,2.8-1.96,5.65-3.85,8.65-5.53,2.94-1.76,5.92-3.47,9.04-5,3.03-1.65,6.27-3.03,9.49-4.43,3.46-1.39,6.27-2.53,10.87-3.91,9.58-2.87,19.66,2.57,22.53,12.15,2.76,9.21-2.17,18.9-11.08,22.17l-1.47.54Z"/>
    <path class="cls-12" d="m2255.03,2209.48s-91.21.91-142.73,75.84c0,0-32.92-10.11-30.39-49.51,2.95-46,53.51-101.94,117.69-91.67,48.7,7.79,55.44,65.35,55.44,65.35Z"/>
    <g class="cls-2">
      <path class="cls-8" d="m2081.9,2235.78c-2.53,39.44,30.39,49.52,30.39,49.52,51.53-74.94,142.74-75.83,142.74-75.83,0,0-1.47-12.59-8.02-26.78-26.59-.4-72.39,4.07-113.07,33.8-15.5,11.33-37.89,2.97-40.92-15.99-.04-.23-.07-.45-.1-.68-6.39,11.77-10.27,24.18-11.03,35.96Z"/>
    </g>
    <path class="cls-8" d="m2119.52,2306.04l-12.41-3.81c-16.01-4.91-45.56-25.35-42.85-67.55,1.91-29.8,19.72-61.59,46.49-82.97,26.7-21.33,59.25-30.22,91.65-25.04,61.22,9.87,69.87,77.86,70.21,80.76l2.29,19.54-19.64.19c-1.51.03-83.1,2.33-128.37,68.17l-7.35,10.7Zm80.35-143.84c-.99-.23-2.01-.43-3.06-.6-22.44-3.59-45.16,2.71-63.99,17.75-18.93,15.13-31.99,37.73-33.26,57.59-.81,12.66,3.52,20.48,8.14,25.17,40.07-48.32,94.8-63.43,125.01-68.16-4.9-12.39-14.5-27.45-32.84-31.75Z"/>
    <path class="cls-12" d="m1219.92,1639.25l303.6,171.36c146.86-114.48,359.98-405.18,359.98-405.18,0,0,38.4,7.55,85.93-1.8,35.53-7,76.16-23.46,109.65-59.56,10.68-11.42,20.63-24.87,29.44-40.63,86.49-154.45-78.76-323.06-254.59-313.08-276.43,15.76-337.92,396.24-634.02,648.89Z"/>
    <g class="cls-2">
      <path class="cls-8" d="m1804.8,1334.39c42.48,33.08,109.28,55.34,164.64,69.23,35.53-7,76.16-23.46,109.65-59.56-92.05-16.81-322.36-71.95-322.15-202.47,0,0-81.27,92.22,47.86,192.8Z"/>
    </g>
    <path class="cls-8" d="m1216,1634.67c10.52-14.51,22.24-27.34,33.25-40.88,11.33-13.18,22.41-26.48,33.88-39.37,22.62-26.11,44.58-52.71,66.28-79.66,21.47-27.14,42.74-54.59,62.71-83.1,20.22-28.33,39.33-57.58,58.56-86.86,38.49-58.52,76.07-118.35,120.68-174.51,22.35-27.98,46.62-55.01,74.34-79.01,27.57-24.06,59.27-44.59,94.1-58.38l13.12-5c4.34-1.77,8.96-2.71,13.42-4.1l13.52-3.82c4.57-.97,9.17-1.79,13.76-2.68,4.6-.82,9.17-1.84,13.79-2.48l13.9-1.4c4.65-.39,9.24-1.07,13.93-1.21l14.06-.36c37.49.24,74.78,7.48,109.36,21.41,34.71,13.62,66.74,33.84,94.29,59.21,27.49,25.38,50.15,56.83,63.95,92.63,6.86,17.88,11.34,36.86,12.87,56.21,1.53,19.34-.16,38.97-4.64,57.8-4.48,18.85-11.79,36.84-21,53.55-9.27,16.48-20.51,32.1-33.79,45.95-26.51,27.84-61.07,47.86-97.6,58.02-18.26,5.17-36.97,8.16-55.7,9.29-9.37.54-18.75.63-28.14.24-4.7-.19-9.4-.51-14.12-.97-4.86-.48-9.16-.98-14.78-1.99l18.12-7.07c-27.19,36.76-54.96,72.55-83.26,108.18-28.3,35.58-57.14,70.74-86.86,105.25-14.68,17.39-29.99,34.29-45.05,51.4-15.35,16.88-30.1,34.32-45.9,50.92-3.88,4.2-7.88,8.3-11.86,12.41-4.06,4.05-8.31,7.93-12.49,11.87-4.15,3.97-8.48,7.75-12.74,11.6l-6.43,5.73-6.77,5.42c-9.14,7.11-18.36,14.05-28.21,20.26-10.14,5.93-20.36,11.65-31.29,16.2-3.19,1.33-6.86-.18-8.19-3.38-.86-2.08-.53-4.35.69-6.06l.07-.09c27.07-37.62,57.98-68.79,89.33-100.92,7.77-8.06,15.95-15.7,23.66-23.86,7.76-8.1,15.52-16.21,23.13-24.46,15-16.73,29.98-33.48,44.53-50.66,29.36-34.1,57.94-68.94,86-104.22,28.01-35.25,55.74-71.01,82.39-107.04l6.74-9.11,11.38,2.04c3.02.54,7.43,1.12,11.3,1.48,4,.39,8.06.67,12.13.83,8.14.34,16.32.26,24.47-.21,16.29-.99,32.43-3.59,47.94-7.98,31.06-8.7,59.28-25.18,81.28-48.19,11.02-11.49,20.47-24.57,28.4-38.67,7.7-14.03,13.67-28.82,17.32-44.11,3.64-15.28,5.02-31.05,3.78-46.71-1.24-15.66-4.89-31.17-10.59-46.04-11.46-29.73-30.72-56.85-54.76-79-24.05-22.15-52.35-40.09-83-52.08-30.53-12.31-63.33-18.61-96.02-18.84l-12.25.31c-4.08.1-8.19.75-12.28,1.09l-12.29,1.21c-4.07.56-8.06,1.49-12.1,2.2l-12.08,2.32-11.8,3.36c-3.9,1.22-7.95,1.98-11.74,3.57l-11.47,4.38c-30.46,12.06-58.61,30.11-83.88,52.17-25.37,21.96-48.26,47.34-69.67,74.16-42.79,53.82-80.1,113.05-118.68,171.76-38.63,58.71-77.57,117.9-120.95,174.33-22,27.98-45.78,54.66-71.09,79.83-13.02,12.24-26.1,24.4-40.49,35.12-13.92,11.18-29.07,20.98-44.63,29.93-2.94,1.69-6.7.68-8.39-2.26-1.24-2.16-1.03-4.77.35-6.67l.19-.27Z"/>
    <path class="cls-8" d="m1768.77,1102.46c4.33,12.98,5.75,23.27,6.82,33.94,1.57,10.62,2.72,21.5,5.3,32.61,2.67,11.09,7.21,21.87,12.61,32.33.65,1.36,1.31,2.71,1.81,3.45.48.9,1.07,1.83,1.78,2.79.61.95,1.35,1.92,2.15,2.89.73.98,1.55,1.95,2.45,2.93,3.45,3.9,7.45,7.78,11.81,11.46,17.58,14.77,38.84,27.17,60.72,37.55,21.98,10.37,45.01,18.85,68.45,24.92,23.41,6.05,47.38,9.81,70.62,9.45,23.13-.31,45.73-5.19,62.36-16.91,8.37-5.76,15.01-13.32,20.14-22.11,4.98-8.91,8.31-19.15,10.19-30.04.92-5.46,1.5-11.08,1.77-16.78.23-5.73-.58-11.51-1.26-17.31-.75-5.79-.6-11.64.18-17.77,1.14-6.15,3-12.53,8.67-19.91l.22-.29c2.79-3.63,7.91-4.42,11.66-1.92,7.73,5.17,11.9,11.32,14.42,17.83,2.52,6.48,3.57,13.34,3.5,20.25-.03,6.92-.88,13.87-1.14,20.86-.41,7.01-1.07,14.07-2.28,21.16-2.44,14.15-6.93,28.52-14.41,41.84-7.59,13.23-18.2,25.19-30.84,33.88-12.52,8.89-26.61,14.57-40.59,18.19-14.04,3.51-28.15,5.12-41.98,5.29-27.72.4-54.49-3.95-80.32-10.6-25.85-6.7-50.8-15.89-74.86-27.24-24.02-11.47-47.25-24.75-68.72-42.72-5.35-4.54-10.56-9.5-15.54-15.13-1.25-1.38-2.48-2.83-3.67-4.4-1.21-1.5-2.4-3.06-3.53-4.77-2.23-3.04-4.73-7.57-5.99-10.25-6.3-12.15-11.39-25.02-16.27-38.24-4.69-13.28-7.98-27.68-7.1-42.52.89-14.65,5.19-30.37,20.32-40.56,2.95-1.99,6.95-1.21,8.94,1.74.33.49.58,1,.76,1.53l.86,2.59Z"/>
    <path class="cls-12" d="m2124.47,1266.5s-132.85-42.87-164.23-6.75c-37.97,43.7.21,79.74,41.3,98.83,39.8,18.49,69.34,30.47,98.05,2.9,39.19-37.63,24.88-94.98,24.88-94.98Z"/>
    <g class="cls-2">
      <path class="cls-8" d="m2001.54,1358.58c39.8,18.49,69.35,30.44,98.05,2.9,21.86-21,27.05-48.13,27.38-68.02-3.99,7.91-9.43,15.62-16.75,22.61-28.7,27.54-58.25,15.59-98.05-2.9-24.39-11.34-47.76-28.64-54.77-49.97-33.1,42.15,4.14,76.75,44.14,95.38Z"/>
    </g>
    <path class="cls-8" d="m2041.32,1392.83c-16.19-3.79-32.12-11.2-47.23-18.22-21.39-9.94-58.38-31.84-65.85-66.84-2.98-13.98-2.17-35.67,18.65-59.63,37.16-42.77,158.97-6.24,183.01,1.53l9.35,3.02,2.38,9.53c.68,2.75,16.26,67.79-29.79,112.01-22.91,21.99-46.99,24.11-70.52,18.6Zm40.77-119.73c-48.92-11.45-97.22-14.74-108.5-1.76-9.16,10.54-12.68,20.04-10.76,29.05,3.07,14.38,20.33,30.14,46.16,42.14,43.57,20.25,60.06,23.74,78.35,6.18,22.69-21.79,22.95-53.07,21.39-68.57-8.75-2.59-17.71-4.95-26.64-7.04Z"/>
    <path class="cls-12" d="m958.76,1816.15s-163.42,153.89-274.82,222.88c-81.02,50.18-187.55,79.39-254.91,84.2-102.19,7.29-181.34,287.77-116.13,395.48,48.08,79.42,202.11,139.03,267.53-73.86,0,0,369.12,90.21,512.26-31.09h0c34.58-24.02,48.96-68.1,35.22-107.9l-169.14-489.72Z"/>
    <g class="cls-2">
      <path class="cls-8" d="m289.33,2421.14c1.03,38.13,8.39,72.53,23.56,97.59,48.07,79.4,202.11,138.98,267.55-73.88,0,0,369.11,90.2,512.26-31.1,19.62-13.61,32.71-33.72,37.88-55.79.04-.17.08-.34.12-.51,5.94-26-22.49-46.45-45.75-33.4-3.13,1.75-6.13,3.59-8.88,5.5-261.57,182.91-602.66-13.15-602.66-13.15,73.81,241.44-155.9,219.94-177.11,118.15-1.01-4.83-4.9-8.69-6.96-13.41Z"/>
    </g>
    <path class="cls-8" d="m404.42,2605.82c-46.07-10.78-86.15-43.23-107.03-77.72-47.08-77.76-25.24-233.3,24.7-329.78,30.11-58.17,66.64-90.39,105.65-93.17,62.6-4.47,166.5-31.89,246.66-81.53,107.94-66.85,251.52-223.59,252.95-225.17,6.74-7.4,18.21-7.92,25.61-1.17,7.4,6.75,7.92,18.21,1.17,25.61-6.01,6.59-148.39,162.04-260.65,231.56-85.38,52.87-196.27,82.09-263.17,86.86-25.01,1.79-52.72,28.64-76.03,73.67-44.49,85.95-66.06,227.98-25.88,294.34,21.86,36.1,69.95,69.45,119.57,63.29,50.47-6.25,90.28-52.27,115.12-133.09l5.02-16.34,16.61,4.05c3.61.95,361.82,86.6,496.23-27.31l1.84-1.37c.1-.07,17.28-11.64,25.11-30.15,3.9-9.22,14.55-13.51,23.76-9.63,9.22,3.9,13.54,14.54,9.63,23.76-11.07,26.16-32.24,41.96-37.69,45.71-132.92,111.4-436.33,54.24-511.11,37.95-37.51,107.53-96.34,136.99-140.07,142.4-16.34,2.02-32.52.84-48.02-2.78Z"/>
    <path class="cls-8" d="m1793.64,1531.25c-.4-.09-.79-.2-1.19-.33-12.44-4.12-304.64-102.57-301.95-244.39.14-7.51,6.34-13.48,13.85-13.34,7.54.16,13.48,6.34,13.34,13.85-1.92,101.17,203.86,191.71,283.32,218.06,7.13,2.36,10.99,10.06,8.63,17.19-2.23,6.73-9.22,10.55-15.99,8.96Z"/>
    <path class="cls-8" d="m697.08,2479.62c-.66-.16-1.32-.36-1.97-.62-2.27-.91-56.09-22.97-100.87-82.3-41.04-54.37-81.83-151.6-43.15-306.07,1.82-7.29,9.06-11.87,16.49-9.88,7.28,1.82,11.71,9.21,9.88,16.49-28.8,115.02-16.14,209.89,37.65,281.97,40.16,53.82,89.65,74.35,90.14,74.55,6.95,2.82,10.31,10.74,7.51,17.69-2.54,6.3-9.26,9.66-15.68,8.16Z"/>
    <path class="cls-8" d="m577.39,2459.7c-5.02-.72-8.66-1.57-12.73-2.74-3.95-1.15-7.8-2.49-11.57-4.05-3.8-1.48-7.42-3.33-11.07-5.13-3.52-2.03-7.11-3.96-10.5-6.2-13.71-8.78-25.55-20.52-34.95-33.7-9.35-13.18-16.67-27.75-20.4-43.03-2.4-7.46-3.1-15.3-4.12-22.88-.68-3.76-.31-7.67-.4-11.46-.01-3.81.11-7.59.21-11.33.03-1.2,1.04-2.15,2.24-2.11.9.03,1.65.59,1.96,1.38l.11.28c2.74,6.95,4.68,13.9,7.47,20.48,3.16,6.46,5.42,13.08,9.29,18.93,6.44,12.26,15.16,22.77,24.48,32.06,9.37,9.33,20.17,16.85,31.42,23.42,2.87,1.55,5.75,3.1,8.57,4.72,2.98,1.33,5.84,2.93,8.8,4.28,2.98,1.31,5.91,2.74,8.91,3.93l8.34,3.46,1.85.77c7.71,3.2,11.37,12.05,8.17,19.76-2.7,6.51-9.43,10.13-16.1,9.18Z"/>
    <path class="cls-12" d="m1983.46,2254.26l-15.78-39.33c-7.68-19.14-21.05-35.46-38.31-46.75l-288.45-188.69c-4.77-3.09-34.85,60.9-37.9,65.69l12.27,90.01,368.17,119.05Z"/>
    <path class="cls-8" d="m1971.79,2263.7c-.47-.11-.94-.24-1.41-.39l-366.52-118.52-13.97-102.46,2.48-3.9c.57-.97,3.23-6.27,5.57-10.94,26.58-53,31.31-58.13,39.02-60.23,3.7-1.01,7.65-.41,10.83,1.66l288.5,188.72c19.52,12.77,34.43,30.96,43.12,52.61l12.18,30.35c2.51,6.25,1.21,13.18-3.38,18.1-4.26,4.56-10.44,6.42-16.42,5.02Zm-3.65-13.71s0,0,0,0h0Zm-341.4-124.35l334.96,108.32-5.74-14.31c-6.75-16.82-18.33-30.96-33.5-40.88l-279.34-182.73c-6.87,11.41-17.84,33.27-22.6,42.77-2,4-3.4,6.77-4.42,8.76l10.64,78.07Z"/>
    <path class="cls-12" d="m1319.46,2327.61c42.22,49.31,109.34,126.85,111.89,124.33l99.76-108.94,220.97-241.34c1.44-1.57-69.02-83.33-111.14-122.15-17.65-16.28-46.68,6.11-64.95,24.13l-134.99,132.39-115.53,113.29c-22.33,21.82-24.96,56.11-6,78.29Z"/>
    <g class="cls-2">
      <path class="cls-8" d="m1319.46,2327.61c42.22,49.31,109.34,126.85,111.89,124.33l99.76-108.94,77.18-152.26s-92.29,35.09-144.99-22.5c-9.6-10.49-16.88-21.36-22.29-32.22l-115.53,113.29c-22.33,21.82-24.96,56.11-6,78.29Z"/>
    </g>
    <path class="cls-8" d="m1428.24,2464.35c-6.95-1.63-20.65-14.37-118.36-128.52-23.26-27.17-20.29-69.14,6.75-95.54l250.49-245.66c45.73-45.13,71.24-34.66,82.36-24.4,25.95,23.93,59.55,61.08,72.79,75.95,10.91,12.24,21.09,24.01,28.69,33.14,12.62,15.17,18.39,22.1,10.52,30.82l-321.2,350.76-3.91,3.88-5.69-.16c-.81-.03-1.57-.06-2.43-.27Zm3.13-12.42h.05s-.05,0-.05,0Zm197.34-465.02c-8.87-2.08-25.3,7.4-43.87,25.72l-250.54,245.71c-17.57,17.16-19.86,43.96-5.23,61.05,64,74.78,90.39,103.76,101.25,114.97l305.53-333.66c-16.65-20.53-68.35-79.51-103.5-111.91-1.01-.93-2.23-1.55-3.65-1.89Z"/>
    <path class="cls-12" d="m1434.94,2453.48l247.43,98.34c40.49,9.57,70.92,10.65,102.96-21.23l16.33-16.24,163.54-162.66c11.04-10.96,19.35-23.4,24.78-36.05,12.8-30.01-3.04-55.78-27.96-80.98l-196.09-128.54c-31.35-20.56-72.69-16.98-100.06,8.64l-30.92,31.26-218.21,220.57c-26.83,27.09-17.24,72.82,18.2,86.89Z"/>
    <g class="cls-2">
      <path class="cls-8" d="m1434.94,2453.48l247.43,98.34c40.49,9.57,70.92,10.65,102.96-21.23l16.33-16.24c-58.46-6.38-146.33-31.1-191.06-118.2-42.73-83.09-9.07-183.53,24.36-250.14l-218.21,220.57c-26.83,27.09-17.24,72.82,18.2,86.89Z"/>
    </g>
    <path class="cls-8" d="m1680.39,2564.35l-.92-.22-1.76-.55-247.44-98.34c-20.6-8.19-35.6-26.03-40.14-47.72-4.54-21.69,2.06-44.05,17.65-59.81l249.14-251.83c32.06-30.04,79.59-34.16,115.94-10.33l197.21,129.27.94.95c23.1,23.38,47.46,55.28,30.59,94.83-6.17,14.47-15.67,28.32-27.47,40.05l-179.86,178.91c-38.42,38.22-77.3,33.36-113.87,24.8Zm56.56-457.16c-21.81-5.11-45.28.71-62.43,16.78l-248.79,251.5c-9.75,9.86-13.72,23.3-10.88,36.87,2.84,13.57,11.86,24.3,24.74,29.42l246.57,98c38.71,9.04,63.4,8.62,90.27-18.12l179.86-178.91c9.51-9.46,17.14-20.54,22.04-32.05,8.69-20.37,1.62-39.61-24.4-66.22l-194.96-127.8c-6.91-4.53-14.37-7.68-22.04-9.47Z"/>
    <path class="cls-10" d="m1665.61,2320.46c-5.43,6.35-56.62,51.37-56.62,51.37,0,0-13.35-11.41-29.74-25.42-20.48-17.5-15.01-57.5,12.2-89.34,27.22-31.84,65.88-43.46,86.35-25.95,13.82,11.81,29.74,25.42,29.74,25.42,0,0-33.09,53.57-41.94,63.92Z"/>
    <path class="cls-9" d="m1665.61,2320.46c-5.43,6.35-56.62,51.37-56.62,51.37,0,0-13.35-11.41-29.74-25.42-20.48-17.5-15.01-57.5,12.2-89.34,27.22-31.84,65.88-43.46,86.35-25.95,13.82,11.81,29.74,25.42,29.74,25.42,0,0-33.09,53.57-41.94,63.92Z"/>
    <g class="cls-2">
      <path class="cls-8" d="m1675.45,2322.76c-5.43,6.35-56.62,51.37-56.62,51.37,0,0-13.35-11.41-29.74-25.42-20.48-17.5-15.01-57.5,12.2-89.34,27.22-31.84,65.88-43.46,86.35-25.95,13.82,11.81,29.74,25.42,29.74,25.42,0,0-33.09,53.57-41.94,63.92Z"/>
    </g>
    <path class="cls-8" d="m1609.11,2388.55l-38.06-32.53c-26.17-22.38-21.42-69.44,10.81-107.15,14.72-17.22,33.07-29.78,51.67-35.37,20.56-6.18,39.21-3.33,52.49,8.02l37.96,32.45-5.69,9.21c-3.44,5.57-33.87,54.71-43.08,65.49h0c-5.58,6.53-45.71,41.95-57.88,52.65l-8.22,7.23Zm51.59-152.23c-7.25-1.7-15.04-.09-19.91,1.37-13.81,4.15-28.3,14.21-39.74,27.59-22.26,26.04-28.49,58.8-13.6,71.53l21.4,18.29c22.2-19.63,44.25-39.52,47.14-42.85,5.22-6.1,22.14-32.44,35.08-53.16l-21.49-18.37c-2.67-2.29-5.74-3.66-8.9-4.4Zm4.91,84.14h.05s-.05,0-.05,0Z"/>
    <g>
      <ellipse class="cls-9" cx="1668.41" cy="2322.62" rx="75.84" ry="48.78" transform="translate(-1181.16 2081.64) rotate(-49.48)"/>
      <path class="cls-8" d="m1630.53,2399.7c-7.24-1.7-13.89-4.94-19.61-9.83-26.17-22.38-21.42-69.44,10.81-107.15,14.72-17.22,33.07-29.78,51.67-35.37,20.56-6.18,39.21-3.34,52.49,8.02,26.17,22.37,21.42,69.44-10.81,107.15h0c-25.19,29.47-58.64,43.25-84.55,37.18Zm70.04-129.53c-7.25-1.7-15.05-.09-19.91,1.37-13.81,4.15-28.3,14.21-39.74,27.59-22.26,26.04-28.49,58.8-13.6,71.53,14.89,12.74,46.28,1.48,68.54-24.56h0c22.26-26.04,28.49-58.8,13.6-71.53-2.67-2.29-5.74-3.66-8.9-4.4Zm4.91,84.14h.05s-.05,0-.05,0Z"/>
    </g>
    <g class="cls-3">
      <path class="cls-12" d="m1709.48,2274.57c-2.67-2.29-5.74-3.66-8.9-4.4-7.25-1.7-15.04-.09-19.91,1.37-13.81,4.15-28.3,14.21-39.74,27.59-1.61,1.88-3.11,3.81-4.55,5.76,10.98-11.9,24.29-20.82,37.07-24.66,4.86-1.46,12.65-3.07,19.91-1.37,3.16.74,6.23,2.11,8.9,4.4,13.81,11.81,9.43,40.84-9.04,65.77.9-.97,1.81-1.92,2.67-2.93,22.26-26.04,28.49-58.8,13.6-71.53Z"/>
    </g>
    <g class="cls-2">
      <path class="cls-8" d="m1656.71,2352.74c-20.48-17.5-15.01-57.5,12.2-89.34.46-.54.94-1.02,1.41-1.54-13.54,5.51-27.32,15.42-38.99,29.07-27.22,31.84-32.68,71.84-12.2,89.34,20.13,17.21,57.82,6.22,84.94-24.41-18.04,7.34-35.67,6.88-47.36-3.12Z"/>
    </g>
    <g>
      <path class="cls-12" d="m1131.48,1640.42s84.93,251.03,320.96,414.89c36.84,25.57,49.26,75.07,25.9,112.74-12.32,19.88-32.9,33.25-67.22,25.15-143.21-33.78-420.3-381.74-398.69-488.41,20.19-99.67,119.04-64.37,119.04-64.37Z"/>
      <g class="cls-2">
        <path class="cls-8" d="m1012.43,1704.81c-21.61,106.68,255.48,454.61,398.68,488.41,34.34,8.09,54.9-5.27,67.23-25.14,12.05-19.46,14.59-42.05,9.1-62.91-.1.24-.23.43-.37.65-12.33,19.87-32.94,33.26-67.24,25.18-130.64-30.81-372.71-323.15-397.77-455.17-4.03,8.1-7.33,17.68-9.62,28.98Z"/>
      </g>
      <path class="cls-8" d="m1407.25,2210.47l-.18-.04c-82.61-19.49-194.08-127.96-270.85-222.97-76.95-95.24-154.43-220.43-141.11-286.17,6.91-34.1,22.84-58.42,47.36-72.26,42.01-23.72,92.82-6.02,94.96-5.26l8.06,2.88,2.74,8.1c.84,2.46,86.12,247.63,314.3,406.04,45.29,31.44,58.84,91.44,30.85,136.59-18.6,29.99-49.18,41.74-86.12,33.09Zm-289.31-555.47c-12.52-2.91-38-6.6-58.23,4.92-15.1,8.59-25.17,24.88-29.93,48.4-18.61,91.86,246,434.8,385.42,467.69l.15.03c22.5,5.27,37.3-.07,47.98-17.3,18.07-29.15,8.87-68.2-20.95-88.9-215.83-149.83-306.67-367.62-324.42-414.84Z"/>
    </g>
    <path class="cls-8" d="m1613.67,2533.46c-2.15-.5-4.21-1.56-5.94-3.18-5.26-4.93-5.52-13.19-.6-18.45l130.91-139.65c5.24-5.6,12.64-8.47,20.3-7.89l28.32,2.17,143.79-143.68c5.09-5.1,13.36-5.09,18.46,0,5.09,5.1,5.09,13.36,0,18.46l-144.09,143.97c-5.21,5.2-12.4,7.86-19.73,7.29l-28.29-2.17-130.61,139.33c-3.31,3.53-8.11,4.81-12.51,3.78Z"/>
  </g>
</svg>