<?xml version="1.0" encoding="UTF-8"?>
<svg id="Layer_1" data-name="Layer 1" xmlns="http://www.w3.org/2000/svg" viewBox="0 0 4000 4000">
  <defs>
    <style>
      .cls-1 {
        opacity: .15;
      }

      .cls-2 {
        opacity: .5;
      }

      .cls-3 {
        opacity: .7;
      }

      .cls-4 {
        opacity: 0;
      }

      .cls-4, .cls-5, .cls-6, .cls-7, .cls-8, .cls-9, .cls-10, .cls-11 {
        stroke-width: 0px;
      }

      .cls-4, .cls-10 {
        fill: #fff;
      }

      .cls-5 {
        fill: #343a49;
      }

      .cls-6 {
        fill: #3ba1da;
        animation: fade .5s ease-in-out alternate infinite;
      }

      .cls-7 {
        fill: #3870b6;
        animation: fade .5s ease-in-out alternate infinite;
      }

      .cls-8 {
        fill: #21242e;
      }

      .cls-9 {
        fill: #d7d8d8;
      }

      .cls-11 {
        fill: #e8e8e8;
      }

      @keyframes fade {
        to {fill: #343a49;}
      }
    </style>
  </defs>
  <rect class="cls-4" width="4000" height="4000"/>
  <g>
    <path class="cls-10" d="m2074.44,1834.67l-35.88,89.54-18.3,45.61-315.29,786.48s54.85,18.46,130.38,37.29c14.78,3.68,30.35,7.39,46.45,10.97,119.96,26.75,269.58,46.78,342.5,4.02,108.99-63.97,262.22-497.35,245.91-693.81-7.45-90.06-163.41-178.06-277.3-230.71-12.72-5.91-24.94-11.35-36.35-16.29-48.1-20.91-82.11-33.1-82.11-33.1"/>
    <g class="cls-1">
      <path class="cls-5" d="m2038.55,1924.21l-18.3,45.6-250.34,624.48-64.95,162.01s1.15.39,3.33,1.1c.62.19,1.36.43,2.14.7.62.19,1.32.42,2.02.64.53.19,1.07.35,1.59.54.21.05.45.16.66.21.99.32,2.1.68,3.27,1.02.24.11.49.18.78.26.95.3,1.94.61,3.02.95,1.44.47,2.94.92,4.51,1.4,1.13.33,2.32.73,3.52,1.09,1.24.38,2.49.76,3.78,1.16,1.62.5,3.32,1,5.06,1.56,3.54,1.05,7.28,2.19,11.24,3.34,3.48,1.07,7.16,2.14,11.01,3.24,4.43,1.27,9.06,2.63,13.88,3.98,17.81,5.02,38.27,10.55,60.56,16.1,4.34,1.08,8.76,2.16,13.22,3.26,3.11.75,6.31,1.51,9.51,2.26,7.73,1.83,15.68,3.67,23.71,5.45,120,26.78,269.59,46.78,342.46,3.99,89.77-52.65,209.55-355.79,239.9-570.93-50.68,179.31-135.32,361.21-202.98,400.89-33.46,19.63-33.08-106.14-12.06-162,54.22-144.05,32.23-344.56-63.55-501.99-2.48-4.09-84.25-21.05-147.02-50.31"/>
    </g>
    <path class="cls-5" d="m2099.58,2854.95c-167.59,0-389.37-73.77-401.62-77.89l-21.97-7.39,385.97-962.71,19.86,7.11c3.98,1.43,98.64,35.53,196.42,87.89,136.31,73,208.26,143.99,213.82,210.98,7.79,93.86-21.77,249.33-77.16,405.73-21.34,60.25-97.34,260.58-179.53,308.81-33.89,19.89-82.07,27.48-135.79,27.48Zm-365.59-112.25c119.35,37.5,383.96,102.89,479.2,46.99,101.17-59.37,250.64-487.15,235.2-673.13-8.24-99.23-247.52-210.42-361.57-253.93l-352.83,880.07Z"/>
    <path class="cls-10" d="m2429.48,2492.72c-17.6-27.29-173.15-77.59-173.15-77.59-17.66-4.13-35.86,4.17-44.3,20.22-30.86,58.76-95.02,198.03-49.54,264.99,37.76,55.61,113.99,61.27,164.36,37.2,39.3-18.79,63.24-69.94,81.94-122.76,20.27-57.22,34.42-100.77,20.69-122.07"/>
    <path class="cls-10" d="m2408.8,2614.82c-9.61,27.24-20.7,54.02-34.55,76.13-12.94,20.81-28.37,37.5-47.4,46.6-50.36,24.08-126.59,18.42-164.35-37.2-35.67-52.52-3.88-149.62,26.37-217.33.04-.05.04-.1.04-.1,8.29-18.57,16.5-34.94,23.11-47.57,8.43-16.05,26.65-24.37,44.3-20.21,0,0,155.57,50.28,173.17,77.6,13.69,21.27-.43,64.85-20.7,122.08"/>
    <g class="cls-1">
      <path class="cls-5" d="m2374.26,2690.94c-12.94,20.81-28.37,37.51-47.4,46.6-50.36,24.08-126.6,18.42-164.35-37.2-35.67-52.52-3.88-149.62,26.37-217.33-.6,3-16.32,78.39,9.03,80.33,19.94,1.56,42.93-32.55,44.31-34.55-1.08,4.89-33.26,153.48,47.4,170.83,36.26,7.83,63.97,2.06,84.64-8.67"/>
    </g>
    <path class="cls-5" d="m2265.64,2772.84c-45.9,0-92.9-18.42-121.26-60.19-50.4-74.21,8.61-211.97,48.27-287.48,13.07-24.87,41.31-37.75,68.68-31.36l1.75.49c49,15.84,165.11,56,184.82,86.56h0c19.01,29.49,5.71,73.04-18.45,141.25-19.12,53.97-45.13,112.25-93.14,135.2-21.11,10.09-45.72,15.53-70.66,15.53Zm-18.38-336.86c-6.54,0-12.7,3.59-15.83,9.56-58.84,112.04-77.84,202.7-50.81,242.5,30.53,44.96,93.52,50.42,136.79,29.75,33.8-16.16,55.56-67.44,70.74-110.31,11.78-33.26,31.46-88.82,23.05-102.7-11.18-13.47-91.67-46.13-160.57-68.48-1.12-.21-2.25-.32-3.37-.32Zm164.04,68.92h.05-.05Z"/>
    <path class="cls-5" d="m2269.47,2766.31c-8.61-1.24-16.04-4.32-22.56-8.28-6.55-3.93-12.2-8.8-17.03-14.16-9.71-10.73-16.19-23.31-20.34-36.07-8.27-25.72-8.05-51.9-4.69-76.62,3.35-24.85,10.54-48.57,18.53-71.47,4.08-11.49,8.52-22.88,13.55-34.05,2.56-5.57,5.19-11.12,8.15-16.54,3.02-5.5,5.89-10.63,10.07-16.11,1.55-2.03,4.45-2.42,6.47-.88,1.92,1.46,2.38,4.15,1.1,6.15l-.26.39c-2.77,4.34-5.48,9.9-7.81,15.15-2.4,5.34-4.49,10.86-6.53,16.39-4,11.11-7.42,22.46-10.51,33.91-6.03,23.04-11.19,46.05-12.55,69.12-1.48,22.91.46,46.07,8.56,65.78,3.99,9.81,9.62,18.61,16.63,25.22,3.47,3.32,7.3,6.07,11.24,8.01,3.9,2.01,7.98,3.12,11.33,3.29,8.54.44,15.11,7.73,14.66,16.27-.44,8.55-7.72,15.12-16.27,14.67-.46-.02-.92-.07-1.38-.13l-.36-.05Z"/>
    <path class="cls-5" d="m2239.28,2011.21c20.29,4.1,40.24,8.67,60.25,13.55,19.98,4.9,39.9,10.13,59.73,15.95,19.82,5.82,39.61,11.98,59.22,19.26,19.62,7.31,39.14,15.18,58.39,25.73,8.49,4.65,11.6,15.31,6.95,23.8-4.65,8.49-15.31,11.6-23.8,6.95-.35-.19-.69-.39-1.02-.6l-.15-.1c-15.93-10.25-33.82-19.05-51.96-27.25-18.18-8.23-36.99-15.55-55.93-22.57-18.94-7.02-38.16-13.52-57.48-19.7-19.31-6.15-38.84-12.08-58.29-17.43l-.1-.03c-4.81-1.33-7.64-6.3-6.32-11.11,1.27-4.6,5.89-7.38,10.5-6.46"/>
    <path class="cls-10" d="m1768.72,1708.29c-213.72,0-423.97,137.49-684.2,87.5-77.5-15.19-166.45-32.47-255.59-7.22-90.55,25.65-215.91,131.92-134.5,270.54,40.05,68.18,148.15,42.07,187.06,32.98,143.26,74.46,412.25,149.44,655.11-36.07"/>
    <path class="cls-10" d="m1768.71,1708.28l-165.83,248.48-66.27,99.26c-242.88,185.54-511.86,110.55-655.09,36.09-38.94,9.07-147.04,35.17-187.08-32.98-13.89-23.61-21.73-46.25-24.79-67.76-14.98-104.73,84.14-181.52,159.31-202.8,89.14-25.23,178.05-7.97,255.58,7.22,260.22,49.98,470.47-87.51,684.18-87.51"/>
    <path class="cls-10" d="m1768.71,1708.28l-97.72,146.43c-31.67-37.1-59.31-77.75-82.26-121.2,60.49-14.45,120.1-25.23,179.98-25.23"/>
    <path class="cls-11" d="m1768.71,1708.28l-97.72,146.43c-31.67-37.1-59.31-77.75-82.26-121.2,60.49-14.45,120.1-25.23,179.98-25.23"/>
    <path class="cls-9" d="m2614.86,1931.71c-115.15,97.72-263.77,157.25-426.27,158.91l10.03-273.58s159.88,101.97,416.24,114.67"/>
    <path class="cls-9" d="m2323.19,2075.64c-45.69,9.86-93.08,15.02-141.7,15.02-235.13,0-441.91-121.02-561.58-304.21,117.3-57.9,454.61-213.09,596.31-158.64,264.47,101.58,160.84,349.84,106.96,447.83"/>
    <g class="cls-1">
      <path class="cls-5" d="m1602.87,1956.76l-66.27,99.25c-242.88,185.55-511.86,110.55-655.09,36.09-38.94,9.07-147.04,35.18-187.08-32.98-13.89-23.61-21.73-46.25-24.79-67.76,15.37,25.89,43.01,54.8,90.76,59.27,99.3,9.24,114.85-79.24,114.85-119.45,7.67,83.88,104.16,146.43,215.2,150.37,252.25,8.94,402.01-231.14,474.37-231.14,23.17,0,34.03,45.07,38.06,106.35"/>
    </g>
    <path class="cls-5" d="m1197.26,2193.99c-8.79,0-17.61-.19-26.49-.56-128.53-5.41-235.68-49.71-292.13-78.19-48.39,11.14-157.5,32.59-203.1-45.03-32.04-54.55-37.9-110.97-16.94-163.16,29.11-72.48,103.52-122.3,164.35-139.54,94.53-26.78,189.49-8.15,265.78,6.8,149.05,28.64,282.11-6.55,410.79-40.56,92.11-24.35,179.12-47.35,269.2-47.35,12.09,0,21.9,9.81,21.9,21.9s-9.8,21.9-21.9,21.9c-84.39,0-168.73,22.29-258.01,45.89-133.43,35.27-271.41,71.74-430.33,41.22-75.53-14.81-161.04-31.57-245.5-7.65-48.89,13.85-112.2,55.34-135.63,113.72-15.94,39.69-11.21,81.64,14.05,124.66,31.46,53.55,126.26,31.39,161.94,23.04l1.25-.29c5.1-1.19,10.44-.52,15.09,1.89,81.96,42.6,369.76,166.06,631.71-34.04,9.61-7.33,23.35-5.5,30.7,4.11,7.34,9.61,5.5,23.35-4.11,30.7-104.81,80.06-223.34,120.55-352.63,120.56Z"/>
    <path class="cls-10" d="m1290.64,2251.33s-312.89,143.9-369.93,361.22c-47.47,180.89,137.01,397.32,137.01,397.32,0,0-69.31,35.17-89.41,88.12-19.82,52.2-8.5,111.31,61.06,125.22,122.66,24.53,369.03-81.12,385.71-170.83,11.06-59.49-76.53-211.02-65.7-234.21,10.08-21.61,187.21-105.08,187.21-105.08"/>
    <path class="cls-10" d="m1415.1,3052.36c-16.69,89.71-263.07,195.36-385.72,170.83-47.04-9.37-67.45-39.51-69.6-74.16-1.01-16.56,2.15-34.16,8.54-51.07,20.1-52.91,89.4-88.08,89.4-88.08,0,0-184.49-216.42-137.01-397.32,57.03-217.34,369.95-361.23,369.95-361.23l38.85,72.93,207.09,388.82s-177.13,83.49-187.21,105.08c-10.82,23.21,76.74,174.72,65.7,234.21"/>
    <g class="cls-1">
      <path class="cls-5" d="m1415.1,3052.36c-16.69,89.71-263.07,195.36-385.72,170.83-47.04-9.37-67.45-39.51-69.6-74.16,25.54,19.75,81.56,42.75,194.3,14.41,170.04-42.79,226.5-109.5,203.81-205.38-22.69-95.84-232.15-400.78-161.89-610.11,18.57-55.32,73.37-50.42,133.51-23.7l207.09,388.82s-177.13,83.49-187.21,105.08c-10.82,23.21,76.74,174.72,65.7,234.21"/>
    </g>
    <path class="cls-5" d="m1069.17,3248.67c-15.63,0-30.44-1.27-44.08-4-43.62-8.72-64.77-32.23-74.83-50.42-15.8-28.55-16.67-66.47-2.41-104.05,15.1-39.8,52.59-69.95,77.15-86.26-45.4-59.43-167.15-238.13-125.46-396.97,58.98-224.75,368.8-369.5,381.96-375.56,10.98-5.05,23.98-.25,29.04,10.74,5.05,10.98.25,23.99-10.74,29.05-3.03,1.4-304.18,142.22-357.9,346.88-43.98,167.59,130.73,375.48,132.5,377.56,4.35,5.11,6.11,11.93,4.79,18.51-1.32,6.58-5.58,12.19-11.56,15.22-.59.3-62.06,32.13-78.84,76.35-9.68,25.51-9.76,50.04-.21,67.3,8.11,14.67,23.28,24.31,45.09,28.67,72.79,14.55,208.54-23.34,296.39-82.77,36.61-24.77,59.76-50.5,63.49-70.59,5.12-27.56-20.59-91.42-39.37-138.05-23.71-58.89-33-83.51-24.65-101.41,3.33-7.12,13.43-28.79,197.72-115.63,10.95-5.15,23.99-.46,29.15,10.48,5.16,10.94.47,23.99-10.47,29.15-72.26,34.06-156.13,77.94-175.22,94.07,2.24,12.68,14.73,43.71,24.11,67,23.09,57.33,49.25,122.32,41.8,162.42-7.63,41.02-48.81,76.4-82.02,98.86-72.88,49.3-193.27,93.43-285.44,93.43Z"/>
    <path class="cls-10" d="m1612.2,2751.7s46.38,309.19,364.13,514.74c0,0-10.03,210.05,123.94,211.35,131.37,1.28,247.75-76.08,176.74-347.54-17.21-65.81-180.94-329.08-143.84-580.03"/>
    <g class="cls-1">
      <path class="cls-5" d="m2100.28,3477.76c-72.97-.7-103.24-63.29-115.64-120.19,17.35,29.87,59.31,79.72,142.62,70.73,94.83-10.29,160.84-82.52,163.29-236.44,38.68,221.73-69.46,287.12-190.27,285.89"/>
    </g>
    <g class="cls-1">
      <path class="cls-5" d="m2130.33,2682.07c-97.02,182-348.87,214.15-476.6,203.46-33.29-78.89-41.52-133.81-41.52-133.81l520.97-201.49c-6.48,43.94-6.83,88.26-2.85,131.84"/>
    </g>
    <path class="cls-5" d="m2103.47,3499.7c-1.14,0-2.27,0-3.41-.02-35.8-.35-66.01-13.29-89.77-38.45-50.67-53.67-55.9-148.66-56.04-183.09-161.86-107.78-251.68-241.94-298.75-336.39-52.26-104.88-64.47-183.51-64.97-186.8-1.79-11.96,6.45-23.11,18.41-24.91,11.89-1.79,23.1,6.44,24.9,18.39.56,3.61,49.59,302.45,354.38,499.62,6.55,4.24,10.35,11.64,9.98,19.43-.05,1.1-4.58,112.39,43.99,163.74,15.48,16.37,34.55,24.44,58.3,24.67,44.38.5,104.87-8.9,141.47-55.83,41.24-52.88,45.9-141.79,13.87-264.27-3.4-12.98-14.54-37.46-28.64-68.44-50.81-111.63-145.38-319.42-115.68-520.33,1.77-11.97,12.92-20.24,24.87-18.46,11.96,1.77,20.23,12.9,18.46,24.87-27.81,188.12,63.28,388.26,112.21,495.78,15.56,34.18,26.8,58.88,31.15,75.5,35.67,136.38,28.37,238.09-21.7,302.29-37.13,47.6-96.91,72.71-173.03,72.71Z"/>
    <path class="cls-10" d="m1578.86,1807.24c-146.58,129.2-471.67,404.92-366.3,726.48,51.03,155.75,181.04,249.87,315.76,288.92,176.67,51.21,382.61,4.25,507.47-92.59,158.46-122.9,165.42-408.13,262.77-613.74,0,0,250.71-360.54-82.34-488.51-172.9-66.43-637.35,179.44-637.35,179.44"/>
    <path class="cls-10" d="m1578.86,1807.24c-146.58,129.2-471.67,404.92-366.3,726.48,51.03,155.75,181.04,249.87,315.76,288.92,176.67,51.21,382.61,4.25,507.47-92.59,158.46-122.9,165.42-408.13,262.77-613.74,0,0,250.71-360.54-82.34-488.51-172.9-66.43-637.35,179.44-637.35,179.44"/>
    <g class="cls-1">
      <path class="cls-5" d="m2323.19,2075.64c-45.69,9.86-93.08,15.02-141.7,15.02-235.13,0-441.91-121.02-561.58-304.21,117.3-57.9,454.61-213.09,596.31-158.64,264.47,101.58,160.84,349.84,106.96,447.83"/>
    </g>
    <g class="cls-1">
      <path class="cls-5" d="m2298.57,2116.33c-97.37,205.6-104.33,490.84-262.81,613.7-124.83,96.85-330.79,143.8-507.44,92.6-134.73-39.03-264.74-133.16-315.76-288.91-21.81-66.53-25.19-131.14-15.5-192.86,3.37,20.98,8.49,42.14,15.5,63.56,51.03,155.76,181.03,249.88,315.76,288.91,176.65,51.25,382.61,4.25,507.44-92.55,158.48-122.91,165.44-408.14,262.81-613.75,0,0,61.72-88.74,83.22-193.78,37.71,149.15-83.22,323.08-83.22,323.08"/>
    </g>
    <path class="cls-11" d="m1231.9,2331.99l2.01,23.2c2.11,24.29,17.04,45.6,39.16,55.87l395.76,183.72c34.74,16.13,76.02,6.2,99.62-23.97l58.64-74.97s120.59,77.3,287.54,83.1l32.09-60.68-724.67-269.19"/>
    <path class="cls-5" d="m2084.82,2667.33c24.78-41.97,43.55-86.49,59.67-132.47,8.2-22.93,15.54-46.26,22.91-69.68,7.35-23.42,14.45-47.06,21.35-70.82,13.69-47.57,26.3-95.77,40.95-143.7,14.68-47.91,31.2-95.73,53-141.84,4.13-8.75,14.58-12.48,23.33-8.35,8.75,4.13,12.48,14.58,8.35,23.33v.02c-20.71,43.75-36.78,90.07-51.17,137.09-14.37,47.07-27.12,94.94-40.18,143.03-12.89,48.12-26.55,96.53-45.89,143.41-9.64,23.41-20.61,46.45-33.44,68.53-2.97,5.61-6.49,10.99-10.07,16.31l-10.67,15.92c-1.72,2.68-3.73,5.19-5.77,7.67l-6.08,7.46c-4.06,4.95-8.18,9.84-12.32,14.65-3.15,3.67-8.69,4.1-12.37.94-3.28-2.82-3.96-7.52-1.84-11.11l.23-.38Z"/>
    <path class="cls-5" d="m1261.04,2617.73c12.84,17.16,26.34,33.57,40.93,48.92,14.78,15.16,30.2,29.58,46.66,42.73,16.61,12.96,33.64,25.31,51.65,36.18,17.98,10.9,36.57,20.72,55.59,29.68,38.21,17.48,77.95,32.03,119.09,41.48,41.16,9.68,83.52,14.94,126.6,17.79h.03c4.85.32,8.52,4.52,8.2,9.37-.28,4.26-3.56,7.61-7.63,8.14-44.06,5.8-89.25,4.76-133.67-2.44-11.09-1.91-22.18-3.95-33.14-6.65-11-2.62-21.77-5.87-32.61-8.99-10.71-3.51-21.39-7.16-31.85-11.39-10.6-3.89-20.81-8.76-31.03-13.53-20.37-9.79-39.84-21.36-58.67-33.83l-13.85-9.77c-4.61-3.26-8.96-6.89-13.45-10.32l-6.67-5.21-6.43-5.51c-4.22-3.75-8.59-7.32-12.67-11.23-16.63-15.27-31.77-32.09-45.71-49.71l-10.03-13.55c-3.39-4.47-6.19-9.38-9.3-14.03-6.3-9.26-11.52-19.22-16.93-28.94-2.36-4.23-.84-9.57,3.39-11.92,3.88-2.16,8.69-1.06,11.28,2.4l.24.32Z"/>
    <path class="cls-5" d="m1584.65,1813.81c-19.22,20.88-39.21,40.76-59.1,60.58l-29.76,29.71c-9.96,9.83-19.84,19.72-29.6,29.71-19.68,19.82-38.85,40.05-57.34,60.82-18.61,20.66-36.66,41.76-53.75,63.53-17.38,21.55-33.77,43.82-49.08,66.73-15.44,22.82-29.7,46.39-42.36,70.73l-4.84,9.08-4.51,9.23c-3.05,6.14-6.04,12.31-8.75,18.6-5.9,12.38-10.94,25.12-16,37.85-9.87,25.59-18.08,51.82-24.89,78.76l-.02.06c-1.19,4.72-5.98,7.57-10.69,6.38-4.1-1.03-6.8-4.8-6.64-8.87,1.1-28.91,6.22-57.69,14.06-85.63,1.7-7.08,4.16-13.9,6.37-20.82,2.13-6.95,4.77-13.7,7.29-20.5,2.48-6.83,5.37-13.47,8.27-20.11l4.31-9.99,4.67-9.8c12.62-26.07,26.89-51.24,42.36-75.58,15.59-24.26,32.51-47.56,50.25-70.13,18.01-22.36,36.78-44.01,56.28-64.91,19.62-20.8,39.83-40.93,60.47-60.55,10.37-9.76,20.9-19.32,31.52-28.76,10.75-9.29,21.44-18.64,32.47-27.57,21.91-18.04,44.34-35.32,67.44-51.71,3.96-2.82,9.46-1.9,12.28,2.07,2.45,3.45,2.06,8.07-.7,11.07"/>
    <path class="cls-10" d="m2198.62,1817.02s327.76,209.04,797.19,65.86c99.77-30.43,307.62,183.72,174.79,298.52-393.31,339.94-989.12,101.87-989.12,101.87"/>
    <path class="cls-10" d="m2198.62,1817.02s327.76,209.04,797.19,65.86c99.77-30.43,307.62,183.72,174.79,298.52-393.31,339.94-989.12,101.87-989.12,101.87l17.15-466.25Z"/>
    <path class="cls-10" d="m3170.61,2181.42c-369.95,319.71-918.95,128.12-982.94,104.2-4.08-1.53-6.18-2.37-6.18-2.37l17.13-466.22s327.76,209.02,797.19,65.83c47.78-14.54,120.41,26.98,168.46,86.86,52.25,65.13,75.56,151.91,6.35,211.69"/>
    <g class="cls-1">
      <path class="cls-5" d="m3170.61,2181.42c-369.95,319.71-918.95,128.12-982.94,104.2,20.71-34.56,64.83-68.9,158.08-70.17,189.35-2.5,646.72,126.14,596.09-186.95l222.42-58.78c52.25,65.13,75.56,151.91,6.35,211.69"/>
    </g>
    <g class="cls-1">
      <path class="cls-5" d="m2614.86,1931.71c-115.15,97.72-263.77,157.25-426.27,158.91l10.03-273.58s159.88,101.97,416.24,114.67"/>
    </g>
    <path class="cls-5" d="m2208.04,1802.25c4.27,2.67,9.61,5.66,14.55,8.41,5.07,2.77,10.21,5.47,15.4,8.11,10.4,5.24,20.93,10.3,31.64,15.04,21.38,9.55,43.24,18.16,65.38,26,22.16,7.83,44.68,14.61,67.35,20.87,11.4,2.9,22.74,6.04,34.24,8.53,5.73,1.29,11.45,2.69,17.21,3.89l17.31,3.47c92.37,18.21,187.32,22.83,281.22,15.39,46.97-3.66,93.7-10.66,139.8-20.55,11.59-2.19,23.02-5.08,34.48-7.9,11.46-2.79,22.94-5.49,34.24-8.9l17.02-4.84,8.51-2.42,4.26-1.21,5.52-1.28c14.81-3.36,29.56-2.82,42.95-.06,26.91,5.62,50.42,17.52,71.56,31.81,21.2,14.32,40.28,31.21,57.06,50.21,16.74,19.01,31.67,39.85,42.96,63.11,2.69,5.89,5.6,11.65,7.77,17.84,1.14,3.06,2.37,6.07,3.42,9.17l2.82,9.46,1.37,4.74,1.03,4.88,2.02,9.77,1.17,10.01.56,5.01.1,5.09.13,10.19-.92,10.25c-.18,1.7-.3,3.41-.53,5.12l-1.04,5.08c-.72,3.37-1.37,6.78-2.2,10.12l-3.31,9.86c-.58,1.63-1.08,3.3-1.74,4.9l-2.23,4.69-4.54,9.33-5.55,8.69-2.8,4.32c-.95,1.43-2.12,2.67-3.17,4.01l-6.5,7.86c-4.48,5.08-9.54,9.46-14.33,14.18l-28.65,23.14c-9.34,7.98-19.62,14.71-29.63,21.8-10.08,7-19.93,14.34-30.61,20.42-10.52,6.3-20.91,12.85-31.55,18.94l-32.61,17.02c-44.06,21.53-90.04,38.93-137.11,52.23-47.11,13.21-95.3,21.95-143.72,27.53-96.88,11.29-195,8.48-290.89-6.08-48-7.1-95.45-17.31-142.12-30.12-46.74-12.79-92.45-28.23-137.1-48-4.42-1.96-6.42-7.14-4.46-11.56,1.82-4.1,6.42-6.12,10.61-4.82l.36.11c22.36,6.93,45.39,13.48,68.37,19.18,22.99,5.87,46.08,11.36,69.28,16.23,46.36,9.93,93.03,18.03,139.92,24,93.72,11.86,188.56,15.63,282.12,5.7,46.69-5.16,93.13-13.17,138.24-25.94,45.09-12.75,88.97-29.38,130.97-49.88l31.06-16.21c10.12-5.8,20-12.05,30.02-18.03,10.18-5.76,19.53-12.78,29.12-19.42,9.52-6.75,19.32-13.13,28.19-20.75l27.24-21.98c3.67-3.75,7.77-7.18,11.18-11.09l4.94-5.98c.79-1.01,1.73-1.94,2.42-3.01l2.04-3.23,4.16-6.41,3.27-6.83,1.66-3.4c.49-1.16.81-2.39,1.24-3.57l2.44-7.15c.59-2.45,1.03-4.95,1.58-7.42l.8-3.71c.16-1.26.23-2.54.35-3.81l.72-7.63-.13-7.76-.05-3.89-.46-3.91-.88-7.83-1.64-7.81-.8-3.91-1.14-3.87-2.29-7.76c-.87-2.57-1.92-5.09-2.87-7.65-1.76-5.14-4.3-10.07-6.56-15.07-9.61-19.87-22.81-38.36-37.67-55.23-14.9-16.89-31.98-31.98-50.47-44.45-18.37-12.54-38.64-22.32-58.7-26.47-10.01-2.12-19.78-2.12-28.29-.21l-3.24.67-4.38,1.25-8.76,2.5-17.52,4.98c-11.63,3.5-23.46,6.29-35.27,9.17-11.8,2.9-23.58,5.87-35.52,8.14-47.53,10.19-95.74,17.41-144.25,21.19-96.98,7.7-195.15,2.93-290.74-15.91l-17.91-3.6c-5.96-1.25-11.87-2.69-17.81-4.03-11.91-2.58-23.65-5.82-35.46-8.83-23.49-6.49-46.83-13.52-69.83-21.65-23-8.14-45.72-17.09-68.07-27.06-11.19-4.96-22.24-10.26-33.22-15.8-5.48-2.79-10.94-5.65-16.37-8.62-5.52-3.08-10.65-5.9-16.53-9.58-8.2-5.13-10.7-15.94-5.57-24.14,5.13-8.2,15.94-10.7,24.14-5.57h.01s.25.17.25.17Z"/>
    <path class="cls-10" d="m2880.7,1591.49c-52.73,108.46-133.21,204.28-237.48,276.22-21.27,14.66-43.44,28.33-66.59,40.89-11.24,6.14-22.8,12-34.56,17.68-35.51,16.93-71.72,30.76-108.37,41.57-31.57,9.4-63.49,16.51-95.45,21.51-38.59,6.06-77.33,8.92-115.83,8.8-14.05-.08-28.05-.54-42-1.36-255.41-15.52-495.57-162.88-615.67-406.22-176.99-358.44-26.32-789.27,336.41-962.33,69.89-33.28,142.59-54.71,215.63-64.78,8.52-1.26,17.12-2.28,25.73-3.11,23-2.4,46-3.7,68.91-3.92,53.01-.48,105.68,4.8,157,15.45,51.32,10.59,101.41,26.61,149.23,47.69,15.21,6.69,30.2,13.88,44.96,21.62,22.12,11.61,43.67,24.27,64.61,38.16,104.42,68.88,192.32,165.16,251.25,284.58,101.83,206.18,95.19,436.28,2.22,627.54"/>
    <path class="cls-5" d="m2224.67,2000.37c-.75,0-1.5,0-2.25,0-13.87-.08-28.04-.54-42.12-1.36-264.81-16.09-501.43-172.21-617.52-407.44-85.52-173.19-97.93-368.68-34.97-550.45,63.47-183.22,195.73-330.55,372.4-414.84,68.94-32.83,141.71-54.69,216.28-64.97,8.11-1.2,16.8-2.25,25.82-3.12,22.92-2.39,46.18-3.71,69.11-3.93,52.62-.46,105.62,4.73,157.47,15.49,51.36,10.6,101.72,26.7,149.67,47.83,15.45,6.8,30.63,14.09,45.1,21.68,22.62,11.88,44.42,24.75,64.8,38.28,107.81,71.11,194.95,169.82,252.01,285.44,98.72,199.89,99.53,429.32,2.22,629.48h0c-53.95,110.96-136.32,206.77-238.21,277.07-21.56,14.87-44.03,28.67-66.79,41.01-10.42,5.7-21.76,11.5-34.64,17.73-35.14,16.75-71.7,30.78-108.71,41.7-31,9.23-63.21,16.48-95.73,21.57-37.35,5.86-75.67,8.84-113.94,8.84Zm-6.58-1441.75c-2.21,0-4.41,0-6.63.03-22.79.21-45.91,1.53-68.71,3.9-8.96.87-17.58,1.92-25.63,3.1-74.15,10.22-146.48,31.95-215.01,64.59-175.6,83.78-307.05,230.21-370.13,412.31-62.58,180.65-50.24,374.93,34.76,547.06,115.4,233.82,350.6,389,613.83,405,14,.82,28.1,1.27,41.88,1.35,38.76.03,77.63-2.84,115.48-8.78,32.33-5.06,64.35-12.27,95.16-21.44,36.79-10.86,73.14-24.8,108.05-41.45,12.81-6.2,24.08-11.97,34.45-17.63,22.62-12.27,44.95-25.99,66.39-40.77,101.26-69.86,183.13-165.08,236.75-275.37l1.98.96-1.98-.96c96.7-198.92,95.9-426.95-2.21-625.6-56.71-114.92-143.33-213.03-250.49-283.72-20.25-13.45-41.92-26.25-64.41-38.06-14.38-7.54-29.46-14.79-44.83-21.55-47.67-21.01-97.72-37.01-148.78-47.55-49.37-10.24-99.77-15.43-149.91-15.43Z"/>
    <g class="cls-1">
      <path class="cls-5" d="m1564.76,1590.56c120.07,243.37,360.28,390.74,615.69,406.22,13.96.84,27.95,1.29,41.97,1.37,38.52.13,77.25-2.76,115.84-8.79,31.96-5.02,63.89-12.12,95.44-21.51,36.67-10.81,72.87-24.63,108.4-41.57,11.73-5.72,23.29-11.55,34.55-17.67,23.15-12.58,45.3-26.28,66.58-40.93,104.27-71.94,184.77-167.72,237.49-276.22,28.98-59.58,49.58-122.98,61.12-188.22-52.72,102.37-130.55,192.7-230.02,261.33-21.25,14.7-43.43,28.35-66.58,40.92-11.22,6.14-22.78,11.97-34.55,17.67-35.54,16.94-71.73,30.76-108.36,41.59-31.59,9.37-63.48,16.48-95.44,21.51-38.58,6.03-77.36,8.9-115.83,8.79-14.07-.09-28.06-.55-42.01-1.38-255.4-15.49-495.56-162.84-615.69-406.23-70.11-141.96-88.75-295.27-63.24-439.4-100.12,194.15-109.83,430.96-5.34,642.51"/>
    </g>
    <path class="cls-5" d="m2224.67,2015.14c-.77,0-1.53,0-2.29,0-14.16-.08-28.59-.55-42.93-1.39-270.12-16.41-511.47-175.68-629.91-415.65-87.28-176.76-99.95-376.29-35.68-561.83,64.78-186.98,199.73-337.33,380-423.34,70.32-33.49,144.55-55.78,220.62-66.27,8.2-1.21,17.14-2.29,26.4-3.2,23.28-2.42,47.01-3.77,70.4-3.99,53.74-.46,107.73,4.82,160.61,15.8,52.36,10.81,103.72,27.22,152.62,48.78,15.75,6.93,31.23,14.37,46,22.11,23.08,12.11,45.32,25.25,66.11,39.06,109.96,72.53,198.87,173.24,257.08,291.21,100.75,204.01,101.58,438.18,2.26,642.48h0c-55.06,113.25-139.13,211.03-243.11,282.77-22,15.17-44.92,29.24-68.13,41.84-10.6,5.79-22.15,11.7-35.26,18.04-35.91,17.12-73.21,31.43-110.96,42.57-31.59,9.4-64.45,16.81-97.63,22-38.09,5.98-77.19,9.01-116.22,9.01Zm-6.58-1441.75c-2.16,0-4.33,0-6.49.03-22.33.21-44.98,1.5-67.31,3.82-8.82.86-17.2,1.87-25.01,3.02-72.77,10.03-143.65,31.33-210.81,63.31-172,82.06-300.75,225.47-362.52,403.81-61.28,176.88-49.19,367.13,34.04,535.68,113.06,229.08,343.54,381.12,601.48,396.79,13.71.8,27.54,1.25,41.07,1.33,37.9.17,76.02-2.78,113.1-8.6,31.69-4.96,63.06-12.02,93.24-21.01,36.07-10.65,71.69-24.31,105.91-40.62,12.51-6.05,23.57-11.71,33.72-17.26,22.2-12.05,44.08-25.48,65.09-39.97,99.17-68.42,179.34-161.66,231.85-269.66,94.69-194.79,93.9-418.07-2.17-612.6-55.56-112.58-140.41-208.68-245.38-277.93-19.87-13.2-41.11-25.74-63.15-37.3-14.08-7.38-28.85-14.48-43.91-21.11-46.72-20.6-95.79-36.28-145.83-46.61-48.39-10.04-97.78-15.13-146.92-15.13Zm662.62,1018.1h.05-.05Z"/>
    <path class="cls-5" d="m2224.67,2020.07c-.77,0-1.54,0-2.31,0-14.26-.08-28.78-.55-43.21-1.4-271.89-16.52-514.82-176.84-634.03-418.39-87.87-177.95-100.62-378.83-35.92-565.62,65.21-188.24,201.06-339.59,382.53-426.17,70.78-33.71,145.49-56.15,222.07-66.71,8.24-1.22,17.26-2.31,26.6-3.22,23.4-2.44,47.28-3.79,70.83-4.02,54.12-.52,108.44,4.86,161.66,15.9,52.7,10.88,104.39,27.4,153.61,49.1,15.85,6.97,31.43,14.46,46.3,22.26,23.23,12.19,45.62,25.42,66.55,39.32,110.67,73,200.18,174.38,258.77,293.13,101.43,205.38,102.26,441.14,2.28,646.81h0c-55.43,114.01-140.06,212.45-244.74,284.67-22.14,15.27-45.21,29.43-68.58,42.11-10.66,5.82-22.28,11.77-35.46,18.15-36.17,17.25-73.71,31.65-111.7,42.86-31.79,9.46-64.87,16.92-98.27,22.14-38.34,6.02-77.69,9.07-116.98,9.07Zm-6.58-1441.75c-2.15,0-4.3,0-6.45.03-22.17.21-44.67,1.49-66.85,3.8-8.77.85-17.07,1.86-24.8,3-72.32,9.97-142.71,31.12-209.41,62.88-170.79,81.49-298.64,223.89-359.99,400.97-60.84,175.63-48.84,364.53,33.8,531.89,112.28,227.5,341.17,378.49,597.36,394.06,13.61.8,27.36,1.24,40.8,1.32.72,0,1.45,0,2.17,0,36.96,0,74.02-2.87,110.14-8.54,31.48-4.92,62.63-11.94,92.6-20.86,35.84-10.58,71.22-24.15,105.2-40.35,12.41-6.01,23.4-11.63,33.48-17.13,22.06-11.97,43.79-25.32,64.65-39.7,98.46-67.93,178.08-160.53,230.21-267.76h0c94.02-193.41,93.24-415.11-2.16-608.27-55.17-111.8-139.42-207.23-243.67-276-19.75-13.11-40.83-25.57-62.72-37.06-13.98-7.33-28.66-14.38-43.61-20.96-46.41-20.46-95.14-36.03-144.84-46.29-48.07-9.98-97.12-15.02-145.92-15.02Zm662.62,1013.17h.05-.05Z"/>
    <path class="cls-5" d="m2778.88,1746.07c-412.64,314.17-1005.07,130.5-1061.66-376.81-38.5-345.15,274.35-647.42,612.75-661.31,246.3-10.1,491.67,86.29,613.63,458.99,0,0,28.19,173.11-13.74,291.12-41.93,118.01-102.92,225.73-102.92,225.73l-48.06,62.28Z"/>
    <path class="cls-8" d="m1717.24,1369.27c56.58,507.3,649.01,690.96,1061.64,376.83l9.73-12.64c-466.33,104.23-949.36-152.29-1016.25-664.21-45.46,91.08-66.99,193.51-55.13,300.02"/>
    <path class="cls-5" d="m2330.64,1996.51c-169.5,0-332.56-53.44-459.16-152.6-143.84-112.66-231.15-273.17-252.48-464.2-19.59-175.59,38.18-352.16,162.68-497.2,138.16-160.96,342.62-262.06,546.92-270.44,113.48-4.68,216.68,11.13,306.73,46.94l2.09.83,1.88,1.24c110.73,73.04,200.23,174.41,258.83,293.17,101.43,205.38,102.26,441.14,2.28,646.81h0c-55.43,114.01-140.06,212.45-244.74,284.67-22.14,15.27-45.21,29.43-68.58,42.11-10.66,5.82-22.28,11.77-35.46,18.15-36.17,17.25-73.71,31.65-111.7,42.86l-1.65.48-1.7.22c-35.41,4.66-70.81,6.95-105.93,6.95Zm36.4-1341.44c-12.08,0-24.29.25-36.65.76-192.38,7.89-385.08,103.3-515.48,255.21-116.49,135.72-170.61,300.43-152.38,463.81,19.99,179.06,101.58,329.34,235.95,434.58,143.21,112.16,336.53,162.01,530.67,136.92,35.22-10.49,70.04-23.89,103.5-39.85,12.41-6.01,23.4-11.63,33.48-17.14,22.06-11.97,43.79-25.32,64.65-39.7,98.46-67.93,178.08-160.53,230.21-267.76h0c94.02-193.41,93.24-415.11-2.16-608.27-54.83-111.12-138.42-206.08-241.79-274.75-74.08-29.12-158.03-43.82-250.01-43.82Zm513.66,936.41h.05-.05Z"/>
    <path class="cls-10" d="m1401.45,1185.14c-15.62,141.29,55.84,269.41,159.66,286.15,103.81,16.73,200.64-84.25,216.26-225.54.12-.88.19-1.83.26-2.72,14.45-140.21-56.82-266.82-159.91-283.43-80.2-12.93-156.22,44.4-193.87,136.26-11.07,27.06-18.83,57.15-22.39,89.28"/>
    <g class="cls-1">
      <path class="cls-5" d="m1401.45,1185.14c-15.62,141.29,55.84,269.41,159.66,286.15,103.81,16.73,200.64-84.25,216.26-225.54.12-.88.19-1.83.26-2.72-13.02,12.66-32.36,24.07-55.9,15.38-41.22-15.24-106.82-118.29-106.82-118.29,0,0-82.74-19.73-191.07-44.25-11.07,27.06-18.83,57.15-22.39,89.28"/>
    </g>
    <path class="cls-5" d="m1583.94,1495.02c-8.75,0-17.53-.71-26.33-2.12-114.99-18.53-194.82-157.67-177.96-310.16h0c9.73-87.92,48.94-163.93,107.57-208.54,41.01-31.2,87.33-43.73,133.95-36.21,114.99,18.54,194.82,157.67,177.95,310.16-9.72,87.91-48.93,163.92-107.57,208.54-33.27,25.32-70.03,38.34-107.62,38.34Zm-160.75-307.47h0c-14.34,129.65,49.09,247.23,141.4,262.1,34.47,5.56,69.22-4.06,100.45-27.83,48.42-36.84,82.27-103.56,90.56-178.49,14.34-129.65-49.09-247.23-141.39-262.1-34.5-5.56-69.22,4.06-100.45,27.82-48.41,36.84-82.27,103.57-90.56,178.5Z"/>
    <path class="cls-10" d="m1384.22,1200.46c-12.29,115.25,41.23,219.42,119.54,232.67,78.3,13.25,151.74-69.44,164.02-184.69,12.29-115.25-41.23-219.42-119.54-232.67-78.3-13.25-151.74,69.44-164.02,184.69"/>
    <g class="cls-1">
      <path class="cls-5" d="m1503.78,1433.13c-78.34-13.25-131.84-117.41-119.55-232.69,1.31-12.51,3.41-24.65,6.09-36.3,12.26,81.68,58.37,145.92,119.27,156.16,68.77,11.55,133.88-49.62,157.69-141.67,2.76,22.3,3.05,45.81.51,69.78-12.28,115.28-85.73,197.94-164.02,184.71"/>
    </g>
    <path class="cls-5" d="m1520.44,1456.44c-6.76,0-13.55-.57-20.34-1.72-90.89-15.38-151.35-128.09-137.66-256.58h0c7.97-74.77,41.11-140.92,88.64-176.95,31.09-23.57,65.94-32.91,100.81-27.01,90.89,15.38,151.36,128.09,137.66,256.58-7.97,74.77-41.1,140.93-88.64,176.95-25.04,18.97-52.52,28.73-80.47,28.73Zm11.41-420.15c-18.5,0-37.05,6.73-54.31,19.8-38.09,28.86-64.83,83.7-71.55,146.68h0c-10.88,102.01,35.56,197.61,101.41,208.75,22.62,3.83,45.83-2.64,67.05-18.73,38.09-28.86,64.84-83.7,71.55-146.68,10.87-102.02-35.57-197.61-101.41-208.75-4.23-.72-8.49-1.07-12.74-1.07Zm-147.63,164.17h.05-.05Z"/>
    <g class="cls-2">
      <path class="cls-10" d="m2161.97,873.25s316.92,6.92,499.05,179.2c.19.18.38.36.57.54,38.3,36.29,65.99,82.12,80.51,132.45,19.2,66.56,22.56,115.16,23.84,158.05,3.83,130.45-19.11,192.18-19.11,192.18,73.21-70.78,113.3-150.06,111.2-258.74-.23-10.71-.88-21.76-1.9-33.07-.23-2.6-.51-5.18-.84-7.78.05-.03.03-.08-.04-.15-3.71-22.78-9.73-52.53-19.36-85.54-28.98-99.59-90.52-228.9-219.79-286.43-241.69-107.58-465.42-4.06-454.13,9.3"/>
    </g>
    <g class="cls-2">
      <path class="cls-10" d="m2045.72,1237.13c-14.49,60.27-68.79,99.03-121.29,86.56-52.51-12.46-83.33-71.43-68.85-131.7,14.48-60.27,68.78-99.03,121.29-86.56,52.5,12.46,83.33,71.43,68.85,131.7"/>
    </g>
    <g class="cls-2">
      <path class="cls-10" d="m1941.35,1425.39c-8.09,24.29-31.81,38.37-52.98,31.44-21.17-6.93-31.77-32.25-23.68-56.53,8.09-24.3,31.81-38.37,52.98-31.44,21.17,6.93,31.77,32.25,23.68,56.54"/>
    </g>
    <path class="cls-10" d="m3037.04,2214.73c-50.78-4.3-96.02-24.13-141.67-92.35-49.22-73.55-51.72-128.56-100.2-192.69-39.37-52.09-9.07-97.88,45.47-90.3,45.86,6.37,106.08,75.77,106.08,75.77,0,0,30.28-51.61,56.82-90.26,6.46-9.41,142.79-23.92,216.43,22.42,91.72,57.72,82.37,150.54,79.36,172.63-7.58,55.57-113.79,207.36-262.28,194.77"/>
    <g class="cls-1">
      <path class="cls-5" d="m3280.6,2067.88c-37.63,66.49-127.73,156.68-243.54,146.83-50.81-4.3-96.06-24.14-141.7-92.34-17.91-26.76-29.65-51.11-39.68-74.29,18.97,17.88,44.68,33.46,76.21,32.41,61.06-2.06,107.31-51.99,90.45-110.77,18.75,4.34,62.37,259.44,258.25,98.16"/>
    </g>
    <path class="cls-5" d="m2912.54,2159.46c-18.16-14.52-32.58-32.62-45.26-51.65-12.83-19.06-22.55-39.98-31.65-60.34-8.96-20.51-17-40.53-26.3-59.29-2.22-4.77-4.8-9.25-7.17-13.9-2.63-4.46-5.1-9.03-7.85-13.4-2.81-4.34-5.43-8.8-8.51-12.97l-4.46-6.35-5.22-7.73c-6.9-10.73-12.97-22.79-15.37-36.92-2.5-13.87-1.18-30.15,6.9-43.92,7.95-13.79,21.5-23.26,35.12-27.71,13.78-4.57,27.66-4.88,40.71-3.15,14.48,2.21,25.99,7.84,36.77,13.74,10.75,6,20.38,12.88,29.5,20.14,9.16,7.23,17.81,14.84,26.08,22.78,8.35,8.01,16.14,15.9,24.1,24.89h0s-28.34,2.62-28.34,2.62c9.02-15.73,18.05-31.2,27.5-46.59l14.38-22.97,7.39-11.43,3.75-5.7,1.9-2.84.95-1.42.48-.71.12-.18.37-.51c.53-.69,1.1-1.36,1.71-2.01,1.2-1.28,2.6-2.49,3.96-3.44l1.91-1.13c1.27-.71,2.81-1.48,3.49-1.71,1.79-.73,3.59-1.4,4.91-1.77,1.48-.47,2.92-.88,4.19-1.17,1.31-.33,2.67-.69,3.89-.92,5.09-1.14,9.83-1.85,14.63-2.58,9.52-1.31,18.87-2.14,28.22-2.68,18.69-1.1,37.33-.76,56,.65,18.65,1.45,37.34,4.1,55.94,8.55,18.57,4.48,37.13,10.82,54.89,20.42,9.09,4.93,16.64,10.83,24.79,16.39,3.88,3.02,7.56,6.36,11.33,9.55,1.85,1.64,3.8,3.16,5.56,4.91l5.17,5.4c13.9,14.2,25.58,30.96,33.78,49.23,8.33,18.2,13.55,37.65,15.86,57.2.95,9.8,1.64,19.61,1.28,29.41-.07,4.9-.41,9.8-.86,14.69-.46,4.96-.95,9.4-2.17,15.41-2.4,10.9-6.12,20.11-10.17,29.09-4.13,8.89-8.76,17.3-13.69,25.46-9.92,16.26-21.2,31.39-33.56,45.57-24.68,28.26-53.76,53.21-87.47,70.77-33.51,17.48-71.85,27.59-109.4,24.84-4.86-.35-8.51-4.58-8.15-9.43.31-4.17,3.46-7.45,7.43-8.07h.05c68.04-10.64,126.34-49.99,170.32-101.44,10.9-12.93,20.8-26.71,29.25-41.1,4.19-7.2,8.06-14.52,11.33-21.89,3.2-7.32,5.94-14.88,7.23-21.48.51-2.76,1.11-7.2,1.39-11.13.34-4.01.58-8.04.59-12.06.25-8.07-.44-16.1-1.25-24.06-2.04-15.89-6.38-31.3-13.04-45.54-6.54-14.31-15.8-27.17-26.78-38.52l-4.06-4.31c-1.4-1.41-3-2.62-4.49-3.94-3.06-2.56-5.97-5.27-9.12-7.74-6.64-4.46-13.18-9.63-19.83-13.21-13.68-7.43-29.15-12.91-45.28-16.81-16.15-3.9-32.93-6.35-49.87-7.7-16.95-1.35-34.1-1.54-51.09-.92-8.48.35-16.95.98-25.15,1.98-4.03.54-8.14,1.09-11.78,1.86-.97.17-1.77.38-2.63.57-.91.19-1.63.4-2.28.59-.84.21-1.11.35-1.41.44-.39.11.2-.07.47-.27.16-.1.31-.21.44-.34.94-.59,1.93-1.41,2.72-2.32l-13.22,19.64-14.41,22.22c-9.49,14.9-19.05,29.95-28.19,44.97l-.07.11c-5.06,8.32-15.91,10.96-24.23,5.9-1.53-.93-2.92-2.12-4.05-3.39h0c-6.63-7.49-14.28-15.3-21.83-22.52-7.61-7.3-15.51-14.24-23.63-20.64-8.08-6.45-16.46-12.37-24.94-17.07-8.39-4.7-17.18-8.58-24.6-9.61-8.72-1.13-17.38-.71-24.52,1.69-7.19,2.36-12.56,6.66-15.68,12.03-3.11,5.41-3.86,12.42-2.46,20.07,1.24,7.68,5.35,15.75,10.48,23.29l4.12,5.89,5.17,7.05c3.55,4.63,6.64,9.59,9.89,14.44,3.22,4.87,6.06,9.96,9.05,14.95,2.71,5.11,5.65,10.17,8.15,15.34,5.23,10.31,9.73,20.75,14.16,31.07l12.42,30.63c7.91,20.24,16.75,39.34,26.11,58.32,4.71,9.47,9.69,18.89,14.67,28.33,5.11,9.35,10.32,18.65,15.71,28.04l.07.12c2.45,4.26.98,9.7-3.28,12.15-3.26,1.87-7.22,1.44-10-.77"/>
    <path class="cls-10" d="m2972.47,1872.74c28.16-42.02,87.96-179.66,146.61-195.38,40.38-10.82,69.44,15.71,59.11,61.12-8.3,36.43-55.5,105.08-55.5,105.08"/>
    <path class="cls-5" d="m2972.45,1894.64c-4.19,0-8.43-1.2-12.17-3.71-10.05-6.73-12.73-20.34-6-30.39,6.26-9.34,14.69-24.66,24.44-42.41,44.41-80.75,85.2-148.67,134.69-161.93,26.85-7.19,51.99-1.94,68.98,14.42,17.56,16.91,23.81,43.41,17.14,72.71-8.96,39.39-53.73,105.25-58.8,112.63-6.86,9.96-20.48,12.49-30.45,5.64-9.97-6.85-12.5-20.49-5.64-30.45,12.47-18.15,46.16-71.06,52.19-97.54,3.18-13.97,1.43-25.43-4.81-31.43-5.66-5.45-15.59-6.79-27.27-3.66-35.48,9.5-80.66,91.65-107.65,140.73-10.26,18.65-19.11,34.75-26.44,45.68-4.22,6.3-11.16,9.71-18.21,9.71Z"/>
    <path class="cls-10" d="m3097.35,1871.37c27.68-51.68,79.48-143.96,129.54-156.22,36.26-8.87,70.9,11.89,59.44,60.62-8.56,36.37-63.05,130.3-63.05,130.3"/>
    <path class="cls-5" d="m3093.48,1869.3c11.74-37.13,28.13-72.56,50.44-105.57,11.32-16.42,24.13-32.19,40.67-46.22,8.31-6.95,17.68-13.53,29.34-18.16,2.79-1.21,6.08-2.11,9.06-2.96,2.97-.64,5.91-1.35,8.94-1.76,6.09-.78,12.33-1.13,18.73-.51,12.67,1.15,26.31,5.65,37.31,15.22,5.3,4.87,10.15,10.57,13.29,16.99.8,1.59,1.7,3.18,2.35,4.8l1.69,4.93c1.24,3.32,1.72,6.57,2.32,9.87,2.02,13.17.41,25.26-2.28,36.48-2.99,11.53-6.9,20.54-10.95,29.86-8.12,18.29-17.01,35.58-26.4,52.56-9.36,17.02-19.13,33.54-29.56,50.03-5.17,8.19-16,10.63-24.19,5.45-7.71-4.88-10.33-14.77-6.27-22.75l.14-.28c17.13-33.41,34.93-67.38,49.48-100.89,3.4-8.25,6.93-16.93,8.75-23.91,1.79-7.29,2.54-14.52,1.63-20.28-.95-5.81-3.03-9.92-6.3-13.18-3.37-3.15-8.6-5.37-14.84-6.14-3.11-.42-6.46-.31-9.85,0-1.7.18-3.42.61-5.15.81-1.61.43-3.01.62-4.62,1.27-6.28,2.06-13.1,6.11-19.64,11.12-13.22,10.05-25.31,23.68-37.02,37.68-23.49,28.26-44.97,59.52-69.35,89.67-1.54,1.92-4.34,2.23-6.27.68-1.47-1.18-1.98-3.12-1.45-4.82"/>
    <path class="cls-10" d="m3286.02,1934.53c33.2-75.77-22.13-116.21-61.61-110.34-59.97,8.91-96.17,85.09-68.88,114.25,30.31,32.38,75.36-7.1,75.36-7.1l55.13,3.19Z"/>
    <path class="cls-5" d="m3183.81,1973.14c-15.22,0-30.76-5.3-44.28-19.75-16.09-17.19-19.6-43.45-9.63-72.05,11.95-34.26,44.8-71.92,91.28-78.83,29.17-4.35,60.18,8.72,78.95,33.27,12.59,16.48,30.12,52.36,5.94,107.53l-6.11,13.95-62.06-3.59c-13.63,9.82-33.57,19.46-54.1,19.46Zm48.22-127.61c-1.54,0-3.02.11-4.4.31-28.23,4.2-49.01,28.82-56.37,49.92-4.17,11.95-4.07,23.08.25,27.7,15.4,16.44,44.72-8.41,45.01-8.67l6.71-5.77,8.91.44,38.95,2.26c5.78-19.88,3.85-36.76-5.76-49.34-9.11-11.92-22.77-16.86-33.3-16.86Z"/>
    <path class="cls-10" d="m3225.51,2138.6s95.83-99.17,91.68-159.51c-2.84-41.33-24.11-65.58-63.61-59.85-63.4,9.2-98.19,69.98-68.88,100.29,25.59,26.47,75.36-7.1,75.36-7.1"/>
    <path class="cls-5" d="m3212.91,2126.43c13.97-14.8,27.75-31.19,40.24-47.72,12.5-16.61,24.11-33.88,33.14-51.68,4.48-8.88,8.28-17.91,10.77-26.71.71-2.22,1.02-4.35,1.59-6.51.28-2.09.79-4.26.88-6.25l.24-3.01c.02-.96-.07-1.88-.07-2.83l-.02-1.41-.19-1.72-.37-3.43c-1.1-9.08-3.54-17.52-7.37-23.86-.84-1.73-2.07-2.9-3.02-4.39-1.21-1.13-2.19-2.54-3.5-3.41-2.36-2.14-5.11-3.49-8.13-4.59-2.93-1.27-6.58-1.49-10.24-1.93-1.97.06-3.87-.07-5.92.1-2.11.3-4.03.26-6.31.68-8.89,1.3-17.54,3.78-25.72,7.39-16.28,7.07-30.73,19.86-37.69,35.01-3.4,7.53-4.51,15.36-2.79,22.21.87,3.41,2.63,6.7,5.02,9.57,2.32,2.67,5,4.94,8.6,6.32,7.1,2.96,16.99,2.71,26.65.67,9.69-2.05,19.74-5.68,28.93-10.12l.25-.12c2.19-1.06,4.81-.14,5.87,2.05.91,1.88.35,4.09-1.21,5.34-8.94,7.15-18.44,12.99-29.26,17.45-10.72,4.26-23.11,7.56-36.91,4.57-6.82-1.41-13.64-4.88-19.03-9.7-5.26-4.66-9.65-10.53-12.51-17.23-2.84-6.67-4.21-13.9-4.15-20.88.02-7,1.25-13.76,3.25-20.1,4.03-12.7,10.95-23.87,19.54-33.22,8.53-9.43,18.64-17.22,29.7-23.29,5.58-2.93,11.35-5.51,17.29-7.6,5.97-1.97,12.07-3.64,18.26-4.66,6.24-1.16,13.04-1.57,19.93-1.39,7.01.53,14.21,1.52,21.29,4.38,14.26,5.12,26.47,16.75,32.95,29.11,6.82,12.42,9.93,25.25,11.24,37.51l.43,4.6.2,2.3.05,2.62c.02,1.75.06,3.52.01,5.24l-.37,5.04c-.23,3.38-.88,6.5-1.38,9.73-.73,3.05-1.31,6.24-2.23,9.16-3.38,11.93-8.06,22.8-13.25,33.13-10.49,20.62-23.08,39.18-36.43,56.96-13.49,17.8-27.44,34.45-43.02,50.97-6.64,7.03-17.73,7.36-24.77.72-7.04-6.64-7.36-17.73-.72-24.77h0s.28-.31.28-.31Z"/>
    <path class="cls-5" d="m892.95,1822.22c-22.4,6.13-44.14,14.02-63.7,24.45-9.68,5.3-18.89,11.18-26.5,17.95-7.68,6.57-13.52,14.41-15.51,20.96-1.03,3.3-1.07,5.99-.69,8.75.76,3.72,1.64,6.7,3.17,8.69,1.44,2.05,3.25,3.79,6.38,5.32,3,1.58,7.17,2.61,11.73,3.2,9.21,1.23,19.98.28,30.68-1.45,10.78-1.77,21.73-4.51,32.63-7.68,9.26-2.7,18.95,2.62,21.64,11.89.46,1.59.69,3.21.7,4.79v2.19c-.68,2.83-1.3,6.66-1.79,10.08-.5,3.52-.9,7.07-1.21,10.63-.61,7.11-.82,14.24-.49,21.22.35,6.96,1.22,13.83,3,20.17,1.71,6.39,4.45,12.11,8.28,16.68l.4.48c3.11,3.71,2.62,9.24-1.09,12.35-3.24,2.72-7.87,2.69-11.06.17-7.47-5.89-12.97-13.62-16.85-21.51-3.98-7.93-6.62-16.13-8.66-24.34-2-8.21-3.33-16.46-4.19-24.71-.44-4.13-.76-8.26-.96-12.42-.19-4.26-.34-8.11-.19-12.92h0s22.34,18.86,22.34,18.86c-11.94,3.47-24.11,6.54-36.81,8.64-12.74,2.02-25.9,3.35-40.39,1.91-7.23-.82-14.84-2.33-22.64-5.79-7.69-3.32-15.69-9.11-21.01-16.86-5.51-7.68-8.3-16.38-9.39-24.35-1.25-9.02.11-18.51,3.34-26.32,3.14-7.91,7.76-14.43,12.66-19.96,4.95-5.54,10.32-10.11,15.83-14.17,11.13-7.93,22.78-13.82,34.67-18.51,23.75-9.37,48.37-13.97,72.85-15.68,4.84-.34,9.05,3.32,9.39,8.16.3,4.26-2.48,8.02-6.45,9.1l-.11.03Z"/>
    <path class="cls-5" d="m1224.7,2187.81c-4.77,0-9.48-2.07-12.71-6.06-2.12-2.63-51.9-65.86-36.38-198.26,14.95-127.47,114.44-194.96,118.67-197.78,7.54-5.01,17.74-2.97,22.77,4.58,5.02,7.55,2.97,17.75-4.58,22.77-.88.59-91.09,62.26-104.22,174.25-13.78,117.49,28.92,173.3,29.36,173.85,5.58,7.09,4.43,17.41-2.63,23.04-3.04,2.42-6.67,3.61-10.26,3.61Z"/>
    <path class="cls-5" d="m2754.74,2373.59c-1.74,0-3.51-.28-5.25-.86-5.08-1.72-124.76-43.72-147.64-191.02-26.01-167.36,102.31-259.56,107.79-263.4,7.44-5.21,17.68-3.41,22.88,4.01,5.21,7.42,3.42,17.67-4,22.88-4.77,3.37-117.01,84.71-94.2,231.47,19.74,127.06,121.42,163.46,125.74,164.95,8.55,2.95,13.14,12.27,10.22,20.84-2.33,6.83-8.7,11.14-15.53,11.14Z"/>
    <path class="cls-5" d="m1910.07,3131.04c-68.74,0-127.14-18.87-149.18-36.23-7.12-5.62-8.35-15.94-2.73-23.07,5.61-7.13,15.94-8.35,23.07-2.74,21.25,16.75,121.7,46.87,222,15.48,82.74-25.9,138.88-85.39,166.84-176.82,2.66-8.67,11.85-13.54,20.51-10.9,8.67,2.65,13.55,11.84,10.9,20.51-39.01,127.57-124.01,178.39-188.44,198.56-34.78,10.89-70.05,15.21-102.96,15.21Z"/>
    <path class="cls-5" d="m1349.41,2834.6c-.42,0-.83-.01-1.24-.05-117.47-8.77-228.22-48.17-311.85-110.93-70.98-53.27-114.77-118.99-111.55-167.42.6-9.05,8.39-15.93,17.48-15.3,9.05.6,15.9,8.43,15.3,17.48-1.98,29.84,27.99,86.06,98.49,138.97,78.67,59.05,183.28,96.14,294.57,104.45,9.05.67,15.84,8.55,15.16,17.6-.64,8.63-7.85,15.2-16.36,15.2Z"/>
    <path class="cls-5" d="m2172.13,3223.91c-6.94,9.02-15.89,15.33-25.02,20.87-9.23,5.41-18.92,9.85-28.84,13.6-19.86,7.49-40.65,12.33-61.84,14.89-21.2,2.56-42.86,2.61-64.49-.21-21.63-2.75-43.18-8.87-63.6-18.42-8.78-4.11-12.56-14.56-8.46-23.33,4.11-8.78,14.55-12.56,23.33-8.45.57.26,1.11.55,1.63.87l.08.05c15.8,9.57,33.46,16.85,52.15,21.29,18.67,4.51,38.22,6.63,57.88,6.35,19.65-.25,39.47-2.66,58.63-7.63,9.57-2.5,18.97-5.65,27.93-9.67,8.83-4.1,17.47-9.07,23.83-15.75l.14-.15c1.67-1.75,4.44-1.82,6.19-.15,1.64,1.56,1.79,4.09.45,5.84"/>
    <path class="cls-5" d="m1166.47,3028.64c-11.72,2.29-23.26,3.39-35.13,3.81-11.82.34-23.8-.12-35.88-1.89-12.06-1.88-24.2-5.04-36.14-10.02-11.83-5.32-23.2-12.78-33.18-22.51-6.96-6.79-7.11-17.94-.32-24.9,6.78-6.96,17.93-7.11,24.9-.32.78.77,1.48,1.59,2.09,2.45l.18.26c5.14,7.36,11.78,14.18,19.88,19.98,8.3,5.51,17.69,10.14,27.74,13.78,10.09,3.54,20.78,6.08,31.67,7.88,10.86,1.73,22.18,2.82,33.13,2.8h.21c2.42,0,4.39,1.96,4.39,4.38,0,2.14-1.52,3.92-3.55,4.31"/>
    <path class="cls-10" d="m1222.3,2219.62s12.59,117.5,27.74,127.7c33.52,22.59,354.89,168.28,414.31,191.02,91.03,34.83,137.3-64.76,176.05-138.35,41.1-78.07,84.3-148.68,74.4-173.74-11.6-29.39-86.14-107.76-86.14-107.76"/>
    <g class="cls-1">
      <path class="cls-5" d="m1869.41,2345.98c-9.29,17.21-19.18,35.39-29,54.01-38.77,73.59-85.02,173.19-176.04,138.32-59.43-22.73-380.8-168.42-414.31-190.97-15.16-10.21-27.77-127.72-27.77-127.72l263.59-43.98c101.19,49.58,312.87,126.14,360.49,144.36,6.62,2.54,16.87,24.8,23.04,25.98"/>
    </g>
    <path class="cls-5" d="m1700.56,2567.52c-13.64,0-28.28-2.7-44.03-8.73-55.62-21.29-381.18-168.01-418.72-193.31-7.06-4.76-23.59-15.9-37.28-143.53-1.29-12.03,7.42-22.82,19.44-24.11,12.05-1.32,22.82,7.41,24.11,19.44,4.84,45.12,14.09,99.75,20.67,113.44,41.19,24.74,343.72,162.79,407.42,187.17,63.38,24.23,99.21-33.12,142.93-116.8l5.91-11.29c7.31-13.88,14.68-27.52,21.81-40.72,22.84-42.28,54.09-100.1,51.46-115.1-7.34-17.85-51.96-69.32-81.51-100.39-8.33-8.76-7.99-22.63.78-30.96,8.76-8.34,22.62-7.99,30.96.78,12.94,13.6,78.12,83.08,90.64,114.82,11.36,28.77-10.64,71.8-53.8,151.68-7.06,13.06-14.36,26.57-21.59,40.31l-5.85,11.17c-31.37,60.04-76.37,146.16-153.37,146.16Z"/>
    <path class="cls-10" d="m1236.26,2176.69l120.45-180.92c21.72-32.61,63.17-45.75,99.71-31.61l339.56,131.49c48.09,18.62,67.99,75.94,41.79,120.37l-121.3,205.59c-21.79,36.93-68,51.37-106.93,33.42l-338.72-156.16c-46.59-21.48-63-79.47-34.56-122.18"/>
    <path class="cls-5" d="m1644.67,2484.68c-14.86,0-29.94-3.15-44.29-9.77l-338.72-156.16c-28.03-12.92-48.92-37.37-57.32-67.07-8.4-29.69-3.41-61.45,13.7-87.13l120.45-180.92c27.62-41.47,79.36-57.88,125.85-39.9l339.57,131.49c28.93,11.2,51.36,34.44,61.53,63.75,10.18,29.31,6.97,61.45-8.79,88.17l-121.3,205.59c-19.58,33.18-54.45,51.95-90.67,51.95Zm-218.61-504.33c-20.09,0-39.35,9.89-51.11,27.55l-120.45,180.91h0c-10,15.02-12.92,33.58-8,50.94,4.91,17.36,17.12,31.66,33.51,39.21l338.72,156.16c28.85,13.29,62.76,2.7,78.9-24.66l121.3-205.59c9.21-15.62,11.09-34.41,5.14-51.55-5.95-17.13-19.06-30.72-35.98-37.27l-339.56-131.49c-7.37-2.85-14.98-4.23-22.47-4.23Zm-189.79,196.33h.05-.05Z"/>
    <path class="cls-10" d="m1818.96,2440.51s-21.06-36.54-8.37-76.85c20.61-65.44,73.69-42.77,73.69-42.77,0,0,149.4,80.32,318.46,95.72,0,0,62.35,102.16-45.29,133.59-214.8-6.52-338.49-109.7-338.49-109.7"/>
    <path class="cls-11" d="m2157.44,2550.23c-214.8-6.53-338.5-109.72-338.5-109.72,0,0-18.4-31.89-10.42-68.94,3.5,17.79,10.42,29.78,10.42,29.78,0,0,116.03,96.76,318.47,108.78,18.73,1.11,37.6-3.48,53.12-14.03,16.03-10.9,24.34-24.47,27.92-38.51,6.7,32.11,1.62,74.33-61.02,92.64"/>
    <path class="cls-5" d="m2157.45,2572.11c-.22,0-.44,0-.66-.01-219.83-6.67-346.57-110.36-351.86-114.77-1.98-1.66-3.66-3.65-4.95-5.88-1.05-1.83-25.69-45.44-10.29-94.37,8.63-27.41,23.4-46.09,43.9-55.51,28.66-13.18,56.23-2.13,59.29-.83.6.26,1.19.54,1.76.85,1.46.78,147.71,78.42,310.09,93.21,6.9.63,13.1,4.49,16.71,10.4,1.41,2.31,34.32,57.18,15.1,106.84-10.97,28.34-35.51,48.25-72.95,59.18-1.99.58-4.06.88-6.14.88Zm-321.11-145.82c20.73,15.6,135.34,95.37,318.2,101.9,21.73-6.94,35.55-17.64,41.1-31.84,7.56-19.35-.12-44.29-6.86-59.13-160.13-17.4-297.91-88.09-313.6-96.37-2.45-.82-13.61-4.11-23.58.64-8.64,4.12-15.41,13.78-20.13,28.74-7.61,24.17,1.03,47.52,4.87,56.05Z"/>
    <path class="cls-5" d="m1647.08,2330.41c-16.27,0-30.51-5.25-41.17-15.18l-2.65-2.59c-.26-.25-.51-.52-.74-.79l-24.9-24.85c-2.95-2.95-4.26-7.17-3.49-11.27l1.91-10.16c.52-2.75,1.93-5.25,4.03-7.11l13.2-11.7c10.9-29.46,38.54-53.98,69.08-61.28l15.88-14.1c5.01-4.45,12.63-4.21,17.34.55l25.1,25.33s.06.06.09.1c16.95,14.64,22.95,38.01,16.05,62.86h0c-10.92,39.36-50.34,70.2-89.74,70.2Zm-25.74-35.39l2,1.95c5.68,5.29,13.96,8.19,23.74,8.19,27.68,0,57.64-23.68,65.41-51.7,0,0,0,0,0,0,4.29-15.45,1-29.47-8.82-37.5-.67-.55-1.28-1.16-1.82-1.83l-15.8-15.94-9.42,8.37c-1.81,1.61-4.02,2.65-6.39,3.03-23.92,4.82-46.64,25.08-54.12,48.3-.69,2.15-1.95,4.07-3.64,5.57l-12.04,10.67,20.28,20.24c.21.21.42.43.61.65Z"/>
    <path class="cls-7" d="m1724.65,2256.84c-9.34,33.67-44.05,60.95-77.57,60.95-13.39,0-24.6-4.37-32.57-11.8l-2.42-2.37-.27-.32-25.28-25.23,1.91-10.16,15.67-13.89c9.07-28.15,35.81-51.38,64.09-56.89h.04c4.19-.81,8.38-1.23,12.58-1.23,12.48,0,23,3.78,30.84,10.3,13.3,10.88,18.86,29.51,12.98,50.65"/>
    <path class="cls-6" d="m1697.33,2229.5c-9.32,33.66-44.06,60.95-77.59,60.94-33.53,0-53.15-27.28-43.82-60.95,9.33-33.66,44.06-60.94,77.59-60.94s53.14,27.28,43.82,60.95"/>
    <path class="cls-7" d="m1699.6,2211.89c.18,5.6-.59,11.48-2.28,17.63-9.34,33.67-44.05,60.95-77.57,60.95s-53.16-27.33-43.82-60.95c1.55-5.51,3.74-10.84,6.56-15.94.59,25.05,18.67,43.27,46.1,43.27s56.89-19.04,71.02-44.96"/>
    <g class="cls-3">
      <path class="cls-10" d="m1697.32,2229.51c-1.46,5.24-3.51,10.34-6.11,15.22,5.29-30.61-13.94-54.48-45.28-54.48-28.29,0-57.39,19.41-71.43,45.65.32-2.09.82-4.24,1.41-6.38,9.34-33.67,44.05-60.95,77.58-60.95s53.16,27.28,43.82,60.95"/>
    </g>
    <path class="cls-5" d="m1619.75,2303.06h0c-19.78,0-36.61-7.8-47.37-21.95-11.11-14.6-14.25-34.64-8.61-54.98,10.9-39.36,50.33-70.2,89.75-70.2,19.78,0,36.61,7.8,47.37,21.95,11.11,14.6,14.25,34.64,8.61,54.99h0c-10.9,39.36-50.32,70.19-89.74,70.19Zm33.75-121.89c-27.7,0-57.66,23.67-65.42,51.69-3.56,12.86-2.01,24.57,4.38,32.96,5.88,7.73,15.57,11.99,27.29,11.99h0c27.71,0,57.66-23.67,65.42-51.69,3.56-12.87,2.01-24.57-4.38-32.97-5.88-7.73-15.57-11.99-27.29-11.99Zm43.82,48.33h.05-.05Z"/>
    <path class="cls-5" d="m1377.28,2364.38c-3.11,0-6.25-.88-9.03-2.72-7.57-5-9.66-15.19-4.66-22.76l74.75-113.22c10.9-16.51,13.2-37.4,6.17-55.88-10.69-28.09-7.29-59.91,9.1-85.12l65.06-100.03c4.95-7.6,15.13-9.76,22.72-4.81,7.61,4.95,9.76,15.12,4.81,22.72l-65.06,100.02c-10.69,16.45-12.91,37.2-5.93,55.53,10.79,28.34,7.25,60.36-9.46,85.67l-74.75,113.22c-3.16,4.78-8.39,7.38-13.72,7.38Z"/>
    <path class="cls-5" d="m2959.3,1902.97c-.22-.25-.91-.6-.55-.28l.19.27.52.46c.62.58,1.7,1.36,2.67,2.09,2.04,1.5,4.43,3.1,6.77,4.69,4.77,3.22,9.7,6.55,14.57,10.03,9.74,6.98,19.35,14.56,28.09,23.24,8.73,8.64,16.7,18.41,22.54,29.51,5.96,10.99,9.27,23.5,9.46,35.71.04,2.43-1.9,4.42-4.32,4.46-2.13.03-3.93-1.46-4.37-3.47l-.03-.12c-2.26-10.55-6.96-20.16-13.62-28.26-6.56-8.18-14.73-15.03-23.62-20.95-8.87-5.95-18.5-10.95-28.5-15.53-5.01-2.3-10.11-4.48-15.39-6.73-2.68-1.16-5.33-2.28-8.24-3.64-1.48-.71-2.9-1.35-4.66-2.36l-1.28-.71-1.54-.99c-.84-.48-2.54-1.85-3.84-3.04-6.73-6.95-6.56-18.04.39-24.77,6.95-6.74,18.04-6.56,24.77.39"/>
  </g>
</svg>