<?xml version="1.0" encoding="UTF-8"?>
<svg id="Layer_1" data-name="Layer 1" xmlns="http://www.w3.org/2000/svg" viewBox="0 0 7680 1080">
  <defs>
    <style>
      .cls-1 {
        opacity: .5;
      }

      .cls-2 {
        stroke-width: 0px;
      }
    </style>
  </defs>
  <g class="cls-1">
    <g>
      <path class="cls-2" d="m7252.16,413.89c0-.67-1.45-1.26-3.7-1.65-1.68-.29-2.93-1.32-3.14-2.58-.49-3.03-1.54-5.13-2.77-5.13s-2.27,2.1-2.77,5.13c-.2,1.26-1.45,2.29-3.14,2.58-2.25.38-3.7.98-3.7,1.65s1.49,1.28,3.81,1.66c1.64.27,2.91,1.25,3.15,2.47.53,2.67,1.52,4.46,2.65,4.46s2.12-1.79,2.65-4.46c.24-1.22,1.51-2.2,3.15-2.47,2.31-.38,3.81-.98,3.81-1.66Z"/>
      <path class="cls-2" d="m6741.32,991.72c0-.88-1.91-1.67-4.88-2.17-2.22-.38-3.87-1.74-4.14-3.4-.65-4-2.04-6.77-3.65-6.77s-3,2.77-3.65,6.77c-.27,1.66-1.92,3.02-4.14,3.4-2.97.5-4.88,1.29-4.88,2.17s1.97,1.69,5.02,2.19c2.17.36,3.84,1.65,4.16,3.26.7,3.52,2,5.89,3.49,5.89s2.79-2.37,3.49-5.89c.32-1.61,1.99-2.91,4.16-3.26,3.05-.5,5.02-1.3,5.02-2.19Z"/>
      <path class="cls-2" d="m6372.23,1006.65c0-.75-1.63-1.42-4.17-1.85-1.9-.32-3.3-1.49-3.53-2.9-.55-3.42-1.74-5.78-3.12-5.78s-2.56,2.36-3.12,5.78c-.23,1.42-1.64,2.58-3.53,2.9-2.54.43-4.17,1.1-4.17,1.85s1.68,1.44,4.29,1.87c1.85.3,3.28,1.41,3.55,2.79.6,3.01,1.71,5.03,2.98,5.03s2.38-2.02,2.98-5.03c.27-1.38,1.7-2.48,3.55-2.79,2.61-.43,4.29-1.11,4.29-1.87Z"/>
      <path class="cls-2" d="m6132.63,303.74c0-.84-1.83-1.59-4.67-2.08-2.12-.36-3.7-1.66-3.96-3.25-.62-3.83-1.95-6.47-3.49-6.47s-2.87,2.65-3.49,6.47c-.26,1.59-1.83,2.89-3.96,3.25-2.84.48-4.67,1.23-4.67,2.08s1.88,1.62,4.8,2.1c2.07.34,3.67,1.58,3.98,3.12.67,3.37,1.91,5.63,3.34,5.63s2.67-2.26,3.34-5.63c.31-1.54,1.9-2.78,3.98-3.12,2.92-.48,4.8-1.24,4.8-2.1Z"/>
      <path class="cls-2" d="m5686.49,954.28c0-.49-1.07-.93-2.73-1.21-1.24-.21-2.16-.97-2.31-1.9-.36-2.23-1.14-3.78-2.04-3.78s-1.67,1.54-2.04,3.78c-.15.93-1.07,1.69-2.31,1.9-1.66.28-2.73.72-2.73,1.21s1.1.94,2.8,1.22c1.21.2,2.14.92,2.32,1.82.39,1.96,1.12,3.29,1.95,3.29s1.56-1.32,1.95-3.29c.18-.9,1.11-1.62,2.32-1.82,1.7-.28,2.8-.72,2.8-1.22Z"/>
      <path class="cls-2" d="m5643.46,1014.09c0-.67-1.45-1.27-3.71-1.65-1.69-.29-2.94-1.32-3.15-2.58-.49-3.04-1.55-5.14-2.77-5.14s-2.28,2.1-2.77,5.14c-.2,1.26-1.46,2.3-3.15,2.58-2.26.38-3.71.98-3.71,1.65s1.5,1.29,3.82,1.67c1.65.27,2.92,1.26,3.16,2.48.53,2.68,1.52,4.48,2.65,4.48s2.12-1.8,2.65-4.48c.24-1.22,1.51-2.21,3.16-2.48,2.32-.38,3.82-.99,3.82-1.67Z"/>
      <path class="cls-2" d="m5460.84,78.62c0-.81-1.75-1.53-4.47-1.99-2.03-.34-3.54-1.59-3.79-3.11-.59-3.66-1.86-6.19-3.34-6.19s-2.75,2.53-3.34,6.19c-.25,1.52-1.75,2.77-3.79,3.11-2.72.46-4.47,1.18-4.47,1.99s1.8,1.55,4.59,2.01c1.98.33,3.51,1.51,3.8,2.99.64,3.22,1.83,5.39,3.19,5.39s2.55-2.17,3.19-5.39c.29-1.47,1.82-2.66,3.8-2.99,2.79-.46,4.59-1.19,4.59-2.01Z"/>
      <path class="cls-2" d="m5375.62,287.1c0-.61-1.33-1.16-3.4-1.51-1.55-.26-2.69-1.21-2.88-2.36-.45-2.78-1.42-4.71-2.54-4.71s-2.09,1.92-2.54,4.71c-.19,1.15-1.33,2.1-2.88,2.36-2.07.35-3.4.9-3.4,1.51s1.37,1.18,3.49,1.53c1.51.25,2.67,1.15,2.89,2.27.49,2.45,1.39,4.1,2.43,4.1s1.94-1.65,2.43-4.1c.22-1.12,1.38-2.02,2.89-2.27,2.12-.35,3.49-.9,3.49-1.53Z"/>
      <path class="cls-2" d="m5201.68,1038.29c0-.7-1.51-1.31-3.85-1.71-1.75-.3-3.05-1.37-3.26-2.68-.51-3.16-1.61-5.34-2.88-5.34s-2.37,2.18-2.88,5.34c-.21,1.31-1.51,2.38-3.26,2.68-2.34.4-3.85,1.02-3.85,1.71s1.55,1.33,3.96,1.73c1.71.28,3.03,1.3,3.28,2.57.55,2.78,1.58,4.64,2.75,4.64s2.2-1.87,2.75-4.64c.25-1.27,1.57-2.29,3.28-2.57,2.41-.4,3.96-1.02,3.96-1.73Z"/>
      <path class="cls-2" d="m5111.82,184.8c0-.69-1.5-1.31-3.84-1.71-1.75-.3-3.04-1.37-3.25-2.67-.51-3.14-1.6-5.32-2.87-5.32s-2.36,2.17-2.87,5.32c-.21,1.3-1.51,2.38-3.25,2.67-2.34.4-3.84,1.01-3.84,1.71s1.55,1.33,3.95,1.72c1.7.28,3.02,1.3,3.27,2.56.55,2.77,1.57,4.63,2.74,4.63s2.19-1.86,2.74-4.63c.25-1.27,1.56-2.28,3.27-2.56,2.4-.39,3.95-1.02,3.95-1.72Z"/>
      <path class="cls-2" d="m4960.73,245.22c0-.64-1.4-1.22-3.57-1.58-1.62-.27-2.82-1.27-3.02-2.48-.47-2.92-1.49-4.94-2.66-4.94s-2.19,2.02-2.66,4.94c-.2,1.21-1.4,2.21-3.02,2.48-2.17.37-3.57.94-3.57,1.58s1.44,1.23,3.67,1.6c1.58.26,2.8,1.21,3.04,2.38.51,2.57,1.46,4.3,2.55,4.3s2.04-1.73,2.55-4.3c.23-1.18,1.45-2.12,3.04-2.38,2.23-.37,3.67-.95,3.67-1.6Z"/>
      <path class="cls-2" d="m4415.5,504.67c0-.78-1.68-1.47-4.3-1.91-1.95-.33-3.4-1.53-3.64-2.99-.57-3.52-1.79-5.95-3.21-5.95s-2.64,2.43-3.21,5.95c-.24,1.46-1.69,2.66-3.64,2.99-2.61.44-4.3,1.13-4.3,1.91s1.73,1.49,4.42,1.93c1.91.31,3.38,1.45,3.66,2.87.62,3.1,1.76,5.18,3.07,5.18s2.45-2.08,3.07-5.18c.28-1.42,1.75-2.56,3.66-2.87,2.68-.44,4.42-1.14,4.42-1.93Z"/>
      <path class="cls-2" d="m4125.24,310.36c0-.78-1.7-1.48-4.34-1.93-1.98-.33-3.44-1.55-3.68-3.02-.58-3.56-1.81-6.02-3.24-6.02s-2.67,2.46-3.24,6.02c-.24,1.48-1.7,2.69-3.68,3.02-2.64.45-4.34,1.15-4.34,1.93s1.75,1.5,4.47,1.95c1.93.32,3.41,1.47,3.7,2.9.62,3.13,1.78,5.24,3.1,5.24s2.48-2.1,3.1-5.24c.28-1.43,1.77-2.58,3.7-2.9,2.71-.45,4.47-1.15,4.47-1.95Z"/>
      <path class="cls-2" d="m4049.76,44.51c0-.91-1.97-1.71-5.02-2.23-2.28-.39-3.98-1.79-4.26-3.5-.67-4.12-2.1-6.96-3.75-6.96s-3.09,2.85-3.75,6.96c-.28,1.71-1.97,3.11-4.26,3.5-3.06.52-5.02,1.33-5.02,2.23s2.03,1.74,5.17,2.26c2.23.37,3.95,1.7,4.28,3.36.72,3.62,2.06,6.06,3.59,6.06s2.87-2.43,3.59-6.06c.33-1.66,2.05-2.99,4.28-3.36,3.14-.52,5.17-1.34,5.17-2.26Z"/>
      <path class="cls-2" d="m3680.4,914.84c0-.89-1.93-1.68-4.93-2.19-2.24-.38-3.9-1.75-4.17-3.43-.65-4.04-2.06-6.83-3.68-6.83s-3.03,2.79-3.68,6.83c-.27,1.67-1.93,3.05-4.17,3.43-3,.51-4.93,1.3-4.93,2.19s1.99,1.71,5.07,2.21c2.19.36,3.87,1.67,4.19,3.29.71,3.55,2.02,5.94,3.52,5.94s2.81-2.39,3.52-5.94c.32-1.63,2.01-2.93,4.19-3.29,3.08-.51,5.07-1.31,5.07-2.21Z"/>
      <path class="cls-2" d="m3140.07,70.09c0-.84-1.82-1.59-4.65-2.07-2.12-.36-3.69-1.66-3.94-3.24-.62-3.81-1.94-6.45-3.48-6.45s-2.86,2.64-3.48,6.45c-.26,1.58-1.83,2.88-3.94,3.24-2.83.48-4.65,1.23-4.65,2.07s1.88,1.61,4.78,2.09c2.06.34,3.66,1.57,3.96,3.11.67,3.35,1.91,5.61,3.33,5.61s2.66-2.26,3.33-5.61c.31-1.54,1.9-2.77,3.96-3.11,2.91-.48,4.78-1.24,4.78-2.09Z"/>
      <path class="cls-2" d="m3015.04,760.2c0-.65-1.4-1.22-3.58-1.59-1.63-.28-2.84-1.28-3.04-2.49-.48-2.94-1.49-4.97-2.68-4.97s-2.2,2.03-2.68,4.97c-.2,1.22-1.41,2.22-3.04,2.49-2.18.37-3.58.95-3.58,1.59s1.45,1.24,3.68,1.61c1.59.26,2.82,1.21,3.05,2.39.51,2.58,1.47,4.32,2.56,4.32s2.05-1.74,2.56-4.32c.23-1.18,1.46-2.13,3.05-2.39,2.24-.37,3.68-.95,3.68-1.61Z"/>
      <path class="cls-2" d="m2647.17,706.77c0-.89-1.92-1.67-4.9-2.18-2.23-.38-3.88-1.75-4.15-3.41-.65-4.02-2.04-6.79-3.66-6.79s-3.01,2.78-3.66,6.79c-.27,1.67-1.92,3.03-4.15,3.41-2.98.51-4.9,1.29-4.9,2.18s1.98,1.7,5.04,2.2c2.17.36,3.85,1.66,4.17,3.28.7,3.53,2.01,5.91,3.5,5.91s2.8-2.38,3.5-5.91c.32-1.62,2-2.92,4.17-3.28,3.06-.5,5.04-1.3,5.04-2.2Z"/>
      <path class="cls-2" d="m2064.46,354.06c0-.89-1.92-1.68-4.91-2.18-2.23-.38-3.89-1.75-4.16-3.42-.65-4.02-2.05-6.8-3.67-6.8s-3.02,2.78-3.67,6.8c-.27,1.67-1.93,3.04-4.16,3.42-2.99.51-4.91,1.29-4.91,2.18s1.98,1.7,5.05,2.2c2.18.36,3.86,1.66,4.18,3.28.7,3.54,2.01,5.92,3.51,5.92s2.8-2.38,3.51-5.92c.32-1.62,2-2.92,4.18-3.28,3.07-.5,5.05-1.3,5.05-2.2Z"/>
      <path class="cls-2" d="m1654.01,104.43c0-.78-1.69-1.47-4.31-1.92-1.96-.33-3.42-1.54-3.65-3-.57-3.53-1.8-5.98-3.22-5.98s-2.65,2.44-3.22,5.98c-.24,1.47-1.69,2.67-3.65,3-2.62.44-4.31,1.14-4.31,1.92s1.74,1.49,4.43,1.94c1.91.32,3.39,1.46,3.67,2.88.62,3.11,1.77,5.2,3.08,5.2s2.46-2.09,3.08-5.2c.28-1.42,1.76-2.57,3.67-2.88,2.69-.44,4.43-1.15,4.43-1.94Z"/>
      <path class="cls-2" d="m1224.34,573.6c0-.49-1.06-.93-2.72-1.21-1.24-.21-2.15-.97-2.3-1.89-.36-2.23-1.13-3.77-2.03-3.77s-1.67,1.54-2.03,3.77c-.15.92-1.07,1.68-2.3,1.89-1.65.28-2.72.72-2.72,1.21s1.1.94,2.8,1.22c1.21.2,2.14.92,2.31,1.82.39,1.96,1.11,3.28,1.94,3.28s1.55-1.32,1.94-3.28c.18-.9,1.11-1.62,2.31-1.82,1.7-.28,2.8-.72,2.8-1.22Z"/>
      <path class="cls-2" d="m772.61,715.14c0-.84-1.83-1.59-4.66-2.07-2.12-.36-3.69-1.66-3.95-3.25-.62-3.82-1.95-6.46-3.48-6.46s-2.86,2.64-3.48,6.46c-.26,1.58-1.83,2.89-3.95,3.25-2.84.48-4.66,1.23-4.66,2.07s1.88,1.61,4.79,2.09c2.07.34,3.66,1.58,3.97,3.12.67,3.36,1.91,5.62,3.33,5.62s2.66-2.26,3.33-5.62c.31-1.54,1.9-2.78,3.97-3.12,2.91-.48,4.79-1.24,4.79-2.09Z"/>
      <path class="cls-2" d="m593.56,808.56c0-.37-.81-.71-2.07-.92-.94-.16-1.64-.74-1.75-1.44-.27-1.69-.86-2.86-1.54-2.86s-1.27,1.17-1.54,2.86c-.11.7-.81,1.28-1.75,1.44-1.26.21-2.07.55-2.07.92s.83.72,2.12.93c.92.15,1.62.7,1.76,1.38.3,1.49.85,2.49,1.48,2.49s1.18-1,1.48-2.49c.14-.68.84-1.23,1.76-1.38,1.29-.21,2.12-.55,2.12-.93Z"/>
      <path class="cls-2" d="m98.17,876.54c0-.59-1.29-1.12-3.29-1.46-1.5-.25-2.61-1.17-2.79-2.29-.44-2.7-1.37-4.56-2.46-4.56s-2.02,1.86-2.46,4.56c-.18,1.12-1.29,2.04-2.79,2.29-2,.34-3.29.87-3.29,1.46s1.33,1.14,3.38,1.48c1.46.24,2.59,1.11,2.8,2.2.47,2.37,1.35,3.97,2.35,3.97s1.88-1.59,2.35-3.97c.22-1.09,1.34-1.96,2.8-2.2,2.06-.34,3.38-.87,3.38-1.48Z"/>
      <path class="cls-2" d="m9.15,514.96c0-.64-1.38-1.2-3.53-1.57-1.6-.27-2.79-1.26-2.99-2.46-.47-2.89-1.47-4.89-2.63-4.89s-2.17,2-2.63,4.89c-.19,1.2-1.38,2.18-2.99,2.46-2.15.36-3.53.93-3.53,1.57s1.42,1.22,3.63,1.58c1.56.26,2.77,1.19,3,2.36.51,2.54,1.44,4.25,2.52,4.25s2.02-1.71,2.52-4.25c.23-1.16,1.44-2.1,3-2.36,2.2-.36,3.63-.94,3.63-1.58Z"/>
    </g>
  </g>
  <g class="cls-1">
    <g>
      <ellipse class="cls-2" cx="7635.54" cy="947.77" rx="5.23" ry="5.11"/>
      <ellipse class="cls-2" cx="7549.88" cy="694.33" rx="5.23" ry="5.11"/>
      <ellipse class="cls-2" cx="7361.89" cy="920.04" rx="5.23" ry="5.11"/>
      <ellipse class="cls-2" cx="7354.09" cy="872.41" rx="5.23" ry="5.11"/>
      <ellipse class="cls-2" cx="7124.78" cy="740.8" rx="5.23" ry="5.11"/>
      <ellipse class="cls-2" cx="6944.94" cy="684.45" rx="5.23" ry="5.11"/>
      <ellipse class="cls-2" cx="6855.41" cy="612.36" rx="5.23" ry="5.11"/>
      <ellipse class="cls-2" cx="6833.71" cy="584.22" rx="5.23" ry="5.11"/>
      <ellipse class="cls-2" cx="6637.16" cy="773.99" rx="5.23" ry="5.11"/>
      <ellipse class="cls-2" cx="6541.09" cy="593.8" rx="5.23" ry="5.11"/>
      <ellipse class="cls-2" cx="6513.12" cy="633.71" rx="5.23" ry="5.11"/>
      <ellipse class="cls-2" cx="6471.26" cy="917.47" rx="5.23" ry="5.11"/>
      <ellipse class="cls-2" cx="6417.04" cy="777.37" rx="5.23" ry="5.11"/>
      <ellipse class="cls-2" cx="6208.38" cy="803.57" rx="5.23" ry="5.11"/>
      <ellipse class="cls-2" cx="6037.33" cy="584.59" rx="5.23" ry="5.11"/>
      <ellipse class="cls-2" cx="5985.76" cy="947.45" rx="5.23" ry="5.11"/>
      <ellipse class="cls-2" cx="5881" cy="435.33" rx="5.23" ry="5.11"/>
      <ellipse class="cls-2" cx="5663.46" cy="594.52" rx="5.23" ry="5.11"/>
      <ellipse class="cls-2" cx="5659.39" cy="636.13" rx="5.23" ry="5.11"/>
      <ellipse class="cls-2" cx="5509.03" cy="516.8" rx="5.23" ry="5.11"/>
      <ellipse class="cls-2" cx="5253.64" cy="437.58" rx="5.23" ry="5.11"/>
      <ellipse class="cls-2" cx="4997.28" cy="513.18" rx="5.23" ry="5.11"/>
      <ellipse class="cls-2" cx="4985.33" cy="828.97" rx="5.23" ry="5.11"/>
      <ellipse class="cls-2" cx="4804.94" cy="585.1" rx="5.23" ry="5.11"/>
      <ellipse class="cls-2" cx="4649.66" cy="508.05" rx="5.23" ry="5.11"/>
      <ellipse class="cls-2" cx="4454.78" cy="498.68" rx="5.23" ry="5.11"/>
      <ellipse class="cls-2" cx="4211.16" cy="518.56" rx="5.23" ry="5.11"/>
      <ellipse class="cls-2" cx="4180.29" cy="429.3" rx="5.23" ry="5.11"/>
      <ellipse class="cls-2" cx="4001.81" cy="880.36" rx="5.23" ry="5.11"/>
      <ellipse class="cls-2" cx="3781.52" cy="781.42" rx="5.23" ry="5.11"/>
      <ellipse class="cls-2" cx="3722.89" cy="799.65" rx="5.23" ry="5.11"/>
      <ellipse class="cls-2" cx="3622.35" cy="856.39" rx="5.23" ry="5.11"/>
      <ellipse class="cls-2" cx="3504.27" cy="773.33" rx="5.23" ry="5.11"/>
      <ellipse class="cls-2" cx="3322.48" cy="805.1" rx="5.23" ry="5.11"/>
      <ellipse class="cls-2" cx="3111.32" cy="804.63" rx="5.23" ry="5.11"/>
      <ellipse class="cls-2" cx="2893.4" cy="591.08" rx="5.23" ry="5.11"/>
      <ellipse class="cls-2" cx="2796.21" cy="826" rx="5.23" ry="5.11"/>
      <ellipse class="cls-2" cx="2788.18" cy="804.39" rx="5.23" ry="5.11"/>
      <ellipse class="cls-2" cx="2751.04" cy="586.47" rx="5.23" ry="5.11"/>
      <ellipse class="cls-2" cx="2737.35" cy="741.22" rx="5.23" ry="5.11"/>
      <ellipse class="cls-2" cx="2692.38" cy="644.15" rx="5.23" ry="5.11"/>
      <ellipse class="cls-2" cx="2618.96" cy="647.33" rx="5.23" ry="5.11"/>
      <ellipse class="cls-2" cx="2509.72" cy="688.34" rx="5.23" ry="5.11"/>
      <ellipse class="cls-2" cx="2504.65" cy="483.62" rx="5.23" ry="5.11"/>
      <ellipse class="cls-2" cx="2366.03" cy="609.93" rx="5.23" ry="5.11"/>
      <ellipse class="cls-2" cx="2244.81" cy="746.46" rx="5.23" ry="5.11"/>
      <ellipse class="cls-2" cx="2233.46" cy="784.42" rx="5.23" ry="5.11"/>
      <ellipse class="cls-2" cx="2055.57" cy="667.64" rx="5.23" ry="5.11"/>
      <ellipse class="cls-2" cx="1829.41" cy="470.81" rx="5.23" ry="5.11"/>
      <ellipse class="cls-2" cx="1757.97" cy="656.42" rx="5.23" ry="5.11"/>
      <ellipse class="cls-2" cx="1564.25" cy="438.67" rx="5.23" ry="5.11"/>
      <ellipse class="cls-2" cx="1517.37" cy="913.86" rx="5.23" ry="5.11"/>
      <ellipse class="cls-2" cx="1425.13" cy="665.91" rx="5.23" ry="5.11"/>
      <ellipse class="cls-2" cx="1218.22" cy="844.71" rx="5.23" ry="5.11"/>
      <ellipse class="cls-2" cx="982.05" cy="890.19" rx="5.23" ry="5.11"/>
      <ellipse class="cls-2" cx="948.51" cy="521.71" rx="5.23" ry="5.11"/>
      <ellipse class="cls-2" cx="837.84" cy="872.08" rx="5.23" ry="5.11"/>
      <ellipse class="cls-2" cx="717.7" cy="768.92" rx="5.23" ry="5.11"/>
      <ellipse class="cls-2" cx="552.31" cy="822.03" rx="5.23" ry="5.11"/>
      <ellipse class="cls-2" cx="430.86" cy="537.44" rx="5.23" ry="5.11"/>
      <ellipse class="cls-2" cx="205.46" cy="450.92" rx="5.23" ry="5.11"/>
      <ellipse class="cls-2" cx="10.76" cy="824.09" rx="5.23" ry="5.11"/>
      <ellipse class="cls-2" cx="0" cy="726.92" rx="5.23" ry="5.11"/>
    </g>
  </g>
  <g class="cls-1">
    <g>
      <ellipse class="cls-2" cx="47.65" cy="227.09" rx="5.23" ry="5.11"/>
      <ellipse class="cls-2" cx="231.6" cy="210.68" rx="5.23" ry="5.11"/>
      <ellipse class="cls-2" cx="356.5" cy="507.68" rx="5.23" ry="5.11"/>
      <ellipse class="cls-2" cx="499.56" cy="365.12" rx="5.23" ry="5.11"/>
      <ellipse class="cls-2" cx="610.59" cy="463.18" rx="5.23" ry="5.11"/>
      <ellipse class="cls-2" cx="822.93" cy="469.21" rx="5.23" ry="5.11"/>
      <ellipse class="cls-2" cx="840.22" cy="150.82" rx="5.23" ry="5.11"/>
      <ellipse class="cls-2" cx="1015.9" cy="117.21" rx="5.23" ry="5.11"/>
      <ellipse class="cls-2" cx="1094" cy="310.64" rx="5.23" ry="5.11"/>
      <ellipse class="cls-2" cx="1108.28" cy="443.2" rx="5.23" ry="5.11"/>
      <ellipse class="cls-2" cx="1268.34" cy="406.72" rx="5.23" ry="5.11"/>
      <ellipse class="cls-2" cx="1443.99" cy="577.27" rx="5.23" ry="5.11"/>
      <ellipse class="cls-2" cx="1666.26" cy="104.53" rx="5.23" ry="5.11"/>
      <ellipse class="cls-2" cx="1818.4" cy="557.92" rx="5.23" ry="5.11"/>
      <ellipse class="cls-2" cx="1932.5" cy="90.33" rx="5.23" ry="5.11"/>
      <ellipse class="cls-2" cx="2021.83" cy="341.87" rx="5.23" ry="5.11"/>
      <ellipse class="cls-2" cx="2095.07" cy="283.53" rx="5.23" ry="5.11"/>
      <ellipse class="cls-2" cx="2163.36" cy="277.69" rx="5.23" ry="5.11"/>
      <ellipse class="cls-2" cx="2262.13" cy="502" rx="5.23" ry="5.11"/>
      <ellipse class="cls-2" cx="2448.31" cy="94.59" rx="5.23" ry="5.11"/>
      <ellipse class="cls-2" cx="2501.74" cy="558.07" rx="5.23" ry="5.11"/>
      <ellipse class="cls-2" cx="2762.96" cy="454.33" rx="5.23" ry="5.11"/>
      <ellipse class="cls-2" cx="2888.47" cy="370.15" rx="5.23" ry="5.11"/>
      <ellipse class="cls-2" cx="2945.25" cy="270.17" rx="5.23" ry="5.11"/>
      <ellipse class="cls-2" cx="2955.09" cy="400.94" rx="5.23" ry="5.11"/>
      <ellipse class="cls-2" cx="3046.46" cy="554.65" rx="5.23" ry="5.11"/>
      <ellipse class="cls-2" cx="3273.72" cy="567.1" rx="5.23" ry="5.11"/>
      <ellipse class="cls-2" cx="3523.74" cy="187.42" rx="5.23" ry="5.11"/>
      <ellipse class="cls-2" cx="3771.73" cy="471.19" rx="5.23" ry="5.11"/>
      <ellipse class="cls-2" cx="3834.02" cy="246.05" rx="5.23" ry="5.11"/>
      <ellipse class="cls-2" cx="4084.62" cy="396.72" rx="5.23" ry="5.11"/>
      <ellipse class="cls-2" cx="4282.84" cy="103.64" rx="5.23" ry="5.11"/>
      <ellipse class="cls-2" cx="4397.96" cy="478.76" rx="5.23" ry="5.11"/>
      <ellipse class="cls-2" cx="4646.36" cy="151.58" rx="5.23" ry="5.11"/>
      <ellipse class="cls-2" cx="4871.49" cy="454.45" rx="5.23" ry="5.11"/>
      <ellipse class="cls-2" cx="5116.18" cy="212.65" rx="5.23" ry="5.11"/>
      <ellipse class="cls-2" cx="5200.82" cy="188.71" rx="5.23" ry="5.11"/>
      <ellipse class="cls-2" cx="5383.38" cy="206.27" rx="5.23" ry="5.11"/>
      <ellipse class="cls-2" cx="5446.39" cy="371.57" rx="5.23" ry="5.11"/>
      <ellipse class="cls-2" cx="5699.27" cy="301.97" rx="5.23" ry="5.11"/>
      <ellipse class="cls-2" cx="5885.14" cy="356.07" rx="5.23" ry="5.11"/>
      <ellipse class="cls-2" cx="5979.98" cy="584.43" rx="5.23" ry="5.11"/>
      <ellipse class="cls-2" cx="6106.34" cy="153.91" rx="5.23" ry="5.11"/>
      <ellipse class="cls-2" cx="6260.43" cy="513.24" rx="5.23" ry="5.11"/>
      <ellipse class="cls-2" cx="6477.25" cy="432.88" rx="5.23" ry="5.11"/>
      <ellipse class="cls-2" cx="6557.69" cy="357.08" rx="5.23" ry="5.11"/>
      <ellipse class="cls-2" cx="6646.77" cy="487.34" rx="5.23" ry="5.11"/>
      <ellipse class="cls-2" cx="6798.31" cy="465.71" rx="5.23" ry="5.11"/>
      <ellipse class="cls-2" cx="6867.69" cy="532.23" rx="5.23" ry="5.11"/>
      <ellipse class="cls-2" cx="6930.41" cy="97.42" rx="5.23" ry="5.11"/>
      <ellipse class="cls-2" cx="7027.04" cy="77.84" rx="5.23" ry="5.11"/>
      <ellipse class="cls-2" cx="7051.37" cy="494.15" rx="5.23" ry="5.11"/>
      <ellipse class="cls-2" cx="7117.74" cy="226.87" rx="5.23" ry="5.11"/>
      <ellipse class="cls-2" cx="7371" cy="78.77" rx="5.23" ry="5.11"/>
      <ellipse class="cls-2" cx="7456.66" cy="332.22" rx="5.23" ry="5.11"/>
      <ellipse class="cls-2" cx="7644.65" cy="106.51" rx="5.23" ry="5.11"/>
      <ellipse class="cls-2" cx="7652.45" cy="154.14" rx="5.23" ry="5.11"/>
    </g>
  </g>
  <g class="cls-1">
    <g>
      <path class="cls-2" d="m211.56,271c0-.68-1.47-1.28-3.76-1.67-1.71-.29-2.98-1.34-3.18-2.61-.5-3.08-1.57-5.21-2.81-5.21s-2.31,2.13-2.81,5.21c-.21,1.28-1.47,2.33-3.18,2.61-2.29.39-3.76.99-3.76,1.67s1.52,1.3,3.86,1.69c1.67.27,2.95,1.27,3.2,2.51.54,2.71,1.54,4.53,2.68,4.53s2.15-1.82,2.68-4.53c.25-1.24,1.53-2.24,3.2-2.51,2.35-.39,3.86-1,3.86-1.69Z"/>
      <path class="cls-2" d="m907.94,1007.52c0-.59-1.29-1.12-3.29-1.46-1.5-.25-2.61-1.17-2.79-2.29-.44-2.7-1.37-4.56-2.46-4.56s-2.02,1.86-2.46,4.56c-.18,1.12-1.29,2.04-2.79,2.29-2,.34-3.29.87-3.29,1.46s1.33,1.14,3.38,1.48c1.46.24,2.59,1.11,2.8,2.2.47,2.37,1.35,3.97,2.35,3.97s1.88-1.59,2.35-3.97c.22-1.09,1.34-1.96,2.8-2.2,2.06-.34,3.38-.87,3.38-1.48Z"/>
      <path class="cls-2" d="m1135.55,480.9c0-.78-1.69-1.48-4.33-1.92-1.97-.33-3.43-1.54-3.67-3.01-.57-3.55-1.81-6-3.23-6s-2.66,2.45-3.23,6c-.24,1.47-1.7,2.68-3.67,3.01-2.63.45-4.33,1.14-4.33,1.92s1.75,1.5,4.45,1.94c1.92.32,3.4,1.46,3.69,2.89.62,3.12,1.77,5.22,3.09,5.22s2.47-2.1,3.09-5.22c.28-1.43,1.77-2.58,3.69-2.89,2.7-.45,4.45-1.15,4.45-1.94Z"/>
      <path class="cls-2" d="m1481.56,185.92c0-.55-1.19-1.04-3.03-1.35-1.38-.23-2.4-1.08-2.57-2.11-.4-2.48-1.27-4.2-2.27-4.2s-1.86,1.72-2.27,4.2c-.17,1.03-1.19,1.88-2.57,2.11-1.85.31-3.03.8-3.03,1.35s1.22,1.05,3.12,1.36c1.35.22,2.38,1.03,2.58,2.03.43,2.19,1.24,3.66,2.17,3.66s1.73-1.47,2.17-3.66c.2-1,1.24-1.8,2.58-2.03,1.89-.31,3.12-.81,3.12-1.36Z"/>
      <path class="cls-2" d="m1556.6,422.55c0-.81-1.75-1.53-4.47-1.99-2.03-.34-3.54-1.59-3.79-3.11-.59-3.66-1.87-6.2-3.34-6.2s-2.75,2.53-3.34,6.2c-.25,1.52-1.75,2.77-3.79,3.11-2.72.46-4.47,1.18-4.47,1.99s1.8,1.55,4.6,2.01c1.98.33,3.51,1.51,3.81,2.99.64,3.22,1.83,5.39,3.2,5.39s2.55-2.17,3.2-5.39c.29-1.48,1.82-2.66,3.81-2.99,2.79-.46,4.6-1.19,4.6-2.01Z"/>
      <path class="cls-2" d="m1603.32,124.77c0-.8-1.74-1.52-4.45-1.98-2.02-.34-3.52-1.58-3.77-3.1-.59-3.64-1.86-6.16-3.32-6.16s-2.73,2.52-3.32,6.16c-.24,1.51-1.74,2.75-3.77,3.1-2.71.46-4.45,1.17-4.45,1.98s1.79,1.54,4.57,2c1.97.32,3.49,1.5,3.79,2.97.64,3.21,1.82,5.36,3.18,5.36s2.54-2.15,3.18-5.36c.29-1.47,1.81-2.65,3.79-2.97,2.78-.46,4.57-1.18,4.57-2Z"/>
      <path class="cls-2" d="m2154.44,129.42c0-.55-1.19-1.04-3.04-1.35-1.38-.23-2.41-1.08-2.57-2.12-.4-2.49-1.27-4.21-2.27-4.21s-1.87,1.72-2.27,4.21c-.17,1.03-1.19,1.88-2.57,2.12-1.85.31-3.04.8-3.04,1.35s1.23,1.05,3.12,1.36c1.35.22,2.39,1.03,2.59,2.03.44,2.19,1.24,3.66,2.17,3.66s1.74-1.47,2.17-3.66c.2-1,1.24-1.81,2.59-2.03,1.9-.31,3.12-.81,3.12-1.36Z"/>
      <path class="cls-2" d="m2575.24,133.22c0-.55-1.2-1.05-3.06-1.36-1.39-.24-2.43-1.09-2.59-2.13-.41-2.51-1.28-4.24-2.29-4.24s-1.88,1.73-2.29,4.24c-.17,1.04-1.2,1.9-2.59,2.13-1.86.32-3.06.81-3.06,1.36s1.24,1.06,3.15,1.38c1.36.22,2.41,1.04,2.61,2.05.44,2.21,1.25,3.69,2.19,3.69s1.75-1.48,2.19-3.69c.2-1.01,1.25-1.82,2.61-2.05,1.91-.31,3.15-.81,3.15-1.38Z"/>
      <path class="cls-2" d="m2932.78,919.68c0-.54-1.18-1.03-3.01-1.34-1.37-.23-2.39-1.07-2.55-2.1-.4-2.47-1.26-4.18-2.25-4.18s-1.85,1.71-2.25,4.18c-.17,1.02-1.18,1.87-2.55,2.1-1.83.31-3.01.8-3.01,1.34s1.22,1.04,3.1,1.35c1.34.22,2.37,1.02,2.57,2.01.43,2.17,1.23,3.63,2.15,3.63s1.72-1.46,2.15-3.63c.2-.99,1.23-1.79,2.57-2.01,1.88-.31,3.1-.8,3.1-1.35Z"/>
      <path class="cls-2" d="m3491.34,576.08c0-.55-1.19-1.04-3.05-1.35-1.39-.23-2.41-1.08-2.58-2.12-.4-2.49-1.27-4.22-2.27-4.22s-1.87,1.73-2.27,4.22c-.17,1.04-1.19,1.89-2.58,2.12-1.85.31-3.05.8-3.05,1.35s1.23,1.05,3.13,1.37c1.35.22,2.39,1.03,2.59,2.03.44,2.2,1.25,3.67,2.18,3.67s1.74-1.48,2.18-3.67c.2-1,1.24-1.81,2.59-2.03,1.9-.31,3.13-.81,3.13-1.37Z"/>
      <path class="cls-2" d="m3691.14,970.79c0-.49-1.07-.93-2.73-1.21-1.24-.21-2.16-.97-2.31-1.9-.36-2.24-1.14-3.78-2.04-3.78s-1.68,1.55-2.04,3.78c-.15.93-1.07,1.69-2.31,1.9-1.66.28-2.73.72-2.73,1.21s1.1.95,2.81,1.23c1.21.2,2.15.92,2.32,1.82.39,1.97,1.12,3.29,1.95,3.29s1.56-1.32,1.95-3.29c.18-.9,1.11-1.62,2.32-1.82,1.71-.28,2.81-.73,2.81-1.23Z"/>
      <path class="cls-2" d="m3846.84,887.46c0-.87-1.89-1.65-4.83-2.15-2.2-.37-3.83-1.72-4.09-3.36-.64-3.96-2.01-6.69-3.61-6.69s-2.97,2.74-3.61,6.69c-.27,1.64-1.89,2.99-4.09,3.36-2.94.5-4.83,1.27-4.83,2.15s1.95,1.67,4.97,2.17c2.14.35,3.79,1.63,4.11,3.23.69,3.48,1.98,5.82,3.45,5.82s2.76-2.34,3.45-5.82c.32-1.59,1.97-2.87,4.11-3.23,3.02-.5,4.97-1.28,4.97-2.17Z"/>
      <path class="cls-2" d="m4128.02,895.52c0-.7-1.52-1.32-3.87-1.72-1.76-.3-3.07-1.38-3.28-2.69-.51-3.17-1.61-5.36-2.89-5.36s-2.38,2.19-2.89,5.36c-.21,1.32-1.52,2.4-3.28,2.69-2.36.4-3.87,1.02-3.87,1.72s1.56,1.34,3.98,1.74c1.72.28,3.04,1.31,3.3,2.59.55,2.79,1.59,4.67,2.77,4.67s2.21-1.88,2.77-4.67c.25-1.28,1.58-2.3,3.3-2.59,2.42-.4,3.98-1.03,3.98-1.74Z"/>
      <path class="cls-2" d="m4831.64,502.67c0-.74-1.59-1.39-4.07-1.81-1.85-.31-3.23-1.45-3.45-2.83-.54-3.34-1.7-5.64-3.04-5.64s-2.5,2.31-3.04,5.64c-.22,1.38-1.6,2.52-3.45,2.83-2.48.42-4.07,1.07-4.07,1.81s1.64,1.41,4.19,1.83c1.81.3,3.2,1.38,3.47,2.72.58,2.94,1.67,4.91,2.91,4.91s2.33-1.97,2.91-4.91c.27-1.34,1.66-2.42,3.47-2.72,2.54-.42,4.19-1.08,4.19-1.83Z"/>
      <path class="cls-2" d="m5365.54,744.08c0-.88-1.9-1.66-4.86-2.16-2.21-.37-3.85-1.73-4.11-3.38-.64-3.98-2.03-6.73-3.63-6.73s-2.98,2.75-3.63,6.73c-.27,1.65-1.91,3.01-4.11,3.38-2.96.5-4.86,1.28-4.86,2.16s1.96,1.68,4.99,2.18c2.15.35,3.82,1.64,4.13,3.25.7,3.5,1.99,5.85,3.47,5.85s2.77-2.35,3.47-5.85c.32-1.6,1.98-2.89,4.13-3.25,3.03-.5,4.99-1.29,4.99-2.18Z"/>
      <path class="cls-2" d="m5831.07,212.29c0-.53-1.14-.99-2.91-1.29-1.32-.22-2.3-1.04-2.46-2.02-.39-2.38-1.21-4.03-2.17-4.03s-1.79,1.65-2.17,4.03c-.16.99-1.14,1.8-2.46,2.02-1.77.3-2.91.77-2.91,1.29s1.17,1.01,2.99,1.31c1.29.21,2.29.98,2.48,1.94.42,2.1,1.19,3.51,2.08,3.51s1.66-1.41,2.08-3.51c.19-.96,1.19-1.73,2.48-1.94,1.82-.3,2.99-.77,2.99-1.31Z"/>
      <path class="cls-2" d="m6293.32,782.22c0-.56-1.22-1.07-3.12-1.39-1.42-.24-2.47-1.11-2.65-2.17-.41-2.56-1.3-4.33-2.33-4.33s-1.92,1.77-2.33,4.33c-.17,1.06-1.23,1.93-2.65,2.17-1.9.32-3.12.82-3.12,1.39s1.26,1.08,3.21,1.4c1.39.23,2.45,1.06,2.66,2.09.45,2.25,1.28,3.76,2.23,3.76s1.78-1.51,2.23-3.76c.2-1.03,1.27-1.86,2.66-2.09,1.95-.32,3.21-.83,3.21-1.4Z"/>
      <path class="cls-2" d="m6766.09,104.19c0-.84-1.83-1.6-4.68-2.08-2.13-.36-3.7-1.67-3.96-3.25-.62-3.83-1.95-6.48-3.49-6.48s-2.87,2.65-3.49,6.48c-.26,1.59-1.83,2.89-3.96,3.25-2.85.48-4.68,1.23-4.68,2.08s1.89,1.62,4.81,2.1c2.07.34,3.67,1.58,3.98,3.12.67,3.37,1.91,5.64,3.34,5.64s2.67-2.27,3.34-5.64c.31-1.54,1.91-2.78,3.98-3.12,2.92-.48,4.81-1.24,4.81-2.1Z"/>
      <path class="cls-2" d="m6777.03,230.27c0-.65-1.41-1.23-3.61-1.6-1.64-.28-2.86-1.29-3.06-2.51-.48-2.96-1.51-5-2.7-5s-2.22,2.05-2.7,5c-.2,1.23-1.42,2.24-3.06,2.51-2.2.37-3.61.95-3.61,1.6s1.46,1.25,3.71,1.62c1.6.26,2.84,1.22,3.07,2.41.52,2.6,1.48,4.35,2.58,4.35s2.06-1.75,2.58-4.35c.24-1.19,1.47-2.15,3.07-2.41,2.26-.37,3.71-.96,3.71-1.62Z"/>
      <path class="cls-2" d="m6865.42,255.65c0-.79-1.72-1.5-4.4-1.95-2-.34-3.48-1.57-3.72-3.06-.58-3.6-1.83-6.09-3.28-6.09s-2.7,2.49-3.28,6.09c-.24,1.49-1.72,2.72-3.72,3.06-2.68.45-4.4,1.16-4.4,1.95s1.77,1.52,4.52,1.97c1.95.32,3.45,1.49,3.74,2.94.63,3.17,1.8,5.3,3.14,5.3s2.51-2.13,3.14-5.3c.29-1.45,1.79-2.62,3.74-2.94,2.75-.45,4.52-1.17,4.52-1.97Z"/>
      <path class="cls-2" d="m6893.23,435c0-.6-1.29-1.13-3.3-1.47-1.5-.25-2.62-1.18-2.8-2.3-.44-2.71-1.38-4.58-2.47-4.58s-2.03,1.87-2.47,4.58c-.18,1.12-1.3,2.04-2.8,2.3-2.01.34-3.3.87-3.3,1.47s1.33,1.14,3.4,1.48c1.47.24,2.6,1.12,2.81,2.21.47,2.38,1.35,3.98,2.36,3.98s1.89-1.6,2.36-3.98c.22-1.09,1.35-1.97,2.81-2.21,2.06-.34,3.4-.88,3.4-1.48Z"/>
      <path class="cls-2" d="m7331.13,103.56c0-.78-1.69-1.47-4.32-1.92-1.96-.33-3.42-1.54-3.66-3.01-.57-3.54-1.8-5.98-3.22-5.98s-2.65,2.45-3.22,5.98c-.24,1.47-1.69,2.67-3.66,3.01-2.63.44-4.32,1.14-4.32,1.92s1.74,1.5,4.44,1.94c1.92.32,3.39,1.46,3.68,2.88.62,3.11,1.77,5.2,3.08,5.2s2.47-2.09,3.08-5.2c.28-1.42,1.76-2.57,3.68-2.88,2.7-.44,4.44-1.15,4.44-1.94Z"/>
    </g>
  </g>
</svg>