<?xml version="1.0" encoding="UTF-8"?>
<svg id="Layer_1" data-name="Layer 1" xmlns="http://www.w3.org/2000/svg" viewBox="0 0 7684 1080">
  <defs>
    <style>
      .cls-1 {
        opacity: .25;
      }

      .cls-2 {
        stroke-width: 0px;
      }
    </style>
  </defs>
  <g class="cls-1">
    <g>
      <path class="cls-2" d="m25.37,770.08c0-.3-.64-.56-1.63-.73-.74-.13-1.29-.58-1.38-1.14-.22-1.34-.68-2.26-1.22-2.26s-1,.93-1.22,2.26c-.09.56-.64,1.01-1.38,1.14-.99.17-1.63.43-1.63.73s.66.57,1.68.73c.72.12,1.28.55,1.39,1.09.23,1.18.67,1.97,1.17,1.97s.93-.79,1.17-1.97c.11-.54.67-.97,1.39-1.09,1.02-.17,1.68-.43,1.68-.73Z"/>
      <path class="cls-2" d="m38.31,298.75c0-.06-.12-.11-.32-.14-.14-.02-.25-.11-.27-.22-.04-.26-.13-.44-.24-.44s-.2.18-.24.44c-.02.11-.12.2-.27.22-.19.03-.32.08-.32.14s.13.11.33.14c.14.02.25.11.27.21.05.23.13.38.23.38s.18-.15.23-.38c.02-.1.13-.19.27-.21.2-.03.33-.08.33-.14Z"/>
      <path class="cls-2" d="m100.25,652.74c0-.28-.6-.52-1.53-.68-.69-.12-1.21-.54-1.29-1.06-.2-1.25-.64-2.12-1.14-2.12s-.94.87-1.14,2.12c-.08.52-.6.95-1.29,1.06-.93.16-1.53.4-1.53.68s.62.53,1.57.69c.68.11,1.2.52,1.3,1.02.22,1.1.63,1.84,1.09,1.84s.87-.74,1.09-1.84c.1-.5.62-.91,1.3-1.02.95-.16,1.57-.41,1.57-.69Z"/>
      <path class="cls-2" d="m139.08,211.62c0-.34-.75-.65-1.91-.85-.87-.15-1.51-.68-1.62-1.33-.25-1.56-.8-2.64-1.42-2.64s-1.17,1.08-1.42,2.64c-.1.65-.75,1.18-1.62,1.33-1.16.2-1.91.5-1.91.85s.77.66,1.96.86c.85.14,1.5.65,1.62,1.27.27,1.38.78,2.3,1.36,2.3s1.09-.92,1.36-2.3c.13-.63.78-1.14,1.62-1.27,1.19-.2,1.96-.51,1.96-.86Z"/>
      <path class="cls-2" d="m203.72,8.21c0-.13-.29-.25-.73-.33-.33-.06-.58-.26-.62-.51-.1-.6-.31-1.02-.55-1.02s-.45.42-.55,1.02c-.04.25-.29.45-.62.51-.45.08-.73.19-.73.33s.3.25.75.33c.33.05.58.25.62.49.11.53.3.88.52.88s.42-.36.52-.88c.05-.24.3-.44.62-.49.46-.08.75-.19.75-.33Z"/>
      <path class="cls-2" d="m235.2,85.78c0-.15-.33-.29-.85-.38-.39-.07-.67-.3-.72-.59-.11-.7-.36-1.18-.64-1.18s-.52.48-.64,1.18c-.05.29-.33.53-.72.59-.52.09-.85.22-.85.38s.34.3.88.38c.38.06.67.29.73.57.12.61.35,1.03.61,1.03s.49-.41.61-1.03c.06-.28.35-.51.73-.57.53-.09.88-.23.88-.38Z"/>
      <path class="cls-2" d="m265.66,897.3c0-.16-.34-.29-.86-.38-.39-.07-.68-.31-.73-.6-.11-.71-.36-1.19-.64-1.19s-.53.49-.64,1.19c-.05.29-.34.53-.73.6-.52.09-.86.23-.86.38s.35.3.89.39c.38.06.68.29.73.58.12.62.35,1.04.62,1.04s.49-.42.62-1.04c.06-.28.35-.51.73-.58.54-.09.89-.23.89-.39Z"/>
      <path class="cls-2" d="m291.51,95.78c0-.27-.59-.51-1.5-.67-.68-.12-1.19-.53-1.27-1.04-.2-1.23-.63-2.08-1.12-2.08s-.92.85-1.12,2.08c-.08.51-.59.93-1.27,1.04-.91.15-1.5.4-1.5.67s.61.52,1.54.67c.67.11,1.18.51,1.28,1,.21,1.08.61,1.81,1.07,1.81s.86-.73,1.07-1.81c.1-.49.61-.89,1.28-1,.94-.15,1.54-.4,1.54-.67Z"/>
      <path class="cls-2" d="m381.92,48.65c0-.17-.38-.33-.97-.43-.44-.07-.77-.34-.82-.67-.13-.79-.4-1.34-.72-1.34s-.59.55-.72,1.34c-.05.33-.38.6-.82.67-.59.1-.97.26-.97.43s.39.34,1,.43c.43.07.76.33.82.65.14.7.4,1.17.69,1.17s.55-.47.69-1.17c.06-.32.39-.58.82-.65.6-.1,1-.26,1-.43Z"/>
      <path class="cls-2" d="m474.69,939.29c0-.12-.26-.23-.66-.29-.3-.05-.52-.24-.56-.46-.09-.54-.28-.92-.49-.92s-.41.37-.49.92c-.04.22-.26.41-.56.46-.4.07-.66.17-.66.29s.27.23.68.3c.29.05.52.22.56.44.09.48.27.8.47.8s.38-.32.47-.8c.04-.22.27-.39.56-.44.41-.07.68-.18.68-.3Z"/>
      <path class="cls-2" d="m569.9,1026.07c0-.23-.5-.44-1.28-.57-.58-.1-1.01-.45-1.08-.89-.17-1.05-.53-1.77-.95-1.77s-.78.72-.95,1.77c-.07.43-.5.79-1.08.89-.78.13-1.28.34-1.28.57s.51.44,1.31.57c.57.09,1,.43,1.09.85.18.92.52,1.54.91,1.54s.73-.62.91-1.54c.08-.42.52-.76,1.09-.85.8-.13,1.31-.34,1.31-.57Z"/>
      <path class="cls-2" d="m645.55,324.18c0-.34-.73-.63-1.86-.82-.84-.14-1.47-.66-1.57-1.29-.25-1.52-.77-2.57-1.39-2.57s-1.14,1.05-1.39,2.57c-.1.63-.73,1.15-1.57,1.29-1.13.19-1.86.49-1.86.82s.75.64,1.91.83c.82.14,1.46.63,1.58,1.24.27,1.34.76,2.24,1.33,2.24s1.06-.9,1.33-2.24c.12-.61.76-1.1,1.58-1.24,1.16-.19,1.91-.49,1.91-.83Z"/>
      <path class="cls-2" d="m663.7,788.73c0-.09-.19-.17-.49-.22-.22-.04-.39-.17-.42-.34-.07-.4-.2-.68-.37-.68s-.3.28-.37.68c-.03.17-.19.3-.42.34-.3.05-.49.13-.49.22s.2.17.5.22c.22.04.39.17.42.33.07.35.2.59.35.59s.28-.24.35-.59c.03-.16.2-.29.42-.33.31-.05.5-.13.5-.22Z"/>
      <path class="cls-2" d="m753.53,899.51c0-.32-.7-.61-1.78-.79-.81-.14-1.41-.63-1.51-1.24-.24-1.46-.74-2.47-1.33-2.47s-1.09,1.01-1.33,2.47c-.1.61-.7,1.1-1.51,1.24-1.08.18-1.78.47-1.78.79s.72.62,1.83.8c.79.13,1.4.6,1.52,1.19.26,1.28.73,2.15,1.27,2.15s1.02-.86,1.27-2.15c.12-.59.73-1.06,1.52-1.19,1.11-.18,1.83-.47,1.83-.8Z"/>
      <path class="cls-2" d="m819.77,607.9c0-.1-.23-.2-.58-.26-.26-.04-.46-.21-.49-.4-.08-.47-.24-.8-.43-.8s-.36.33-.43.8c-.03.2-.23.36-.49.4-.35.06-.58.15-.58.26s.23.2.6.26c.26.04.46.2.49.39.08.42.24.7.41.7s.33-.28.41-.7c.04-.19.24-.35.49-.39.36-.06.6-.15.6-.26Z"/>
      <path class="cls-2" d="m875.05,87.21c0-.16-.35-.3-.88-.39-.4-.07-.7-.32-.75-.62-.12-.72-.37-1.23-.66-1.23s-.54.5-.66,1.23c-.05.3-.35.55-.75.62-.54.09-.88.23-.88.39s.36.31.91.4c.39.06.69.3.75.59.13.64.36,1.07.63,1.07s.51-.43.63-1.07c.06-.29.36-.53.75-.59.55-.09.91-.24.91-.4Z"/>
      <path class="cls-2" d="m954.89,450.1c0-.09-.2-.18-.52-.23-.23-.04-.41-.18-.44-.36-.07-.42-.21-.71-.38-.71s-.32.29-.38.71c-.03.18-.2.32-.44.36-.31.05-.52.14-.52.23s.21.18.53.23c.23.04.4.17.44.34.07.37.21.62.37.62s.29-.25.37-.62c.03-.17.21-.31.44-.34.32-.05.53-.14.53-.23Z"/>
      <path class="cls-2" d="m981.47,720.34c0-.2-.43-.37-1.09-.48-.5-.08-.86-.39-.92-.76-.14-.89-.46-1.51-.81-1.51s-.67.62-.81,1.51c-.06.37-.43.68-.92.76-.66.11-1.09.29-1.09.48s.44.38,1.12.49c.48.08.86.37.93.73.16.79.45,1.31.78,1.31s.62-.53.78-1.31c.07-.36.44-.65.93-.73.68-.11,1.12-.29,1.12-.49Z"/>
      <path class="cls-2" d="m998.48,881.67c0-.33-.72-.62-1.83-.81-.83-.14-1.45-.65-1.55-1.27-.24-1.5-.76-2.53-1.37-2.53s-1.12,1.04-1.37,2.53c-.1.62-.72,1.13-1.55,1.27-1.11.19-1.83.48-1.83.81s.74.63,1.88.82c.81.13,1.44.62,1.56,1.22.26,1.32.75,2.2,1.31,2.2s1.04-.89,1.31-2.2c.12-.6.75-1.09,1.56-1.22,1.14-.19,1.88-.49,1.88-.82Z"/>
      <path class="cls-2" d="m1125.53,531.58c0-.35-.76-.66-1.93-.86-.88-.15-1.53-.69-1.64-1.34-.26-1.58-.81-2.68-1.44-2.68s-1.19,1.09-1.44,2.68c-.11.66-.76,1.2-1.64,1.34-1.18.2-1.93.51-1.93.86s.78.67,1.99.87c.86.14,1.52.65,1.64,1.29.28,1.39.79,2.33,1.38,2.33s1.1-.94,1.38-2.33c.13-.64.79-1.15,1.64-1.29,1.21-.2,1.99-.51,1.99-.87Z"/>
      <path class="cls-2" d="m1135.09,529.08c0-.2-.43-.37-1.09-.48-.49-.08-.86-.39-.92-.76-.14-.89-.45-1.51-.81-1.51s-.67.62-.81,1.51c-.06.37-.43.67-.92.76-.66.11-1.09.29-1.09.48s.44.38,1.12.49c.48.08.85.37.93.73.16.78.45,1.31.78,1.31s.62-.53.78-1.31c.07-.36.44-.65.93-.73.68-.11,1.12-.29,1.12-.49Z"/>
      <path class="cls-2" d="m1211.39,370.74c0-.15-.33-.29-.84-.37-.38-.06-.66-.3-.71-.58-.11-.68-.35-1.16-.62-1.16s-.51.47-.62,1.16c-.05.28-.33.52-.71.58-.51.09-.84.22-.84.37s.34.29.86.38c.37.06.66.28.71.56.12.6.34,1.01.6,1.01s.48-.41.6-1.01c.05-.28.34-.5.71-.56.52-.09.86-.22.86-.38Z"/>
      <path class="cls-2" d="m1227.14,277.65c0-.24-.53-.46-1.34-.6-.61-.1-1.06-.48-1.14-.94-.18-1.1-.56-1.86-1-1.86s-.83.76-1,1.86c-.07.46-.53.83-1.14.94-.82.14-1.34.35-1.34.6s.54.47,1.38.6c.6.1,1.06.45,1.14.9.19.97.55,1.62.96,1.62s.77-.65.96-1.62c.09-.44.55-.8,1.14-.9.84-.14,1.38-.36,1.38-.6Z"/>
      <path class="cls-2" d="m1281.07,992.11c0-.31-.67-.58-1.71-.76-.78-.13-1.36-.61-1.45-1.19-.23-1.4-.71-2.37-1.28-2.37s-1.05.97-1.28,2.37c-.09.58-.67,1.06-1.45,1.19-1.04.18-1.71.45-1.71.76s.69.59,1.76.77c.76.13,1.34.58,1.46,1.14.25,1.23.7,2.06,1.22,2.06s.98-.83,1.22-2.06c.11-.56.7-1.02,1.46-1.14,1.07-.18,1.76-.45,1.76-.77Z"/>
      <path class="cls-2" d="m1293.92,708.72c0-.09-.2-.17-.51-.23-.23-.04-.4-.18-.43-.35-.07-.42-.21-.7-.38-.7s-.31.29-.38.7c-.03.17-.2.31-.43.35-.31.05-.51.13-.51.23s.2.18.52.23c.23.04.4.17.43.34.07.37.21.61.36.61s.29-.25.36-.61c.03-.17.21-.3.43-.34.32-.05.52-.13.52-.23Z"/>
      <path class="cls-2" d="m1364.11,587.73c0-.13-.28-.25-.72-.32-.33-.06-.57-.26-.61-.5-.1-.59-.3-1-.54-1s-.45.41-.54,1c-.04.25-.28.45-.61.5-.44.07-.72.19-.72.32s.29.25.74.33c.32.05.57.25.62.48.1.52.3.87.52.87s.41-.35.52-.87c.05-.24.3-.43.62-.48.45-.07.74-.19.74-.33Z"/>
      <path class="cls-2" d="m1457.19,498.08c0-.12-.27-.23-.69-.31-.31-.05-.54-.24-.58-.48-.09-.56-.29-.95-.51-.95s-.42.39-.51.95c-.04.23-.27.43-.58.48-.42.07-.69.18-.69.31s.28.24.71.31c.3.05.54.23.58.46.1.5.28.83.49.83s.39-.33.49-.83c.05-.23.28-.41.58-.46.43-.07.71-.18.71-.31Z"/>
      <path class="cls-2" d="m1482.31,681.34c0-.19-.42-.37-1.07-.48-.49-.08-.85-.38-.91-.75-.14-.88-.45-1.49-.8-1.49s-.66.61-.8,1.49c-.06.37-.42.67-.91.75-.65.11-1.07.28-1.07.48s.43.37,1.11.48c.48.08.84.36.92.72.15.77.44,1.3.77,1.3s.61-.52.77-1.3c.07-.35.44-.64.92-.72.67-.11,1.11-.29,1.11-.48Z"/>
      <path class="cls-2" d="m1555.68,340.43c0-.18-.4-.35-1.02-.45-.47-.08-.81-.36-.87-.71-.14-.84-.43-1.42-.76-1.42s-.63.58-.76,1.42c-.06.35-.4.63-.87.71-.62.11-1.02.27-1.02.45s.41.35,1.05.46c.45.07.8.35.87.68.15.74.42,1.23.73,1.23s.58-.5.73-1.23c.07-.34.42-.61.87-.68.64-.11,1.05-.27,1.05-.46Z"/>
      <path class="cls-2" d="m1645.52,799.38c0-.1-.22-.19-.56-.25-.25-.04-.44-.2-.47-.39-.07-.46-.23-.78-.42-.78s-.34.32-.42.78c-.03.19-.22.35-.47.39-.34.06-.56.15-.56.25s.23.19.58.25c.25.04.44.19.48.37.08.4.23.68.4.68s.32-.27.4-.68c.04-.18.23-.33.48-.37.35-.06.58-.15.58-.25Z"/>
      <path class="cls-2" d="m1658.93,842.48c0-.2-.43-.38-1.11-.49-.5-.09-.88-.4-.94-.77-.15-.91-.46-1.54-.83-1.54s-.68.63-.83,1.54c-.06.38-.44.69-.94.77-.68.11-1.11.29-1.11.49s.45.38,1.14.5c.49.08.87.38.95.74.16.8.45,1.34.79,1.34s.63-.54.79-1.34c.07-.37.45-.66.95-.74.69-.11,1.14-.3,1.14-.5Z"/>
      <path class="cls-2" d="m1746.16,653.07c0-.21-.46-.4-1.18-.53-.54-.09-.94-.42-1-.82-.16-.97-.49-1.64-.88-1.64s-.73.67-.88,1.64c-.07.4-.46.73-1,.82-.72.12-1.18.31-1.18.53s.48.41,1.21.53c.52.09.93.4,1.01.79.17.85.48,1.42.84,1.42s.68-.57.84-1.42c.08-.39.48-.7,1.01-.79.74-.12,1.21-.31,1.21-.53Z"/>
      <path class="cls-2" d="m1821.73,675.07c0-.12-.27-.24-.69-.31-.31-.05-.55-.25-.59-.48-.09-.57-.29-.96-.52-.96s-.43.39-.52.96c-.04.24-.27.43-.59.48-.42.07-.69.18-.69.31s.28.24.71.31c.31.05.54.23.59.46.1.5.28.83.49.83s.4-.34.49-.83c.05-.23.28-.41.59-.46.43-.07.71-.18.71-.31Z"/>
      <path class="cls-2" d="m1847.04,575.17c0-.33-.71-.62-1.82-.81-.83-.14-1.44-.65-1.54-1.27-.24-1.49-.76-2.52-1.36-2.52s-1.12,1.03-1.36,2.52c-.1.62-.71,1.13-1.54,1.27-1.11.19-1.82.48-1.82.81s.73.63,1.87.82c.81.13,1.43.62,1.55,1.22.26,1.31.75,2.19,1.3,2.19s1.04-.88,1.3-2.19c.12-.6.74-1.08,1.55-1.22,1.14-.19,1.87-.48,1.87-.82Z"/>
      <path class="cls-2" d="m1861.34,804.65c0-.32-.68-.6-1.75-.78-.79-.13-1.38-.62-1.48-1.22-.23-1.43-.73-2.42-1.3-2.42s-1.07.99-1.3,2.42c-.1.59-.69,1.08-1.48,1.22-1.06.18-1.75.46-1.75.78s.7.6,1.8.78c.77.13,1.37.59,1.49,1.17.25,1.26.72,2.11,1.25,2.11s1-.85,1.25-2.11c.11-.58.71-1.04,1.49-1.17,1.09-.18,1.8-.46,1.8-.78Z"/>
      <path class="cls-2" d="m1877.31,809.3c0-.27-.58-.51-1.49-.66-.68-.12-1.18-.53-1.26-1.04-.2-1.22-.62-2.07-1.12-2.07s-.92.85-1.12,2.07c-.08.51-.59.92-1.26,1.04-.91.15-1.49.39-1.49.66s.6.52,1.54.67c.66.11,1.17.51,1.27,1,.21,1.08.61,1.8,1.07,1.8s.85-.72,1.07-1.8c.1-.49.61-.89,1.27-1,.93-.15,1.54-.4,1.54-.67Z"/>
      <path class="cls-2" d="m1949.05,481.75c0-.14-.3-.26-.76-.34-.34-.06-.6-.27-.64-.53-.1-.62-.32-1.05-.57-1.05s-.47.43-.57,1.05c-.04.26-.3.47-.64.53-.46.08-.76.2-.76.34s.31.26.78.34c.34.06.6.26.65.51.11.55.31.91.54.91s.43-.37.54-.91c.05-.25.31-.45.65-.51.47-.08.78-.2.78-.34Z"/>
      <path class="cls-2" d="m2027.96,254.33c0-.06-.13-.12-.34-.15-.15-.03-.27-.12-.29-.23-.04-.28-.14-.47-.25-.47s-.21.19-.25.47c-.02.11-.13.21-.29.23-.21.03-.34.09-.34.15s.14.12.35.15c.15.02.26.11.29.23.05.24.14.41.24.41s.19-.16.24-.41c.02-.11.14-.2.29-.23.21-.03.35-.09.35-.15Z"/>
      <path class="cls-2" d="m2089.1,509.85c0-.18-.39-.34-1-.45-.46-.08-.79-.36-.85-.7-.13-.82-.42-1.39-.75-1.39s-.62.57-.75,1.39c-.06.34-.39.62-.85.7-.61.1-1,.26-1,.45s.4.35,1.03.45c.44.07.79.34.85.67.14.72.41,1.21.72,1.21s.57-.49.72-1.21c.07-.33.41-.6.85-.67.63-.1,1.03-.27,1.03-.45Z"/>
      <path class="cls-2" d="m2122.57,799.45c0-.23-.49-.43-1.26-.56-.57-.1-1-.45-1.07-.88-.17-1.03-.53-1.75-.94-1.75s-.77.71-.94,1.75c-.07.43-.49.78-1.07.88-.77.13-1.26.33-1.26.56s.51.44,1.29.57c.56.09.99.43,1.07.84.18.91.52,1.52.9,1.52s.72-.61.9-1.52c.08-.42.51-.75,1.07-.84.79-.13,1.29-.33,1.29-.57Z"/>
      <path class="cls-2" d="m2148.11,710.34c0-.13-.27-.24-.69-.31-.32-.05-.55-.25-.59-.48-.09-.57-.29-.96-.52-.96s-.43.39-.52.96c-.04.24-.27.43-.59.48-.42.07-.69.18-.69.31s.28.24.71.31c.31.05.55.23.59.46.1.5.28.84.5.84s.4-.34.5-.84c.05-.23.28-.41.59-.46.43-.07.71-.18.71-.31Z"/>
      <path class="cls-2" d="m2184.33,380.9c0-.27-.58-.51-1.49-.66-.68-.12-1.18-.53-1.27-1.04-.2-1.22-.62-2.07-1.12-2.07s-.92.85-1.12,2.07c-.08.51-.59.93-1.27,1.04-.91.15-1.49.39-1.49.66s.6.52,1.54.67c.66.11,1.17.51,1.27,1,.21,1.08.61,1.8,1.07,1.8s.85-.72,1.07-1.8c.1-.49.61-.89,1.27-1,.93-.15,1.54-.4,1.54-.67Z"/>
      <path class="cls-2" d="m2209.9,620.91c0-.34-.73-.64-1.87-.83-.85-.14-1.48-.67-1.59-1.3-.25-1.53-.78-2.6-1.4-2.6s-1.15,1.06-1.4,2.6c-.1.64-.74,1.16-1.59,1.3-1.14.19-1.87.49-1.87.83s.76.65,1.93.84c.83.14,1.47.63,1.59,1.25.27,1.35.77,2.26,1.34,2.26s1.07-.91,1.34-2.26c.12-.62.76-1.11,1.59-1.25,1.17-.19,1.93-.5,1.93-.84Z"/>
      <path class="cls-2" d="m2273.13,326.89c0-.26-.57-.49-1.45-.64-.66-.11-1.15-.52-1.23-1.01-.19-1.19-.6-2.01-1.08-2.01s-.89.82-1.08,2.01c-.08.49-.57.9-1.23,1.01-.88.15-1.45.38-1.45.64s.58.5,1.49.65c.64.11,1.14.49,1.23.97.21,1.04.59,1.75,1.04,1.75s.83-.7,1.04-1.75c.09-.48.59-.86,1.23-.97.9-.15,1.49-.39,1.49-.65Z"/>
      <path class="cls-2" d="m2312.45,158.71c0-.22-.47-.41-1.2-.53-.55-.09-.95-.43-1.02-.84-.16-.98-.5-1.67-.9-1.67s-.74.68-.9,1.67c-.07.41-.47.74-1.02.84-.73.12-1.2.32-1.2.53s.48.42,1.24.54c.53.09.94.41,1.02.8.17.87.49,1.45.86,1.45s.69-.58.86-1.45c.08-.4.49-.72,1.02-.8.75-.12,1.24-.32,1.24-.54Z"/>
      <path class="cls-2" d="m2409.36,770.19c0-.11-.24-.21-.61-.27-.28-.05-.48-.22-.52-.42-.08-.5-.25-.84-.45-.84s-.37.34-.45.84c-.03.21-.24.38-.52.42-.37.06-.61.16-.61.27s.25.21.63.27c.27.04.48.21.52.41.09.44.25.73.43.73s.35-.29.43-.73c.04-.2.25-.36.52-.41.38-.06.63-.16.63-.27Z"/>
      <path class="cls-2" d="m2438.04,124.8c0-.16-.34-.29-.86-.38-.39-.07-.68-.31-.73-.6-.11-.71-.36-1.19-.64-1.19s-.53.49-.64,1.19c-.05.29-.34.53-.73.6-.52.09-.86.23-.86.38s.35.3.89.39c.38.06.68.29.73.58.12.62.35,1.04.62,1.04s.49-.42.62-1.04c.06-.28.35-.51.73-.58.54-.09.89-.23.89-.39Z"/>
      <path class="cls-2" d="m2481.61,14.64c0-.11-.23-.2-.6-.27-.27-.05-.47-.21-.51-.42-.08-.49-.25-.83-.45-.83s-.37.34-.45.83c-.03.2-.23.37-.51.42-.36.06-.6.16-.6.27s.24.21.61.27c.27.04.47.2.51.4.09.43.24.72.43.72s.34-.29.43-.72c.04-.2.24-.36.51-.4.37-.06.61-.16.61-.27Z"/>
      <path class="cls-2" d="m2538.38,261.37c0-.14-.3-.27-.78-.35-.35-.06-.62-.28-.66-.54-.1-.64-.32-1.08-.58-1.08s-.48.44-.58,1.08c-.04.26-.3.48-.66.54-.47.08-.78.2-.78.35s.31.27.8.35c.34.06.61.26.66.52.11.56.32.94.56.94s.44-.38.56-.94c.05-.26.32-.46.66-.52.49-.08.8-.21.8-.35Z"/>
      <path class="cls-2" d="m2569.21,162.63c0-.31-.66-.58-1.69-.75-.77-.13-1.34-.6-1.43-1.18-.22-1.39-.71-2.34-1.26-2.34s-1.04.96-1.26,2.34c-.09.58-.66,1.05-1.43,1.18-1.03.17-1.69.45-1.69.75s.68.59,1.74.76c.75.12,1.33.57,1.44,1.13.24,1.22.69,2.04,1.21,2.04s.97-.82,1.21-2.04c.11-.56.69-1.01,1.44-1.13,1.06-.17,1.74-.45,1.74-.76Z"/>
      <path class="cls-2" d="m2587.75,361.13c0-.14-.3-.26-.76-.34-.35-.06-.61-.27-.65-.53-.1-.63-.32-1.06-.57-1.06s-.47.43-.57,1.06c-.04.26-.3.47-.65.53-.46.08-.76.2-.76.34s.31.26.79.34c.34.06.6.26.65.51.11.55.31.92.55.92s.44-.37.55-.92c.05-.25.31-.45.65-.51.48-.08.79-.2.79-.34Z"/>
      <path class="cls-2" d="m2660.71,970.17c0-.31-.67-.58-1.71-.76-.78-.13-1.36-.61-1.45-1.19-.23-1.4-.71-2.37-1.28-2.37s-1.05.97-1.28,2.37c-.09.58-.67,1.06-1.45,1.19-1.04.18-1.71.45-1.71.76s.69.59,1.76.77c.76.13,1.35.58,1.46,1.14.25,1.24.7,2.07,1.22,2.07s.98-.83,1.22-2.07c.11-.57.7-1.02,1.46-1.14,1.07-.18,1.76-.46,1.76-.77Z"/>
      <path class="cls-2" d="m2735.57,462.48c0-.09-.2-.17-.51-.23-.23-.04-.41-.18-.43-.36-.07-.42-.21-.71-.38-.71s-.31.29-.38.71c-.03.17-.2.32-.43.36-.31.05-.51.14-.51.23s.21.18.53.23c.23.04.4.17.44.34.07.37.21.62.37.62s.29-.25.37-.62c.03-.17.21-.3.44-.34.32-.05.53-.14.53-.23Z"/>
      <path class="cls-2" d="m2797.46,425.58c0-.16-.34-.29-.86-.38-.39-.07-.68-.31-.73-.6-.11-.7-.36-1.19-.64-1.19s-.53.49-.64,1.19c-.05.29-.34.53-.73.6-.52.09-.86.23-.86.38s.35.3.88.39c.38.06.67.29.73.57.12.62.35,1.04.61,1.04s.49-.42.61-1.04c.06-.28.35-.51.73-.57.54-.09.88-.23.88-.39Z"/>
      <path class="cls-2" d="m2890.89,212.17c0-.24-.51-.45-1.31-.58-.6-.1-1.04-.47-1.11-.91-.17-1.07-.55-1.81-.98-1.81s-.8.74-.98,1.81c-.07.45-.51.81-1.11.91-.8.13-1.31.35-1.31.58s.53.45,1.35.59c.58.1,1.03.44,1.11.87.19.94.54,1.58.94,1.58s.75-.63.94-1.58c.09-.43.53-.78,1.11-.87.82-.13,1.35-.35,1.35-.59Z"/>
      <path class="cls-2" d="m2945.6,870.3c0-.25-.53-.46-1.36-.6-.62-.1-1.08-.48-1.15-.94-.18-1.11-.57-1.88-1.01-1.88s-.83.77-1.01,1.88c-.07.46-.53.84-1.15.94-.83.14-1.36.36-1.36.6s.55.47,1.4.61c.6.1,1.07.46,1.16.91.19.98.56,1.64.97,1.64s.78-.66.97-1.64c.09-.45.55-.81,1.16-.91.85-.14,1.4-.36,1.4-.61Z"/>
      <path class="cls-2" d="m3042.48,406.43c0-.29-.62-.54-1.59-.71-.72-.12-1.26-.57-1.34-1.1-.21-1.3-.66-2.2-1.19-2.2s-.97.9-1.19,2.2c-.09.54-.62.98-1.34,1.1-.97.16-1.59.42-1.59.71s.64.55,1.63.71c.7.12,1.25.54,1.35,1.06.23,1.14.65,1.91,1.13,1.91s.91-.77,1.13-1.91c.1-.52.65-.94,1.35-1.06.99-.16,1.63-.42,1.63-.71Z"/>
      <path class="cls-2" d="m3103.51,304.28c0-.18-.38-.33-.97-.43-.44-.07-.77-.35-.82-.68-.13-.8-.41-1.35-.73-1.35s-.6.55-.73,1.35c-.05.33-.38.6-.82.68-.59.1-.97.26-.97.43s.39.34,1,.44c.43.07.76.33.83.65.14.7.4,1.17.69,1.17s.56-.47.69-1.17c.06-.32.4-.58.83-.65.61-.1,1-.26,1-.44Z"/>
      <path class="cls-2" d="m3246.62,352.8c0-.33-.72-.63-1.84-.82-.84-.14-1.46-.66-1.56-1.28-.24-1.51-.77-2.55-1.38-2.55s-1.13,1.04-1.38,2.55c-.1.63-.72,1.14-1.56,1.28-1.12.19-1.84.49-1.84.82s.74.64,1.89.83c.82.13,1.45.62,1.57,1.23.26,1.33.75,2.22,1.32,2.22s1.05-.89,1.32-2.22c.12-.61.75-1.1,1.57-1.23,1.15-.19,1.89-.49,1.89-.83Z"/>
      <path class="cls-2" d="m3317.6,711.4c0-.33-.72-.62-1.83-.81-.83-.14-1.45-.65-1.55-1.27-.24-1.5-.76-2.53-1.36-2.53s-1.12,1.03-1.36,2.53c-.1.62-.72,1.13-1.55,1.27-1.11.19-1.83.48-1.83.81s.74.63,1.88.82c.81.13,1.44.62,1.56,1.22.26,1.32.75,2.2,1.31,2.2s1.04-.89,1.31-2.2c.12-.6.74-1.09,1.56-1.22,1.14-.19,1.88-.49,1.88-.82Z"/>
      <path class="cls-2" d="m3373.47,247.92c0-.15-.33-.29-.85-.38-.38-.07-.67-.3-.72-.59-.11-.69-.35-1.17-.63-1.17s-.52.48-.63,1.17c-.05.29-.33.52-.72.59-.51.09-.85.22-.85.38s.34.29.87.38c.38.06.66.29.72.56.12.61.35,1.02.6,1.02s.48-.41.6-1.02c.06-.28.34-.5.72-.56.53-.09.87-.22.87-.38Z"/>
      <path class="cls-2" d="m3436.16,771.84c0-.25-.55-.48-1.4-.62-.64-.11-1.11-.5-1.18-.97-.19-1.15-.58-1.94-1.04-1.94s-.86.79-1.04,1.94c-.08.48-.55.87-1.18.97-.85.14-1.4.37-1.4.62s.56.48,1.44.63c.62.1,1.1.47,1.19.93.2,1.01.57,1.69,1,1.69s.8-.68,1-1.69c.09-.46.57-.83,1.19-.93.87-.14,1.44-.37,1.44-.63Z"/>
      <path class="cls-2" d="m3448.14,327.84s-.09-.08-.24-.11c-.11-.02-.19-.09-.2-.17-.03-.2-.1-.34-.18-.34s-.15.14-.18.34c-.01.08-.09.15-.2.17-.15.02-.24.06-.24.11s.1.08.25.11c.11.02.19.08.21.16.03.17.1.29.17.29s.14-.12.17-.29c.02-.08.1-.14.21-.16.15-.02.25-.06.25-.11Z"/>
      <path class="cls-2" d="m3535.39,449.96c0-.1-.21-.19-.55-.24-.25-.04-.43-.2-.46-.38-.07-.45-.23-.76-.41-.76s-.34.31-.41.76c-.03.19-.21.34-.46.38-.33.06-.55.14-.55.24s.22.19.56.25c.24.04.43.19.47.37.08.39.22.66.39.66s.31-.27.39-.66c.04-.18.22-.33.47-.37.34-.06.56-.15.56-.25Z"/>
      <path class="cls-2" d="m3571.58,235.09c0-.13-.29-.25-.74-.33-.34-.06-.59-.26-.63-.52-.1-.61-.31-1.03-.55-1.03s-.46.42-.55,1.03c-.04.25-.29.46-.63.52-.45.08-.74.2-.74.33s.3.26.76.33c.33.05.58.25.63.5.11.54.3.89.53.89s.42-.36.53-.89c.05-.24.3-.44.63-.5.46-.08.76-.2.76-.33Z"/>
      <path class="cls-2" d="m3629.57,876.04c0-.11-.24-.21-.62-.27-.28-.05-.49-.22-.52-.43-.08-.5-.26-.85-.46-.85s-.38.35-.46.85c-.03.21-.24.38-.52.43-.37.06-.62.16-.62.27s.25.21.63.28c.27.04.48.21.52.41.09.44.25.74.44.74s.35-.3.44-.74c.04-.2.25-.37.52-.41.38-.06.63-.16.63-.28Z"/>
      <path class="cls-2" d="m3718.29,888.24c0-.2-.44-.39-1.13-.5-.51-.09-.89-.4-.96-.79-.15-.93-.47-1.56-.84-1.56s-.69.64-.84,1.56c-.06.38-.44.7-.96.79-.69.12-1.13.3-1.13.5s.46.39,1.16.51c.5.08.89.38.96.75.16.81.46,1.36.81,1.36s.65-.55.81-1.36c.07-.37.46-.67.96-.75.71-.12,1.16-.3,1.16-.51Z"/>
      <path class="cls-2" d="m3820.32,126.17c0-.36-.77-.67-1.98-.88-.9-.15-1.57-.7-1.67-1.38-.26-1.62-.82-2.74-1.48-2.74s-1.21,1.12-1.48,2.74c-.11.67-.78,1.22-1.67,1.38-1.2.2-1.98.52-1.98.88s.8.68,2.03.89c.88.14,1.55.67,1.68,1.32.28,1.42.81,2.38,1.41,2.38s1.13-.96,1.41-2.38c.13-.65.81-1.18,1.68-1.32,1.23-.2,2.03-.53,2.03-.89Z"/>
      <path class="cls-2" d="m3840.13,500.84c0-.18-.4-.35-1.02-.45-.46-.08-.81-.36-.86-.71-.14-.83-.43-1.41-.76-1.41s-.63.58-.76,1.41c-.06.35-.4.63-.86.71-.62.11-1.02.27-1.02.45s.41.35,1.05.46c.45.07.8.34.87.68.15.73.42,1.23.73,1.23s.58-.49.73-1.23c.07-.34.42-.61.87-.68.64-.1,1.05-.27,1.05-.46Z"/>
      <path class="cls-2" d="m3868.28,120.06c0-.23-.51-.44-1.29-.58-.59-.1-1.02-.46-1.1-.9-.17-1.06-.54-1.79-.97-1.79s-.79.73-.97,1.79c-.07.44-.51.8-1.1.9-.79.13-1.29.34-1.29.58s.52.45,1.33.58c.57.09,1.02.44,1.1.86.19.93.53,1.56.92,1.56s.74-.63.92-1.56c.08-.43.53-.77,1.1-.86.81-.13,1.33-.34,1.33-.58Z"/>
      <path class="cls-2" d="m3942.13,999.77c0-.16-.35-.31-.91-.4-.41-.07-.72-.32-.77-.63-.12-.74-.38-1.26-.68-1.26s-.56.51-.68,1.26c-.05.31-.36.56-.77.63-.55.09-.91.24-.91.4s.37.31.93.41c.4.07.71.31.77.61.13.65.37,1.09.65,1.09s.52-.44.65-1.09c.06-.3.37-.54.77-.61.57-.09.93-.24.93-.41Z"/>
      <path class="cls-2" d="m4002.08,965.32c0-.35-.76-.66-1.94-.86-.88-.15-1.54-.69-1.65-1.35-.26-1.59-.81-2.69-1.45-2.69s-1.19,1.1-1.45,2.69c-.11.66-.76,1.2-1.65,1.35-1.18.2-1.94.51-1.94.86s.78.67,2,.87c.86.14,1.53.66,1.65,1.3.28,1.4.8,2.34,1.39,2.34s1.11-.94,1.39-2.34c.13-.64.79-1.16,1.65-1.3,1.21-.2,2-.52,2-.87Z"/>
      <path class="cls-2" d="m4069.33,284c0-.09-.19-.16-.48-.21-.22-.04-.38-.17-.4-.33-.06-.39-.2-.66-.35-.66s-.29.27-.35.66c-.03.16-.19.29-.4.33-.29.05-.48.13-.48.21s.19.16.49.21c.21.03.37.16.4.32.07.34.19.57.34.57s.27-.23.34-.57c.03-.16.19-.28.4-.32.3-.05.49-.13.49-.21Z"/>
      <path class="cls-2" d="m4132.66,243.59c0-.14-.31-.27-.79-.35-.36-.06-.63-.28-.67-.55-.11-.65-.33-1.1-.59-1.1s-.49.45-.59,1.1c-.04.27-.31.49-.67.55-.48.08-.79.21-.79.35s.32.27.81.36c.35.06.62.27.67.53.11.57.32.96.57.96s.45-.38.57-.96c.05-.26.32-.47.67-.53.49-.08.81-.21.81-.36Z"/>
      <path class="cls-2" d="m4157.26,868.61c0-.2-.43-.37-1.09-.48-.49-.08-.86-.39-.92-.76-.14-.89-.45-1.51-.81-1.51s-.67.62-.81,1.51c-.06.37-.43.67-.92.76-.66.11-1.09.29-1.09.48s.44.38,1.12.49c.48.08.85.37.93.73.16.78.45,1.31.78,1.31s.62-.53.78-1.31c.07-.36.44-.65.93-.73.68-.11,1.12-.29,1.12-.49Z"/>
      <path class="cls-2" d="m4253.41,414.23c0-.09-.2-.18-.52-.23-.23-.04-.41-.18-.44-.36-.07-.42-.22-.72-.39-.72s-.32.29-.39.72c-.03.18-.2.32-.44.36-.31.05-.52.14-.52.23s.21.18.53.23c.23.04.41.17.44.35.07.37.21.62.37.62s.3-.25.37-.62c.03-.17.21-.31.44-.35.32-.05.53-.14.53-.23Z"/>
      <path class="cls-2" d="m4348.95,432.29c0-.36-.78-.68-1.99-.89-.91-.15-1.58-.71-1.69-1.39-.26-1.63-.83-2.76-1.49-2.76s-1.22,1.13-1.49,2.76c-.11.68-.78,1.23-1.69,1.39-1.21.21-1.99.53-1.99.89s.8.69,2.05.9c.88.15,1.57.67,1.7,1.33.29,1.44.82,2.4,1.42,2.4s1.14-.97,1.42-2.4c.13-.66.81-1.19,1.7-1.33,1.25-.21,2.05-.53,2.05-.9Z"/>
      <path class="cls-2" d="m4418.32,483.14c0-.35-.76-.66-1.93-.86-.88-.15-1.53-.69-1.63-1.34-.26-1.58-.8-2.67-1.44-2.67s-1.18,1.09-1.44,2.67c-.11.66-.76,1.19-1.63,1.34-1.17.2-1.93.51-1.93.86s.78.67,1.98.87c.86.14,1.52.65,1.64,1.29.28,1.39.79,2.33,1.38,2.33s1.1-.93,1.38-2.33c.13-.64.79-1.15,1.64-1.29,1.2-.2,1.98-.51,1.98-.87Z"/>
      <path class="cls-2" d="m4446.16,712.91s-.08-.07-.21-.09c-.1-.02-.17-.07-.18-.15-.03-.17-.09-.29-.16-.29s-.13.12-.16.29c-.01.07-.08.13-.18.15-.13.02-.21.06-.21.09s.08.07.22.09c.09.02.16.07.18.14.03.15.09.25.15.25s.12-.1.15-.25c.01-.07.09-.12.18-.14.13-.02.22-.06.22-.09Z"/>
      <path class="cls-2" d="m4532.57,493.27c0-.19-.41-.35-1.04-.46-.47-.08-.82-.37-.88-.72-.14-.85-.43-1.44-.77-1.44s-.64.59-.77,1.44c-.06.35-.41.64-.88.72-.63.11-1.04.27-1.04.46s.42.36,1.07.47c.46.08.81.35.88.69.15.75.42,1.25.74,1.25s.59-.5.74-1.25c.07-.34.42-.62.88-.69.65-.11,1.07-.28,1.07-.47Z"/>
      <path class="cls-2" d="m4559.7,451.21c0-.2-.43-.38-1.11-.49-.51-.09-.88-.4-.94-.77-.15-.91-.46-1.54-.83-1.54s-.68.63-.83,1.54c-.06.38-.44.69-.94.77-.68.11-1.11.29-1.11.49s.45.38,1.14.5c.49.08.87.38.95.74.16.8.46,1.34.79,1.34s.63-.54.79-1.34c.07-.37.45-.66.95-.74.69-.11,1.14-.3,1.14-.5Z"/>
      <path class="cls-2" d="m4610.96,629.62c0-.12-.27-.23-.69-.31-.31-.05-.54-.24-.58-.48-.09-.56-.29-.95-.51-.95s-.42.39-.51.95c-.04.23-.27.43-.58.48-.42.07-.69.18-.69.31s.28.24.71.31c.3.05.54.23.59.46.1.5.28.83.49.83s.39-.33.49-.83c.05-.23.28-.41.59-.46.43-.07.71-.18.71-.31Z"/>
      <path class="cls-2" d="m4654.02,881.09c0-.07-.15-.13-.39-.17-.18-.03-.31-.14-.33-.27-.05-.32-.16-.54-.29-.54s-.24.22-.29.54c-.02.13-.15.24-.33.27-.24.04-.39.1-.39.17s.16.14.4.18c.17.03.31.13.33.26.06.28.16.47.28.47s.22-.19.28-.47c.03-.13.16-.23.33-.26.25-.04.4-.1.4-.18Z"/>
      <path class="cls-2" d="m4722.57,3.56c0-.22-.47-.41-1.19-.53-.54-.09-.94-.42-1.01-.83-.16-.98-.5-1.65-.89-1.65s-.73.68-.89,1.65c-.07.41-.47.74-1.01.83-.73.12-1.19.31-1.19.53s.48.41,1.23.54c.53.09.94.4,1.02.8.17.86.49,1.44.85,1.44s.68-.58.85-1.44c.08-.39.49-.71,1.02-.8.74-.12,1.23-.32,1.23-.54Z"/>
      <path class="cls-2" d="m4769.77,949.82c0-.08-.17-.15-.43-.19-.19-.03-.34-.15-.36-.3-.06-.35-.18-.59-.32-.59s-.26.24-.32.59c-.02.14-.17.26-.36.3-.26.04-.43.11-.43.19s.17.15.44.19c.19.03.33.14.36.28.06.31.17.51.3.51s.24-.21.3-.51c.03-.14.17-.25.36-.28.27-.04.44-.11.44-.19Z"/>
      <path class="cls-2" d="m4823.89,548.59c0-.32-.7-.61-1.79-.8-.81-.14-1.42-.64-1.52-1.25-.24-1.47-.75-2.48-1.34-2.48s-1.1,1.01-1.34,2.48c-.1.61-.7,1.11-1.52,1.25-1.09.18-1.79.47-1.79.8s.72.62,1.84.8c.79.13,1.41.61,1.52,1.2.26,1.29.73,2.16,1.28,2.16s1.02-.87,1.28-2.16c.12-.59.73-1.07,1.52-1.2,1.12-.18,1.84-.48,1.84-.8Z"/>
      <path class="cls-2" d="m4833.26,913.9c0-.15-.32-.28-.81-.36-.37-.06-.64-.29-.69-.56-.11-.66-.34-1.12-.61-1.12s-.5.46-.61,1.12c-.04.28-.32.5-.69.56-.49.08-.81.21-.81.36s.33.28.83.36c.36.06.64.27.69.54.12.58.33.98.58.98s.46-.39.58-.98c.05-.27.33-.48.69-.54.51-.08.83-.22.83-.36Z"/>
      <path class="cls-2" d="m4917.01,279.91c0-.14-.3-.27-.78-.35-.35-.06-.62-.28-.66-.54-.1-.64-.32-1.08-.58-1.08s-.48.44-.58,1.08c-.04.26-.3.48-.66.54-.47.08-.78.2-.78.35s.31.27.8.35c.34.06.61.26.66.52.11.56.32.94.55.94s.44-.38.55-.94c.05-.26.32-.46.66-.52.49-.08.8-.21.8-.35Z"/>
      <path class="cls-2" d="m4956.83,518.8c0-.16-.34-.3-.87-.39-.4-.07-.69-.31-.74-.61-.12-.72-.36-1.21-.65-1.21s-.54.49-.65,1.21c-.05.3-.34.54-.74.61-.53.09-.87.23-.87.39s.35.3.9.39c.39.06.69.3.74.58.13.63.36,1.05.62,1.05s.5-.42.62-1.05c.06-.29.36-.52.74-.58.55-.09.9-.23.9-.39Z"/>
      <path class="cls-2" d="m4972.04,971.46c0-.11-.23-.2-.59-.26-.27-.05-.47-.21-.5-.41-.08-.49-.25-.82-.44-.82s-.37.34-.44.82c-.03.2-.23.37-.5.41-.36.06-.59.16-.59.26s.24.21.61.27c.26.04.47.2.51.4.09.43.24.72.42.72s.34-.29.42-.72c.04-.2.24-.35.51-.4.37-.06.61-.16.61-.27Z"/>
      <path class="cls-2" d="m5011.08,390.26c0-.11-.24-.21-.6-.27-.27-.05-.48-.21-.51-.42-.08-.49-.25-.84-.45-.84s-.37.34-.45.84c-.03.21-.24.37-.51.42-.37.06-.6.16-.6.27s.24.21.62.27c.27.04.47.2.51.4.09.44.25.73.43.73s.34-.29.43-.73c.04-.2.25-.36.51-.4.38-.06.62-.16.62-.27Z"/>
      <path class="cls-2" d="m5075.45,563.16c0-.25-.54-.47-1.37-.61-.62-.11-1.08-.49-1.16-.95-.18-1.12-.57-1.9-1.02-1.9s-.84.78-1.02,1.9c-.08.47-.54.85-1.16.95-.83.14-1.37.36-1.37.61s.55.47,1.41.61c.61.1,1.08.46,1.17.91.2.99.56,1.65.98,1.65s.78-.66.98-1.65c.09-.45.56-.81,1.17-.91.86-.14,1.41-.36,1.41-.61Z"/>
      <path class="cls-2" d="m5142.38,5.76c0-.11-.23-.2-.58-.26-.26-.04-.46-.21-.49-.4-.08-.48-.24-.81-.43-.81s-.36.33-.43.81c-.03.2-.23.36-.49.4-.35.06-.58.15-.58.26s.23.2.6.26c.26.04.46.2.49.39.08.42.24.7.42.7s.33-.28.42-.7c.04-.19.24-.35.49-.39.36-.06.6-.15.6-.26Z"/>
      <path class="cls-2" d="m5158.04,46.34c0-.1-.21-.19-.55-.24-.25-.04-.43-.19-.46-.38-.07-.45-.23-.76-.41-.76s-.34.31-.41.76c-.03.19-.21.34-.46.38-.33.06-.55.14-.55.24s.22.19.56.25c.24.04.43.18.47.37.08.39.22.66.39.66s.31-.26.39-.66c.04-.18.22-.33.47-.37.34-.06.56-.15.56-.25Z"/>
      <path class="cls-2" d="m5201.65,837.34c0-.11-.24-.21-.61-.27-.28-.05-.48-.22-.51-.42-.08-.5-.25-.84-.45-.84s-.37.34-.45.84c-.03.21-.24.38-.51.42-.37.06-.61.16-.61.27s.25.21.62.27c.27.04.48.21.52.41.09.44.25.73.43.73s.35-.29.43-.73c.04-.2.25-.36.52-.41.38-.06.62-.16.62-.27Z"/>
      <path class="cls-2" d="m5302.36,35.51c0-.25-.55-.48-1.41-.62-.64-.11-1.11-.5-1.19-.98-.19-1.15-.59-1.95-1.05-1.95s-.86.8-1.05,1.95c-.08.48-.55.87-1.19.98-.86.14-1.41.37-1.41.62s.57.49,1.45.63c.62.1,1.1.48,1.2.94.2,1.01.58,1.69,1,1.69s.8-.68,1-1.69c.09-.46.57-.84,1.2-.94.88-.14,1.45-.37,1.45-.63Z"/>
      <path class="cls-2" d="m5348.76,957.64c0-.25-.54-.47-1.39-.62-.63-.11-1.1-.49-1.17-.97-.18-1.14-.58-1.92-1.04-1.92s-.85.79-1.04,1.92c-.08.47-.54.86-1.17.97-.84.14-1.39.37-1.39.62s.56.48,1.43.62c.62.1,1.09.47,1.18.93.2,1,.57,1.67.99,1.67s.79-.67.99-1.67c.09-.46.57-.83,1.18-.93.87-.14,1.43-.37,1.43-.62Z"/>
      <path class="cls-2" d="m5453.3,177.07c0-.27-.59-.51-1.5-.67-.68-.12-1.19-.53-1.27-1.04-.2-1.23-.63-2.08-1.12-2.08s-.92.85-1.12,2.08c-.08.51-.59.93-1.27,1.04-.91.15-1.5.4-1.5.67s.6.52,1.54.67c.66.11,1.18.51,1.28,1,.21,1.08.61,1.81,1.07,1.81s.86-.73,1.07-1.81c.1-.49.61-.89,1.28-1,.94-.15,1.54-.4,1.54-.67Z"/>
      <path class="cls-2" d="m5495.86,452.59c0-.36-.77-.67-1.98-.88-.9-.15-1.56-.7-1.67-1.38-.26-1.62-.82-2.74-1.48-2.74s-1.21,1.12-1.48,2.74c-.11.67-.78,1.22-1.67,1.38-1.2.2-1.98.52-1.98.88s.8.68,2.03.89c.88.14,1.55.67,1.68,1.32.28,1.42.81,2.38,1.41,2.38s1.13-.96,1.41-2.38c.13-.65.81-1.18,1.68-1.32,1.23-.2,2.03-.53,2.03-.89Z"/>
      <path class="cls-2" d="m5515.98,387.22c0-.25-.53-.46-1.36-.6-.62-.1-1.08-.48-1.15-.94-.18-1.11-.57-1.88-1.01-1.88s-.83.77-1.01,1.88c-.07.46-.53.84-1.15.94-.83.14-1.36.36-1.36.6s.55.47,1.4.61c.6.1,1.07.46,1.16.91.19.98.56,1.64.97,1.64s.78-.66.97-1.64c.09-.45.55-.81,1.16-.91.85-.14,1.4-.36,1.4-.61Z"/>
      <path class="cls-2" d="m5616.42,251.1c0-.31-.67-.59-1.72-.76-.78-.13-1.36-.61-1.45-1.2-.23-1.41-.72-2.38-1.28-2.38s-1.06.97-1.28,2.38c-.09.58-.67,1.06-1.45,1.2-1.05.18-1.72.45-1.72.76s.69.59,1.77.77c.76.13,1.35.58,1.46,1.15.25,1.24.7,2.07,1.23,2.07s.98-.83,1.23-2.07c.11-.57.7-1.02,1.46-1.15,1.07-.18,1.77-.46,1.77-.77Z"/>
      <path class="cls-2" d="m5664.24,70.65c0-.25-.55-.48-1.4-.62-.64-.11-1.11-.5-1.18-.97-.19-1.15-.58-1.94-1.04-1.94s-.86.79-1.04,1.94c-.08.48-.55.87-1.18.97-.85.14-1.4.37-1.4.62s.56.48,1.44.63c.62.1,1.1.47,1.19.93.2,1.01.57,1.69,1,1.69s.8-.68,1-1.69c.09-.46.57-.83,1.19-.93.87-.14,1.44-.37,1.44-.63Z"/>
      <path class="cls-2" d="m5708.51,846.58c0-.36-.79-.68-2.01-.89-.91-.15-1.59-.71-1.7-1.4-.27-1.64-.84-2.78-1.5-2.78s-1.23,1.14-1.5,2.78c-.11.68-.79,1.24-1.7,1.4-1.22.21-2.01.53-2.01.89s.81.69,2.06.9c.89.15,1.58.68,1.71,1.34.29,1.45.82,2.42,1.43,2.42s1.15-.97,1.43-2.42c.13-.66.82-1.19,1.71-1.34,1.25-.21,2.06-.53,2.06-.9Z"/>
      <path class="cls-2" d="m5761.14,563.04c0-.22-.47-.41-1.19-.53-.54-.09-.95-.43-1.01-.83-.16-.98-.5-1.65-.89-1.65s-.73.68-.89,1.65c-.07.41-.47.74-1.01.83-.73.12-1.19.31-1.19.53s.48.41,1.23.54c.53.09.94.4,1.02.8.17.86.49,1.44.85,1.44s.68-.58.85-1.44c.08-.39.49-.71,1.02-.8.75-.12,1.23-.32,1.23-.54Z"/>
      <path class="cls-2" d="m5847.15,224.45c0-.35-.75-.66-1.92-.86-.88-.15-1.52-.69-1.63-1.34-.26-1.58-.8-2.67-1.44-2.67s-1.18,1.09-1.44,2.67c-.11.65-.75,1.19-1.63,1.34-1.17.2-1.92.51-1.92.86s.78.67,1.98.86c.85.14,1.51.65,1.64,1.29.28,1.39.79,2.32,1.37,2.32s1.1-.93,1.37-2.32c.13-.63.78-1.15,1.64-1.29,1.2-.2,1.98-.51,1.98-.86Z"/>
      <path class="cls-2" d="m5903.47,459.51c0-.09-.2-.18-.52-.23-.24-.04-.41-.19-.44-.36-.07-.43-.22-.72-.39-.72s-.32.29-.39.72c-.03.18-.2.32-.44.36-.32.05-.52.14-.52.23s.21.18.54.23c.23.04.41.18.44.35.07.38.21.63.37.63s.3-.25.37-.63c.03-.17.21-.31.44-.35.33-.05.54-.14.54-.23Z"/>
      <path class="cls-2" d="m5961.87,876.13c0-.13-.29-.25-.74-.33-.34-.06-.58-.26-.62-.51-.1-.6-.31-1.02-.55-1.02s-.45.42-.55,1.02c-.04.25-.29.46-.62.51-.45.08-.74.19-.74.33s.3.26.76.33c.33.05.58.25.63.49.11.53.3.89.53.89s.42-.36.53-.89c.05-.24.3-.44.63-.49.46-.08.76-.2.76-.33Z"/>
      <path class="cls-2" d="m5981.83,358.93c0-.15-.32-.28-.82-.36-.37-.06-.65-.29-.7-.57-.11-.67-.34-1.14-.61-1.14s-.5.47-.61,1.14c-.05.28-.32.51-.7.57-.5.08-.82.22-.82.36s.33.28.84.37c.36.06.64.28.7.55.12.59.34.99.59.99s.47-.4.59-.99c.05-.27.33-.49.7-.55.51-.08.84-.22.84-.37Z"/>
      <path class="cls-2" d="m6013.4,39.69c0-.27-.59-.52-1.52-.67-.69-.12-1.2-.54-1.28-1.06-.2-1.24-.63-2.1-1.13-2.1s-.93.86-1.13,2.1c-.08.52-.59.94-1.28,1.06-.92.16-1.52.4-1.52.67s.61.53,1.56.68c.67.11,1.19.51,1.29,1.01.22,1.09.62,1.83,1.08,1.83s.87-.73,1.08-1.83c.1-.5.62-.9,1.29-1.01.95-.16,1.56-.4,1.56-.68Z"/>
      <path class="cls-2" d="m6091.16,14.64s-.09-.08-.24-.11c-.11-.02-.19-.08-.2-.17-.03-.19-.1-.33-.18-.33s-.15.13-.18.33c-.01.08-.09.15-.2.17-.14.02-.24.06-.24.11s.1.08.24.11c.11.02.19.08.2.16.03.17.1.29.17.29s.14-.12.17-.29c.02-.08.1-.14.2-.16.15-.02.24-.06.24-.11Z"/>
      <path class="cls-2" d="m6127.23,644.97c0-.25-.55-.48-1.4-.62-.64-.11-1.11-.5-1.19-.98-.19-1.15-.59-1.95-1.05-1.95s-.86.8-1.05,1.95c-.08.48-.55.87-1.19.98-.85.14-1.4.37-1.4.62s.57.49,1.44.63c.62.1,1.1.47,1.2.94.2,1.01.57,1.69,1,1.69s.8-.68,1-1.69c.09-.46.57-.84,1.2-.94.88-.14,1.44-.37,1.44-.63Z"/>
      <path class="cls-2" d="m6141.85,180.15c0-.33-.72-.63-1.84-.82-.84-.14-1.46-.65-1.56-1.28-.24-1.51-.77-2.55-1.37-2.55s-1.13,1.04-1.37,2.55c-.1.62-.72,1.14-1.56,1.28-1.12.19-1.84.48-1.84.82s.74.64,1.89.83c.82.13,1.44.62,1.56,1.23.26,1.33.75,2.22,1.31,2.22s1.05-.89,1.31-2.22c.12-.61.75-1.09,1.56-1.23,1.15-.19,1.89-.49,1.89-.83Z"/>
      <path class="cls-2" d="m6212.91,900.86c0-.19-.41-.36-1.06-.47-.48-.08-.84-.38-.89-.73-.14-.86-.44-1.46-.79-1.46s-.65.6-.79,1.46c-.06.36-.41.65-.89.73-.64.11-1.06.28-1.06.47s.43.37,1.09.47c.47.08.83.36.9.71.15.76.43,1.27.75,1.27s.6-.51.75-1.27c.07-.35.43-.63.9-.71.66-.11,1.09-.28,1.09-.47Z"/>
      <path class="cls-2" d="m6296.56,743.23c0-.33-.72-.63-1.85-.82-.84-.14-1.47-.66-1.57-1.29-.25-1.52-.77-2.56-1.38-2.56s-1.14,1.05-1.38,2.56c-.1.63-.73,1.15-1.57,1.29-1.13.19-1.85.49-1.85.82s.75.64,1.9.83c.82.14,1.45.63,1.58,1.24.27,1.33.76,2.23,1.32,2.23s1.06-.9,1.32-2.23c.12-.61.75-1.1,1.58-1.24,1.16-.19,1.9-.49,1.9-.83Z"/>
      <path class="cls-2" d="m6396.18,306.07c0-.18-.39-.34-1-.45-.46-.08-.79-.36-.85-.7-.13-.82-.42-1.39-.75-1.39s-.62.57-.75,1.39c-.06.34-.39.62-.85.7-.61.1-1,.26-1,.45s.4.35,1.03.45c.44.07.79.34.85.67.14.72.41,1.21.72,1.21s.57-.49.72-1.21c.07-.33.41-.6.85-.67.63-.1,1.03-.27,1.03-.45Z"/>
      <path class="cls-2" d="m6424.95,655.62c0-.11-.24-.21-.62-.27-.28-.05-.49-.22-.52-.43-.08-.51-.26-.86-.46-.86s-.38.35-.46.86c-.03.21-.24.38-.52.43-.38.06-.62.16-.62.27s.25.21.64.28c.27.05.49.21.53.41.09.45.25.74.44.74s.35-.3.44-.74c.04-.2.25-.37.53-.41.39-.06.64-.16.64-.28Z"/>
      <path class="cls-2" d="m6445.54,161.23c0-.06-.14-.12-.35-.16-.16-.03-.28-.13-.3-.25-.05-.29-.15-.49-.26-.49s-.22.2-.26.49c-.02.12-.14.22-.3.25-.22.04-.35.09-.35.16s.14.12.36.16c.16.03.28.12.3.24.05.26.14.43.25.43s.2-.17.25-.43c.02-.12.14-.21.3-.24.22-.04.36-.09.36-.16Z"/>
      <path class="cls-2" d="m6515.44,511.32s-.09-.08-.24-.11c-.11-.02-.19-.09-.2-.17-.03-.2-.1-.33-.18-.33s-.15.14-.18.33c-.01.08-.09.15-.2.17-.15.02-.24.06-.24.11s.1.08.25.11c.11.02.19.08.2.16.03.17.1.29.17.29s.14-.12.17-.29c.02-.08.1-.14.2-.16.15-.02.25-.06.25-.11Z"/>
      <path class="cls-2" d="m6613.15,770.6c0-.22-.48-.41-1.21-.54-.55-.09-.96-.43-1.03-.85-.16-.99-.51-1.68-.91-1.68s-.75.69-.91,1.68c-.07.41-.48.75-1.03.85-.74.13-1.21.32-1.21.54s.49.42,1.25.55c.54.09.95.41,1.03.81.17.88.5,1.46.87,1.46s.69-.59.87-1.46c.08-.4.49-.72,1.03-.81.76-.12,1.25-.32,1.25-.55Z"/>
      <path class="cls-2" d="m6686.81,719.27c0-.09-.2-.17-.51-.22-.23-.04-.4-.18-.43-.35-.07-.41-.21-.7-.38-.7s-.31.29-.38.7c-.03.17-.2.31-.43.35-.31.05-.51.13-.51.22s.2.18.52.23c.22.04.4.17.43.34.07.36.21.61.36.61s.29-.25.36-.61c.03-.17.21-.3.43-.34.32-.05.52-.13.52-.23Z"/>
      <path class="cls-2" d="m6768.8,392.03c0-.32-.69-.6-1.75-.78-.8-.13-1.39-.62-1.48-1.22-.23-1.43-.73-2.43-1.31-2.43s-1.08.99-1.31,2.43c-.1.6-.69,1.08-1.48,1.22-1.07.18-1.75.46-1.75.78s.71.61,1.8.79c.78.13,1.38.59,1.49,1.17.25,1.26.72,2.11,1.25,2.11s1-.85,1.25-2.11c.11-.58.71-1.04,1.49-1.17,1.09-.18,1.8-.47,1.8-.79Z"/>
      <path class="cls-2" d="m6786.52,14.94c0-.09-.2-.18-.52-.23-.24-.04-.41-.18-.44-.36-.07-.42-.22-.72-.39-.72s-.32.29-.39.72c-.03.18-.2.32-.44.36-.32.05-.52.14-.52.23s.21.18.53.23c.23.04.41.18.44.35.07.37.21.62.37.62s.3-.25.37-.62c.03-.17.21-.31.44-.35.32-.05.53-.14.53-.23Z"/>
      <path class="cls-2" d="m6840.5,243.7c0-.35-.76-.66-1.93-.86-.88-.15-1.53-.69-1.64-1.35-.26-1.59-.81-2.68-1.45-2.68s-1.19,1.1-1.45,2.68c-.11.66-.76,1.2-1.64,1.35-1.18.2-1.93.51-1.93.86s.78.67,1.99.87c.86.14,1.52.65,1.65,1.29.28,1.39.79,2.33,1.38,2.33s1.11-.94,1.38-2.33c.13-.64.79-1.15,1.65-1.29,1.21-.2,1.99-.51,1.99-.87Z"/>
      <path class="cls-2" d="m6915.81,1018.21c0-.15-.33-.29-.84-.38-.38-.07-.67-.3-.72-.59-.11-.69-.35-1.17-.63-1.17s-.52.48-.63,1.17c-.05.29-.33.52-.72.59-.51.09-.84.22-.84.38s.34.29.87.38c.37.06.66.29.72.56.12.61.35,1.02.6,1.02s.48-.41.6-1.02c.06-.28.34-.5.72-.56.53-.09.87-.22.87-.38Z"/>
      <path class="cls-2" d="m7007.06,827.92c0-.25-.55-.48-1.41-.63-.64-.11-1.12-.5-1.2-.98-.19-1.16-.59-1.96-1.05-1.96s-.87.8-1.05,1.96c-.08.48-.55.87-1.2.98-.86.15-1.41.37-1.41.63s.57.49,1.45.63c.63.1,1.11.48,1.2.94.2,1.02.58,1.7,1.01,1.7s.81-.68,1.01-1.7c.09-.47.58-.84,1.2-.94.88-.15,1.45-.38,1.45-.63Z"/>
      <path class="cls-2" d="m7086.52,37.89c0-.22-.48-.42-1.23-.54-.56-.09-.97-.44-1.04-.85-.16-1-.51-1.7-.92-1.7s-.75.69-.92,1.7c-.07.42-.48.76-1.04.85-.75.13-1.23.32-1.23.54s.49.42,1.26.55c.54.09.96.41,1.04.82.18.88.5,1.48.88,1.48s.7-.59.88-1.48c.08-.4.5-.73,1.04-.82.77-.13,1.26-.33,1.26-.55Z"/>
      <path class="cls-2" d="m7155.67,154.54c0-.18-.4-.34-1.01-.45-.46-.08-.8-.36-.86-.7-.13-.83-.42-1.4-.75-1.4s-.62.57-.75,1.4c-.06.34-.4.63-.86.7-.61.1-1.01.27-1.01.45s.41.35,1.04.45c.45.07.79.34.86.67.14.73.41,1.22.72,1.22s.58-.49.72-1.22c.07-.33.41-.6.86-.67.63-.1,1.04-.27,1.04-.45Z"/>
      <path class="cls-2" d="m7208.65,35.67c0-.26-.57-.5-1.46-.65-.67-.11-1.16-.52-1.24-1.02-.19-1.2-.61-2.03-1.09-2.03s-.9.83-1.09,2.03c-.08.5-.57.91-1.24,1.02-.89.15-1.46.39-1.46.65s.59.51,1.5.66c.65.11,1.15.49,1.25.98.21,1.05.6,1.76,1.05,1.76s.84-.71,1.05-1.76c.1-.48.6-.87,1.25-.98.91-.15,1.5-.39,1.5-.66Z"/>
      <path class="cls-2" d="m7287.37,730.92c0-.14-.3-.26-.78-.34-.35-.06-.61-.28-.66-.54-.1-.63-.32-1.07-.58-1.07s-.48.44-.58,1.07c-.04.26-.3.48-.66.54-.47.08-.78.2-.78.34s.31.27.8.35c.34.06.61.26.66.52.11.56.32.93.55.93s.44-.38.55-.93c.05-.26.32-.46.66-.52.48-.08.8-.21.8-.35Z"/>
      <path class="cls-2" d="m7366.57,581.58c0-.21-.46-.4-1.18-.52-.54-.09-.93-.42-1-.82-.16-.96-.49-1.63-.88-1.63s-.72.67-.88,1.63c-.06.4-.46.73-1,.82-.72.12-1.18.31-1.18.52s.48.41,1.21.53c.52.09.93.4,1,.79.17.85.48,1.42.84,1.42s.67-.57.84-1.42c.08-.39.48-.7,1-.79.74-.12,1.21-.31,1.21-.53Z"/>
      <path class="cls-2" d="m7421.08,570.01c0-.15-.33-.29-.84-.37-.38-.06-.67-.3-.71-.59-.11-.69-.35-1.17-.63-1.17s-.52.48-.63,1.17c-.05.29-.33.52-.71.59-.51.09-.84.22-.84.37s.34.29.86.38c.37.06.66.28.72.56.12.61.34,1.01.6,1.01s.48-.41.6-1.01c.06-.28.34-.5.72-.56.53-.09.86-.22.86-.38Z"/>
      <path class="cls-2" d="m7480.47,835.82c0-.28-.61-.53-1.55-.69-.7-.12-1.23-.55-1.31-1.08-.21-1.27-.65-2.14-1.16-2.14s-.95.88-1.16,2.14c-.09.53-.61.96-1.31,1.08-.94.16-1.55.41-1.55.69s.62.54,1.59.69c.69.11,1.22.52,1.32,1.03.22,1.12.63,1.87,1.11,1.87s.88-.75,1.11-1.87c.1-.51.63-.92,1.32-1.03.97-.16,1.59-.41,1.59-.69Z"/>
      <path class="cls-2" d="m7542.45,331.64c0-.18-.38-.33-.98-.43-.44-.08-.77-.35-.83-.68-.13-.8-.41-1.36-.73-1.36s-.6.55-.73,1.36c-.05.33-.38.61-.83.68-.6.1-.98.26-.98.43s.39.34,1.01.44c.43.07.77.33.83.65.14.71.4,1.18.7,1.18s.56-.47.7-1.18c.06-.32.4-.58.83-.65.61-.1,1.01-.26,1.01-.44Z"/>
      <path class="cls-2" d="m7627.68,1038.36c0-.15-.33-.29-.84-.38-.38-.07-.67-.3-.71-.59-.11-.69-.35-1.17-.63-1.17s-.52.48-.63,1.17c-.05.29-.33.52-.71.59-.51.09-.84.22-.84.38s.34.29.87.38c.37.06.66.29.72.56.12.61.35,1.02.6,1.02s.48-.41.6-1.02c.06-.28.34-.5.72-.56.53-.09.87-.22.87-.38Z"/>
    </g>
  </g>
  <g class="cls-1">
    <g>
      <ellipse class="cls-2" cx="60.73" cy="310.25" rx="5.23" ry="5.11"/>
      <ellipse class="cls-2" cx="244.68" cy="293.85" rx="5.23" ry="5.11"/>
      <ellipse class="cls-2" cx="369.58" cy="590.84" rx="5.23" ry="5.11"/>
      <ellipse class="cls-2" cx="512.64" cy="448.29" rx="5.23" ry="5.11"/>
      <ellipse class="cls-2" cx="623.67" cy="546.35" rx="5.23" ry="5.11"/>
      <ellipse class="cls-2" cx="836.01" cy="552.37" rx="5.23" ry="5.11"/>
      <ellipse class="cls-2" cx="853.3" cy="233.99" rx="5.23" ry="5.11"/>
      <ellipse class="cls-2" cx="1028.98" cy="200.38" rx="5.23" ry="5.11"/>
      <ellipse class="cls-2" cx="1107.07" cy="393.81" rx="5.23" ry="5.11"/>
      <ellipse class="cls-2" cx="1121.35" cy="526.37" rx="5.23" ry="5.11"/>
      <ellipse class="cls-2" cx="1281.42" cy="489.89" rx="5.23" ry="5.11"/>
      <ellipse class="cls-2" cx="1457.07" cy="660.43" rx="5.23" ry="5.11"/>
      <ellipse class="cls-2" cx="1679.34" cy="187.7" rx="5.23" ry="5.11"/>
      <ellipse class="cls-2" cx="1831.48" cy="641.08" rx="5.23" ry="5.11"/>
      <ellipse class="cls-2" cx="1945.58" cy="173.5" rx="5.23" ry="5.11"/>
      <ellipse class="cls-2" cx="2034.91" cy="425.03" rx="5.23" ry="5.11"/>
      <ellipse class="cls-2" cx="2108.15" cy="366.69" rx="5.23" ry="5.11"/>
      <ellipse class="cls-2" cx="2176.44" cy="360.86" rx="5.23" ry="5.11"/>
      <ellipse class="cls-2" cx="2275.21" cy="585.16" rx="5.23" ry="5.11"/>
      <ellipse class="cls-2" cx="2461.38" cy="177.75" rx="5.23" ry="5.11"/>
      <ellipse class="cls-2" cx="2514.81" cy="641.24" rx="5.23" ry="5.11"/>
      <ellipse class="cls-2" cx="2776.03" cy="537.5" rx="5.23" ry="5.11"/>
      <ellipse class="cls-2" cx="2901.54" cy="453.32" rx="5.23" ry="5.11"/>
      <ellipse class="cls-2" cx="2958.32" cy="353.33" rx="5.23" ry="5.11"/>
      <ellipse class="cls-2" cx="2968.16" cy="484.1" rx="5.23" ry="5.11"/>
      <ellipse class="cls-2" cx="3059.54" cy="637.81" rx="5.23" ry="5.11"/>
      <ellipse class="cls-2" cx="3286.8" cy="650.27" rx="5.23" ry="5.11"/>
      <ellipse class="cls-2" cx="3536.82" cy="270.59" rx="5.23" ry="5.11"/>
      <ellipse class="cls-2" cx="3784.81" cy="554.35" rx="5.23" ry="5.11"/>
      <ellipse class="cls-2" cx="3847.09" cy="329.22" rx="5.23" ry="5.11"/>
      <ellipse class="cls-2" cx="4097.7" cy="479.89" rx="5.23" ry="5.11"/>
      <ellipse class="cls-2" cx="4295.92" cy="186.81" rx="5.23" ry="5.11"/>
      <ellipse class="cls-2" cx="4411.04" cy="561.93" rx="5.23" ry="5.11"/>
      <ellipse class="cls-2" cx="4659.44" cy="234.75" rx="5.23" ry="5.11"/>
      <ellipse class="cls-2" cx="4884.57" cy="537.62" rx="5.23" ry="5.11"/>
      <ellipse class="cls-2" cx="5129.26" cy="295.82" rx="5.23" ry="5.11"/>
      <ellipse class="cls-2" cx="5213.89" cy="271.88" rx="5.23" ry="5.11"/>
      <ellipse class="cls-2" cx="5396.45" cy="289.44" rx="5.23" ry="5.11"/>
      <ellipse class="cls-2" cx="5459.46" cy="454.73" rx="5.23" ry="5.11"/>
      <ellipse class="cls-2" cx="5712.35" cy="385.14" rx="5.23" ry="5.11"/>
      <ellipse class="cls-2" cx="5898.22" cy="439.24" rx="5.23" ry="5.11"/>
      <ellipse class="cls-2" cx="5993.06" cy="667.6" rx="5.23" ry="5.11"/>
      <ellipse class="cls-2" cx="6119.42" cy="237.07" rx="5.23" ry="5.11"/>
      <ellipse class="cls-2" cx="6273.51" cy="596.41" rx="5.23" ry="5.11"/>
      <ellipse class="cls-2" cx="6490.33" cy="516.04" rx="5.23" ry="5.11"/>
      <ellipse class="cls-2" cx="6570.76" cy="440.25" rx="5.23" ry="5.11"/>
      <ellipse class="cls-2" cx="6659.85" cy="570.51" rx="5.23" ry="5.11"/>
      <ellipse class="cls-2" cx="6811.39" cy="548.88" rx="5.23" ry="5.11"/>
      <ellipse class="cls-2" cx="6880.76" cy="615.39" rx="5.23" ry="5.11"/>
      <ellipse class="cls-2" cx="6943.49" cy="180.59" rx="5.23" ry="5.11"/>
      <ellipse class="cls-2" cx="7040.12" cy="161.01" rx="5.23" ry="5.11"/>
      <ellipse class="cls-2" cx="7064.44" cy="577.31" rx="5.23" ry="5.11"/>
      <ellipse class="cls-2" cx="7130.81" cy="310.03" rx="5.23" ry="5.11"/>
      <ellipse class="cls-2" cx="7384.08" cy="161.94" rx="5.23" ry="5.11"/>
      <ellipse class="cls-2" cx="7469.73" cy="415.38" rx="5.23" ry="5.11"/>
      <ellipse class="cls-2" cx="7657.72" cy="189.67" rx="5.23" ry="5.11"/>
      <ellipse class="cls-2" cx="7665.53" cy="237.31" rx="5.23" ry="5.11"/>
    </g>
  </g>
  <g class="cls-1">
    <g>
      <ellipse class="cls-2" cx="7662.67" cy="724.1" rx="5.23" ry="5.11"/>
      <ellipse class="cls-2" cx="7474.68" cy="949.81" rx="5.23" ry="5.11"/>
      <ellipse class="cls-2" cx="7466.88" cy="902.18" rx="5.23" ry="5.11"/>
      <ellipse class="cls-2" cx="7237.57" cy="770.57" rx="5.23" ry="5.11"/>
      <ellipse class="cls-2" cx="7057.73" cy="714.22" rx="5.23" ry="5.11"/>
      <ellipse class="cls-2" cx="6968.2" cy="642.12" rx="5.23" ry="5.11"/>
      <ellipse class="cls-2" cx="6946.5" cy="613.99" rx="5.23" ry="5.11"/>
      <ellipse class="cls-2" cx="6749.95" cy="803.76" rx="5.23" ry="5.11"/>
      <ellipse class="cls-2" cx="6653.88" cy="623.57" rx="5.23" ry="5.11"/>
      <ellipse class="cls-2" cx="6625.91" cy="663.48" rx="5.23" ry="5.11"/>
      <ellipse class="cls-2" cx="6584.05" cy="947.24" rx="5.23" ry="5.11"/>
      <ellipse class="cls-2" cx="6529.83" cy="807.14" rx="5.23" ry="5.11"/>
      <ellipse class="cls-2" cx="6321.17" cy="833.34" rx="5.23" ry="5.11"/>
      <ellipse class="cls-2" cx="6150.12" cy="614.36" rx="5.23" ry="5.11"/>
      <ellipse class="cls-2" cx="6098.55" cy="977.22" rx="5.23" ry="5.11"/>
      <ellipse class="cls-2" cx="5993.79" cy="465.1" rx="5.23" ry="5.11"/>
      <ellipse class="cls-2" cx="5776.25" cy="624.29" rx="5.23" ry="5.11"/>
      <ellipse class="cls-2" cx="5772.18" cy="665.9" rx="5.23" ry="5.11"/>
      <ellipse class="cls-2" cx="5621.82" cy="546.57" rx="5.23" ry="5.11"/>
      <ellipse class="cls-2" cx="5366.43" cy="467.35" rx="5.23" ry="5.11"/>
      <ellipse class="cls-2" cx="5110.07" cy="542.95" rx="5.23" ry="5.11"/>
      <ellipse class="cls-2" cx="5098.12" cy="858.73" rx="5.23" ry="5.11"/>
      <ellipse class="cls-2" cx="4917.72" cy="614.87" rx="5.23" ry="5.11"/>
      <ellipse class="cls-2" cx="4762.45" cy="537.82" rx="5.23" ry="5.11"/>
      <ellipse class="cls-2" cx="4567.57" cy="528.45" rx="5.23" ry="5.11"/>
      <ellipse class="cls-2" cx="4323.95" cy="548.33" rx="5.23" ry="5.11"/>
      <ellipse class="cls-2" cx="4293.08" cy="459.06" rx="5.23" ry="5.11"/>
      <ellipse class="cls-2" cx="4114.6" cy="910.13" rx="5.23" ry="5.11"/>
      <ellipse class="cls-2" cx="3894.31" cy="811.19" rx="5.23" ry="5.11"/>
      <ellipse class="cls-2" cx="3835.68" cy="829.41" rx="5.23" ry="5.11"/>
      <ellipse class="cls-2" cx="3735.14" cy="886.16" rx="5.23" ry="5.11"/>
      <ellipse class="cls-2" cx="3617.06" cy="803.1" rx="5.23" ry="5.11"/>
      <ellipse class="cls-2" cx="3435.27" cy="834.87" rx="5.23" ry="5.11"/>
      <ellipse class="cls-2" cx="3224.11" cy="834.4" rx="5.23" ry="5.11"/>
      <ellipse class="cls-2" cx="3006.19" cy="620.84" rx="5.23" ry="5.11"/>
      <ellipse class="cls-2" cx="2909" cy="855.77" rx="5.23" ry="5.11"/>
      <ellipse class="cls-2" cx="2900.97" cy="834.16" rx="5.23" ry="5.11"/>
      <ellipse class="cls-2" cx="2863.83" cy="616.24" rx="5.23" ry="5.11"/>
      <ellipse class="cls-2" cx="2850.14" cy="770.99" rx="5.23" ry="5.11"/>
      <ellipse class="cls-2" cx="2805.17" cy="673.92" rx="5.23" ry="5.11"/>
      <ellipse class="cls-2" cx="2731.75" cy="677.1" rx="5.23" ry="5.11"/>
      <ellipse class="cls-2" cx="2622.51" cy="718.11" rx="5.23" ry="5.11"/>
      <ellipse class="cls-2" cx="2617.44" cy="513.39" rx="5.23" ry="5.11"/>
      <ellipse class="cls-2" cx="2478.82" cy="639.7" rx="5.23" ry="5.11"/>
      <ellipse class="cls-2" cx="2357.6" cy="776.23" rx="5.23" ry="5.11"/>
      <ellipse class="cls-2" cx="2346.24" cy="814.19" rx="5.23" ry="5.11"/>
      <ellipse class="cls-2" cx="2168.36" cy="697.41" rx="5.23" ry="5.11"/>
      <ellipse class="cls-2" cx="1942.2" cy="500.58" rx="5.23" ry="5.11"/>
      <ellipse class="cls-2" cx="1870.76" cy="686.19" rx="5.23" ry="5.11"/>
      <ellipse class="cls-2" cx="1677.04" cy="468.44" rx="5.23" ry="5.11"/>
      <ellipse class="cls-2" cx="1630.15" cy="943.63" rx="5.23" ry="5.11"/>
      <ellipse class="cls-2" cx="1537.92" cy="695.68" rx="5.23" ry="5.11"/>
      <ellipse class="cls-2" cx="1331.01" cy="874.48" rx="5.23" ry="5.11"/>
      <ellipse class="cls-2" cx="1094.84" cy="919.96" rx="5.23" ry="5.11"/>
      <ellipse class="cls-2" cx="1061.3" cy="551.48" rx="5.23" ry="5.11"/>
      <ellipse class="cls-2" cx="950.62" cy="901.85" rx="5.23" ry="5.11"/>
      <ellipse class="cls-2" cx="830.49" cy="798.69" rx="5.23" ry="5.11"/>
      <ellipse class="cls-2" cx="665.1" cy="851.8" rx="5.23" ry="5.11"/>
      <ellipse class="cls-2" cx="543.65" cy="567.21" rx="5.23" ry="5.11"/>
      <ellipse class="cls-2" cx="318.25" cy="480.69" rx="5.23" ry="5.11"/>
      <ellipse class="cls-2" cx="123.55" cy="853.86" rx="5.23" ry="5.11"/>
      <ellipse class="cls-2" cx="112.79" cy="756.69" rx="5.23" ry="5.11"/>
    </g>
  </g>
  <g class="cls-1">
    <g>
      <path class="cls-2" d="m7680.15,1009.07c0-.21-.46-.4-1.18-.52-.53-.09-.93-.42-1-.82-.16-.96-.49-1.63-.88-1.63s-.72.67-.88,1.63c-.06.4-.46.73-1,.82-.72.12-1.18.31-1.18.52s.47.41,1.21.53c.52.09.92.4,1,.79.17.85.48,1.42.84,1.42s.67-.57.84-1.42c.08-.39.48-.7,1-.79.73-.12,1.21-.31,1.21-.53Z"/>
      <path class="cls-2" d="m7457.12,222.61c0-.2-.44-.39-1.13-.5-.51-.09-.9-.4-.96-.79-.15-.93-.47-1.57-.85-1.57s-.7.64-.85,1.57c-.06.38-.44.7-.96.79-.69.12-1.13.3-1.13.5s.46.39,1.16.51c.5.08.89.38.96.76.16.82.46,1.36.81,1.36s.65-.55.81-1.36c.07-.37.46-.67.96-.76.71-.12,1.16-.3,1.16-.51Z"/>
      <path class="cls-2" d="m7111.4,566.21c0-.21-.45-.4-1.16-.52-.53-.09-.92-.41-.98-.81-.15-.95-.48-1.61-.87-1.61s-.71.66-.87,1.61c-.06.39-.46.72-.98.81-.71.12-1.16.31-1.16.52s.47.4,1.19.52c.51.08.91.39.99.78.17.84.48,1.4.83,1.4s.66-.56.83-1.4c.08-.38.47-.69.99-.78.73-.12,1.19-.31,1.19-.52Z"/>
      <path class="cls-2" d="m6983.82,171.44c0-.16-.34-.3-.87-.39-.39-.07-.69-.31-.73-.6-.11-.71-.36-1.2-.65-1.2s-.53.49-.65,1.2c-.05.29-.34.54-.73.6-.53.09-.87.23-.87.39s.35.3.89.39c.38.06.68.29.74.58.12.62.35,1.04.62,1.04s.5-.42.62-1.04c.06-.29.35-.52.74-.58.54-.09.89-.23.89-.39Z"/>
      <path class="cls-2" d="m6892.9,255.18c0-.51-1.11-.96-2.83-1.26-1.29-.22-2.24-1.01-2.39-1.97-.37-2.31-1.18-3.92-2.11-3.92s-1.74,1.6-2.11,3.92c-.16.96-1.11,1.75-2.39,1.97-1.72.29-2.83.75-2.83,1.26s1.14.98,2.91,1.27c1.25.21,2.22.96,2.41,1.89.4,2.04,1.16,3.41,2.02,3.41s1.61-1.37,2.02-3.41c.19-.93,1.15-1.68,2.41-1.89,1.77-.29,2.91-.75,2.91-1.27Z"/>
      <path class="cls-2" d="m6712.94,246.93c0-.35-.76-.66-1.93-.86-.88-.15-1.53-.69-1.64-1.34-.26-1.58-.81-2.68-1.44-2.68s-1.19,1.09-1.44,2.68c-.11.66-.76,1.2-1.64,1.34-1.18.2-1.93.51-1.93.86s.78.67,1.99.87c.86.14,1.52.65,1.64,1.29.28,1.39.79,2.33,1.38,2.33s1.1-.94,1.38-2.33c.13-.64.79-1.15,1.64-1.29,1.21-.2,1.99-.51,1.99-.87Z"/>
      <path class="cls-2" d="m6275.09,639.83c0-.38-.83-.72-2.12-.94-.96-.16-1.68-.75-1.8-1.48-.28-1.74-.88-2.94-1.58-2.94s-1.3,1.2-1.58,2.94c-.12.72-.83,1.31-1.8,1.48-1.29.22-2.12.56-2.12.94s.86.73,2.18.95c.94.15,1.66.72,1.8,1.42.3,1.53.87,2.55,1.51,2.55s1.21-1.03,1.51-2.55c.14-.7.86-1.26,1.8-1.42,1.32-.22,2.18-.56,2.18-.95Z"/>
      <path class="cls-2" d="m5947.48,398.56c0-.52-1.12-.97-2.85-1.27-1.3-.22-2.26-1.02-2.42-1.98-.38-2.34-1.19-3.95-2.13-3.95s-1.75,1.62-2.13,3.95c-.16.97-1.12,1.77-2.42,1.98-1.74.29-2.85.75-2.85,1.27s1.15.99,2.93,1.28c1.26.21,2.24.96,2.43,1.91.41,2.06,1.17,3.44,2.04,3.44s1.63-1.38,2.04-3.44c.19-.94,1.16-1.7,2.43-1.91,1.78-.29,2.93-.76,2.93-1.28Z"/>
      <path class="cls-2" d="m5894.5,50.43c0-.28-.61-.53-1.56-.69-.71-.12-1.24-.56-1.32-1.09-.21-1.28-.65-2.16-1.17-2.16s-.96.88-1.17,2.16c-.09.53-.61.97-1.32,1.09-.95.16-1.56.41-1.56.69s.63.54,1.6.7c.69.11,1.23.53,1.33,1.04.22,1.13.64,1.88,1.12,1.88s.89-.76,1.12-1.88c.1-.51.64-.93,1.33-1.04.97-.16,1.6-.41,1.6-.7Z"/>
      <path class="cls-2" d="m5642.63,929.97c0-.19-.4-.35-1.03-.46-.47-.08-.82-.37-.87-.72-.14-.85-.43-1.43-.77-1.43s-.63.58-.77,1.43c-.06.35-.41.64-.87.72-.63.11-1.03.27-1.03.46s.42.36,1.06.46c.46.08.81.35.88.69.15.74.42,1.24.74,1.24s.59-.5.74-1.24c.07-.34.42-.61.88-.69.65-.11,1.06-.27,1.06-.46Z"/>
      <path class="cls-2" d="m5356.58,360.08c0-.22-.48-.42-1.23-.55-.56-.09-.98-.44-1.04-.86-.16-1.01-.51-1.71-.92-1.71s-.76.7-.92,1.71c-.07.42-.48.76-1.04.86-.75.13-1.23.33-1.23.55s.5.43,1.27.55c.55.09.97.42,1.05.82.18.89.51,1.49.88,1.49s.7-.6.88-1.49c.08-.41.5-.73,1.05-.82.77-.13,1.27-.33,1.27-.55Z"/>
      <path class="cls-2" d="m5069.46,1038.42c0-.48-1.05-.92-2.68-1.19-1.22-.21-2.12-.96-2.27-1.87-.36-2.2-1.12-3.72-2-3.72s-1.65,1.52-2,3.72c-.15.91-1.05,1.66-2.27,1.87-1.63.28-2.68.71-2.68,1.19s1.08.93,2.76,1.2c1.19.2,2.11.91,2.28,1.79.38,1.93,1.1,3.23,1.92,3.23s1.53-1.3,1.92-3.23c.18-.88,1.09-1.6,2.28-1.79,1.68-.28,2.76-.71,2.76-1.2Z"/>
      <path class="cls-2" d="m5054.44,912.13c0-.3-.66-.58-1.69-.75-.77-.13-1.34-.6-1.43-1.18-.22-1.38-.7-2.34-1.26-2.34s-1.04.96-1.26,2.34c-.09.57-.66,1.05-1.43,1.18-1.03.17-1.69.45-1.69.75s.68.58,1.74.76c.75.12,1.33.57,1.44,1.13.24,1.22.69,2.03,1.21,2.03s.96-.82,1.21-2.03c.11-.56.69-1,1.44-1.13,1.05-.17,1.74-.45,1.74-.76Z"/>
      <path class="cls-2" d="m4999.43,886.9c0-.44-.95-.83-2.42-1.08-1.1-.19-1.92-.86-2.05-1.69-.32-1.98-1.01-3.36-1.81-3.36s-1.49,1.37-1.81,3.36c-.13.82-.95,1.5-2.05,1.69-1.47.25-2.42.64-2.42,1.08s.98.84,2.49,1.09c1.07.18,1.9.82,2.06,1.62.35,1.75.99,2.92,1.73,2.92s1.38-1.17,1.73-2.92c.16-.8.99-1.44,2.06-1.62,1.51-.25,2.49-.64,2.49-1.09Z"/>
      <path class="cls-2" d="m4973.97,707.34c0-.25-.55-.48-1.4-.62-.64-.11-1.11-.5-1.19-.98-.19-1.15-.58-1.94-1.05-1.94s-.86.79-1.05,1.94c-.08.48-.55.87-1.19.98-.85.14-1.4.37-1.4.62s.57.49,1.44.63c.62.1,1.1.47,1.19.94.2,1.01.57,1.69,1,1.69s.8-.68,1-1.69c.09-.46.57-.83,1.19-.94.88-.14,1.44-.37,1.44-.63Z"/>
      <path class="cls-2" d="m4706.03,1038.98c0-.42-.92-.8-2.35-1.04-1.07-.18-1.86-.84-1.99-1.63-.31-1.92-.98-3.25-1.75-3.25s-1.44,1.33-1.75,3.25c-.13.8-.92,1.45-1.99,1.63-1.43.24-2.35.62-2.35,1.04s.95.81,2.41,1.05c1.04.17,1.84.79,2,1.57.34,1.69.96,2.83,1.68,2.83s1.34-1.14,1.68-2.83c.15-.77.96-1.4,2-1.57,1.47-.24,2.41-.62,2.41-1.05Z"/>
      <path class="cls-2" d="m4436.77,339.39c0-.32-.69-.61-1.77-.79-.81-.14-1.41-.63-1.5-1.23-.24-1.45-.74-2.46-1.33-2.46s-1.09,1.01-1.33,2.46c-.1.6-.7,1.1-1.5,1.23-1.08.18-1.77.47-1.77.79s.72.61,1.82.8c.79.13,1.39.6,1.51,1.19.25,1.28.73,2.14,1.27,2.14s1.01-.86,1.27-2.14c.12-.59.72-1.06,1.51-1.19,1.11-.18,1.82-.47,1.82-.8Z"/>
      <path class="cls-2" d="m4121.11,917.21c0-.52-1.13-.98-2.88-1.28-1.31-.22-2.28-1.02-2.44-2-.38-2.36-1.2-3.98-2.15-3.98s-1.77,1.63-2.15,3.98c-.16.98-1.13,1.78-2.44,2-1.75.3-2.88.76-2.88,1.28s1.16,1,2.96,1.29c1.28.21,2.26.97,2.45,1.92.41,2.07,1.18,3.47,2.05,3.47s1.64-1.39,2.05-3.47c.19-.95,1.17-1.71,2.45-1.92,1.8-.3,2.96-.76,2.96-1.29Z"/>
      <path class="cls-2" d="m3890.62,932.15c0-.4-.87-.76-2.21-.98-1.01-.17-1.75-.79-1.87-1.54-.29-1.81-.92-3.07-1.65-3.07s-1.36,1.25-1.65,3.07c-.12.75-.87,1.37-1.87,1.54-1.35.23-2.21.58-2.21.98s.89.77,2.27.99c.98.16,1.74.75,1.88,1.48.32,1.59.91,2.67,1.58,2.67s1.26-1.07,1.58-2.67c.15-.73.9-1.32,1.88-1.48,1.38-.23,2.27-.59,2.27-.99Z"/>
      <path class="cls-2" d="m3740.36,229.23c0-.48-1.05-.91-2.68-1.19-1.22-.21-2.12-.95-2.27-1.86-.36-2.19-1.12-3.71-2-3.71s-1.64,1.52-2,3.71c-.15.91-1.05,1.66-2.27,1.86-1.63.28-2.68.71-2.68,1.19s1.08.93,2.75,1.2c1.19.2,2.1.91,2.28,1.79.38,1.93,1.1,3.23,1.91,3.23s1.53-1.3,1.91-3.23c.18-.88,1.09-1.59,2.28-1.79,1.67-.28,2.75-.71,2.75-1.2Z"/>
      <path class="cls-2" d="m3461.69,879.79c0-.16-.34-.29-.86-.38-.39-.07-.68-.31-.73-.6-.11-.71-.36-1.19-.64-1.19s-.53.49-.64,1.19c-.05.29-.34.53-.73.6-.52.09-.86.23-.86.38s.35.3.89.39c.38.06.68.29.73.58.12.62.35,1.04.62,1.04s.49-.42.62-1.04c.06-.28.35-.51.73-.58.54-.09.89-.23.89-.39Z"/>
      <path class="cls-2" d="m3432.11,939.59c0-.32-.7-.61-1.78-.79-.81-.14-1.41-.64-1.51-1.24-.24-1.46-.74-2.47-1.33-2.47s-1.1,1.01-1.33,2.47c-.1.61-.7,1.1-1.51,1.24-1.09.18-1.78.47-1.78.79s.72.62,1.83.8c.79.13,1.4.6,1.52,1.19.26,1.29.73,2.15,1.27,2.15s1.02-.86,1.27-2.15c.12-.59.73-1.06,1.52-1.19,1.11-.18,1.83-.47,1.83-.8Z"/>
      <path class="cls-2" d="m3316.94,4.12c0-.45-.97-.85-2.49-1.11-1.13-.19-1.97-.89-2.11-1.73-.33-2.04-1.04-3.45-1.86-3.45s-1.53,1.41-1.86,3.45c-.14.85-.98,1.54-2.11,1.73-1.51.26-2.49.66-2.49,1.11s1,.86,2.56,1.12c1.1.18,1.96.84,2.12,1.66.36,1.79,1.02,3,1.78,3s1.42-1.21,1.78-3c.16-.82,1.01-1.48,2.12-1.66,1.55-.26,2.56-.66,2.56-1.12Z"/>
      <path class="cls-2" d="m3259.84,212.6c0-.27-.58-.51-1.49-.66-.68-.11-1.18-.53-1.26-1.04-.2-1.22-.62-2.06-1.11-2.06s-.91.84-1.11,2.06c-.08.51-.58.92-1.26,1.04-.91.15-1.49.39-1.49.66s.6.52,1.53.67c.66.11,1.17.5,1.27.99.21,1.07.61,1.8,1.06,1.8s.85-.72,1.06-1.8c.1-.49.61-.89,1.27-.99.93-.15,1.53-.4,1.53-.67Z"/>
      <path class="cls-2" d="m3149.72,963.79c0-.35-.75-.65-1.91-.85-.87-.15-1.52-.68-1.62-1.33-.25-1.57-.8-2.65-1.43-2.65s-1.18,1.08-1.43,2.65c-.11.65-.75,1.18-1.62,1.33-1.16.2-1.91.5-1.91.85s.77.66,1.97.86c.85.14,1.5.65,1.63,1.28.27,1.38.78,2.31,1.37,2.31s1.09-.93,1.37-2.31c.13-.63.78-1.14,1.63-1.28,1.2-.2,1.97-.51,1.97-.86Z"/>
      <path class="cls-2" d="m3090.66,110.3c0-.34-.74-.65-1.9-.84-.86-.15-1.51-.68-1.61-1.32-.25-1.56-.79-2.63-1.42-2.63s-1.17,1.08-1.42,2.63c-.1.65-.75,1.18-1.61,1.32-1.16.2-1.9.5-1.9.84s.77.66,1.95.85c.84.14,1.49.64,1.62,1.27.27,1.37.78,2.29,1.36,2.29s1.09-.92,1.36-2.29c.12-.63.77-1.13,1.62-1.27,1.19-.2,1.95-.5,1.95-.85Z"/>
      <path class="cls-2" d="m2993.92,170.72c0-.3-.64-.56-1.65-.73-.75-.13-1.3-.59-1.4-1.15-.22-1.35-.69-2.28-1.23-2.28s-1.01.93-1.23,2.28c-.09.56-.65,1.02-1.4,1.15-1,.17-1.65.43-1.65.73s.66.57,1.69.74c.73.12,1.29.56,1.4,1.1.24,1.19.67,1.99,1.18,1.99s.94-.8,1.18-1.99c.11-.54.67-.98,1.4-1.1,1.03-.17,1.69-.44,1.69-.74Z"/>
      <path class="cls-2" d="m2656.85,430.17c0-.42-.91-.79-2.33-1.03-1.06-.18-1.84-.83-1.97-1.62-.31-1.91-.97-3.23-1.74-3.23s-1.43,1.32-1.74,3.23c-.13.79-.91,1.44-1.97,1.62-1.42.24-2.33.61-2.33,1.03s.94.81,2.39,1.05c1.03.17,1.83.79,1.98,1.56.33,1.68.95,2.81,1.66,2.81s1.33-1.13,1.66-2.81c.15-.77.95-1.39,1.98-1.56,1.45-.24,2.39-.62,2.39-1.05Z"/>
      <path class="cls-2" d="m2475.22,235.86c0-.43-.93-.81-2.37-1.05-1.08-.18-1.88-.84-2.01-1.65-.31-1.94-.99-3.29-1.77-3.29s-1.46,1.34-1.77,3.29c-.13.81-.93,1.47-2.01,1.65-1.44.24-2.37.63-2.37,1.05s.96.82,2.44,1.07c1.05.17,1.86.8,2.02,1.58.34,1.71.97,2.86,1.69,2.86s1.35-1.15,1.69-2.86c.16-.78.97-1.41,2.02-1.58,1.48-.24,2.44-.63,2.44-1.07Z"/>
      <path class="cls-2" d="m2195.39,840.33c0-.53-1.14-1-2.92-1.3-1.33-.22-2.31-1.04-2.47-2.03-.39-2.39-1.22-4.04-2.18-4.04s-1.79,1.65-2.18,4.04c-.16.99-1.14,1.81-2.47,2.03-1.77.3-2.92.77-2.92,1.3s1.18,1.01,3,1.31c1.29.21,2.29.99,2.48,1.95.42,2.1,1.19,3.52,2.08,3.52s1.67-1.41,2.08-3.52c.19-.96,1.19-1.74,2.48-1.95,1.82-.3,3-.78,3-1.31Z"/>
      <path class="cls-2" d="m1860.47-4.42c0-.48-1.04-.91-2.66-1.18-1.21-.21-2.11-.95-2.25-1.85-.35-2.18-1.11-3.69-1.99-3.69s-1.64,1.51-1.99,3.69c-.15.9-1.04,1.65-2.25,1.85-1.62.27-2.66.7-2.66,1.18s1.07.92,2.74,1.2c1.18.19,2.09.9,2.27,1.78.38,1.92,1.09,3.21,1.9,3.21s1.52-1.29,1.9-3.21c.17-.88,1.09-1.58,2.27-1.78,1.66-.27,2.74-.71,2.74-1.2Z"/>
      <path class="cls-2" d="m1779.01,685.7c0-.3-.65-.57-1.66-.74-.76-.13-1.32-.59-1.41-1.16-.22-1.36-.69-2.3-1.24-2.3s-1.02.94-1.24,2.3c-.09.57-.65,1.03-1.41,1.16-1.01.17-1.66.44-1.66.74s.67.58,1.71.75c.74.12,1.31.56,1.42,1.11.24,1.2.68,2,1.19,2s.95-.81,1.19-2c.11-.55.68-.99,1.42-1.11,1.04-.17,1.71-.44,1.71-.75Z"/>
      <path class="cls-2" d="m1550.95,632.27c0-.52-1.13-.99-2.89-1.29-1.32-.22-2.29-1.03-2.45-2.01-.38-2.37-1.21-4.01-2.16-4.01s-1.78,1.64-2.16,4.01c-.16.98-1.14,1.79-2.45,2.01-1.76.3-2.89.76-2.89,1.29s1.17,1,2.97,1.3c1.28.21,2.27.98,2.46,1.93.41,2.09,1.18,3.49,2.07,3.49s1.65-1.4,2.07-3.49c.19-.95,1.18-1.72,2.46-1.93,1.81-.3,2.97-.77,2.97-1.3Z"/>
      <path class="cls-2" d="m1190.34,279.56c0-.52-1.13-.99-2.9-1.29-1.32-.22-2.3-1.03-2.46-2.02-.38-2.38-1.21-4.02-2.17-4.02s-1.78,1.64-2.17,4.02c-.16.99-1.14,1.79-2.46,2.02-1.76.3-2.9.76-2.9,1.29s1.17,1,2.98,1.3c1.29.21,2.28.98,2.47,1.94.42,2.09,1.19,3.5,2.07,3.5s1.66-1.4,2.07-3.5c.19-.96,1.18-1.73,2.47-1.94,1.81-.3,2.98-.77,2.98-1.3Z"/>
      <path class="cls-2" d="m934.63,29.93c0-.42-.92-.8-2.34-1.04-1.07-.18-1.86-.83-1.99-1.63-.31-1.92-.98-3.25-1.75-3.25s-1.44,1.33-1.75,3.25c-.13.8-.92,1.45-1.99,1.63-1.43.24-2.34.62-2.34,1.04s.95.81,2.41,1.05c1.04.17,1.84.79,2,1.57.34,1.69.96,2.83,1.67,2.83s1.34-1.14,1.67-2.83c.15-.77.96-1.39,2-1.57,1.46-.24,2.41-.62,2.41-1.05Z"/>
      <path class="cls-2" d="m666.33,499.11c0-.15-.34-.29-.86-.38-.39-.07-.68-.31-.73-.6-.11-.7-.36-1.19-.64-1.19s-.53.49-.64,1.19c-.05.29-.34.53-.73.6-.52.09-.86.23-.86.38s.35.3.88.38c.38.06.67.29.73.57.12.62.35,1.03.61,1.03s.49-.41.61-1.03c.06-.28.35-.51.73-.57.53-.09.88-.23.88-.38Z"/>
      <path class="cls-2" d="m387.48,640.63c0-.48-1.05-.91-2.67-1.19-1.21-.21-2.12-.95-2.26-1.86-.35-2.19-1.11-3.7-1.99-3.7s-1.64,1.51-1.99,3.7c-.15.91-1.05,1.65-2.26,1.86-1.63.28-2.67.7-2.67,1.19s1.08.92,2.75,1.2c1.18.2,2.1.9,2.27,1.78.38,1.93,1.09,3.22,1.91,3.22s1.53-1.29,1.91-3.22c.18-.88,1.09-1.59,2.27-1.78,1.67-.27,2.75-.71,2.75-1.2Z"/>
      <path class="cls-2" d="m271.69,734.08s-.1-.08-.25-.11c-.11-.02-.2-.09-.21-.17-.03-.2-.1-.34-.18-.34s-.15.14-.18.34c-.01.08-.1.15-.21.17-.15.03-.25.07-.25.11s.1.09.25.11c.11.02.19.08.21.17.04.18.1.3.18.3s.14-.12.18-.3c.02-.08.1-.15.21-.17.15-.03.25-.07.25-.11Z"/>
    </g>
  </g>
</svg>